<?xml version="1.0" encoding="UTF-8"?>
<svg width="76px" height="76px" viewBox="0 0 76 76" version="1.1" xmlns="http://www.w3.org/2000/svg" xmlns:xlink="http://www.w3.org/1999/xlink">
    <!-- Generator: Sketch 52.5 (67469) - http://www.bohemiancoding.com/sketch -->
    <title>分组@2x</title>
    <desc>Created with Sketch.</desc>
    <defs>
        <filter x="-62.5%" y="-62.5%" width="225.0%" height="225.0%" filterUnits="objectBoundingBox" id="filter-1">
            <feOffset dx="0" dy="12" in="SourceAlpha" result="shadowOffsetOuter1"></feOffset>
            <feGaussianBlur stdDeviation="11.5" in="shadowOffsetOuter1" result="shadowBlurOuter1"></feGaussianBlur>
            <feColorMatrix values="0 0 0 0 0   0 0 0 0 0   0 0 0 0 0  0 0 0 0.05 0" type="matrix" in="shadowBlurOuter1" result="shadowMatrixOuter1"></feColorMatrix>
            <feMerge>
                <feMergeNode in="shadowMatrixOuter1"></feMergeNode>
                <feMergeNode in="SourceGraphic"></feMergeNode>
            </feMerge>
        </filter>
    </defs>
    <g id="小程序" stroke="none" stroke-width="1" fill="none" fill-rule="evenodd">
        <g id="设置笔名和头像" transform="translate(-149.000000, -135.000000)">
            <g id="分组-3" transform="translate(30.000000, 77.000000)">
                <g id="分组-4" filter="url(#filter-1)" transform="translate(103.000000, 30.000000)">
                    <g id="分组" transform="translate(39.000000, 39.000000)">
                        <polygon id="Fill-1" fill="#FFFFFF" points="0 30 30 30 30 0 0 0"></polygon>
                        <path d="M23.437125,13.482 L16.518375,13.482 L16.518375,6.56325 C16.518375,5.72325 15.83775,5.0445 14.999625,5.0445 C14.1615,5.0445 13.480875,5.72325 13.480875,6.56325 L13.480875,13.482 L6.562125,13.482 C5.724,13.482 5.043375,14.16075 5.043375,15.00075 C5.043375,15.838875 5.724,16.517625 6.562125,16.517625 L13.480875,16.517625 L13.480875,23.43825 C13.480875,24.276375 14.1615,24.955125 14.999625,24.955125 C15.83775,24.955125 16.518375,24.276375 16.518375,23.43825 L16.518375,16.517625 L23.437125,16.517625 C24.27525,16.517625 24.955875,15.838875 24.955875,15.00075 C24.955875,14.16075 24.27525,13.482 23.437125,13.482" id="Fill-2" fill="#E9E9E9"></path>
                    </g>
                </g>
            </g>
        </g>
    </g>
</svg>