<?xml version="1.0" encoding="UTF-8"?>
<svg width="16px" height="16px" viewBox="0 0 16 16" version="1.1" xmlns="http://www.w3.org/2000/svg" xmlns:xlink="http://www.w3.org/1999/xlink">
    <!-- Generator: Sketch 52.5 (67469) - http://www.bohemiancoding.com/sketch -->
    <title>分组@2x</title>
    <desc>Created with Sketch.</desc>
    <g id="小程序（精简版）" stroke="none" stroke-width="1" fill="none" fill-rule="evenodd">
        <g id="我的" transform="translate(-319.000000, -490.000000)">
            <g id="分组-6" transform="translate(20.000000, 471.000000)">
                <g id="分组-3">
                    <g id="分组-8-copy-2">
                        <g id="分组" transform="translate(299.000000, 19.000000)">
                            <polygon id="Fill-1" fill="#FFFFFF" points="0 16 16 16 16 0 0 0"></polygon>
                            <path d="M5.7588,12.9302 C5.8848,12.9302 6.0118,12.8822 6.1098,12.7862 L10.5918,8.3752 C10.6868,8.2812 10.7408,8.1532 10.7408,8.0192 C10.7418,7.8862 10.6888,7.7582 10.5928,7.6632 L6.1108,3.2152 C5.9158,3.0202 5.5998,3.0212 5.4038,3.2182 C5.2098,3.4132 5.2108,3.7302 5.4068,3.9252 L9.5298,8.0172 L5.4078,12.0742 C5.2118,12.2672 5.2088,12.5842 5.4028,12.7812 C5.5008,12.8802 5.6298,12.9302 5.7588,12.9302" id="Fill-2" fill="#BDBDC0"></path>
                        </g>
                    </g>
                </g>
            </g>
        </g>
    </g>
</svg>