<?xml version="1.0" encoding="UTF-8"?>
<svg width="16px" height="16px" viewBox="0 0 16 16" version="1.1" xmlns="http://www.w3.org/2000/svg" xmlns:xlink="http://www.w3.org/1999/xlink">
    <!-- Generator: Sketch 52.5 (67469) - http://www.bohemiancoding.com/sketch -->
    <title>分组@2x</title>
    <desc>Created with Sketch.</desc>
    <g id="小程序（精简版）" stroke="none" stroke-width="1" fill="none" fill-rule="evenodd">
        <g id="票券" transform="translate(-329.000000, -106.000000)">
            <g id="分组-5" transform="translate(30.000000, 81.000000)">
                <g id="分组" transform="translate(299.000000, 25.000000)">
                    <polygon id="Fill-1" fill="#FFFFFF" points="0 16 16 16 16 0 0 0"></polygon>
                    <path d="M5.7588,2.7598 C5.9638,2.7598 6.1698,2.8368 6.3268,2.9918 L10.8088,7.4048 C10.9638,7.5558 11.0508,7.7638 11.0508,7.9798 C11.0508,8.1968 10.9648,8.4048 10.8118,8.5568 L6.3298,13.0048 C6.0108,13.3198 5.4988,13.3188 5.1838,12.9998 C4.8688,12.6828 4.8708,12.1698 5.1878,11.8548 L9.0888,7.9838 L5.1908,4.1468 C4.8718,3.8328 4.8678,3.3208 5.1818,3.0008 C5.3398,2.8398 5.5498,2.7598 5.7588,2.7598" id="Fill-2" fill="#A9A9A9"></path>
                </g>
            </g>
        </g>
    </g>
</svg>