<?xml version="1.0" encoding="UTF-8"?>
<svg width="22px" height="22px" viewBox="0 0 22 22" version="1.1" xmlns="http://www.w3.org/2000/svg" xmlns:xlink="http://www.w3.org/1999/xlink">
    <!-- Generator: Sketch 52.5 (67469) - http://www.bohemiancoding.com/sketch -->
    <title>icon_message_cancel_reminder</title>
    <desc>Created with Sketch.</desc>
    <g id="icon_message_cancel_reminder" stroke="none" stroke-width="1" fill="none" fill-rule="evenodd">
        <g id="分组">
            <polygon id="Fill-1" points="0 22 22 22 22 0 0 0"></polygon>
            <g transform="translate(1.750000, 2.750000)" fill="#BDBDC0">
                <path d="M4.3488125,11 L14.1511875,11 C13.7716875,10.465125 13.5461875,9.813375 13.5461875,9.109375 L13.5461875,5.671875 C13.5461875,3.30275 11.6198125,1.375 9.2493125,1.375 C6.8801875,1.375 4.9524375,3.30275 4.9524375,5.671875 L4.9524375,9.109375 C4.9524375,9.813375 4.7283125,10.465125 4.3488125,11 M16.8118125,12.375 L1.6868125,12.375 C1.3073125,12.375 0.9993125,12.067 0.9993125,11.6875 C0.9993125,11.308 1.3073125,11 1.6868125,11 C2.7304375,11 3.5774375,10.151625 3.5774375,9.109375 L3.5774375,5.671875 C3.5774375,2.545125 6.1225625,0 9.2493125,0 C12.3774375,0 14.9211875,2.545125 14.9211875,5.671875 L14.9211875,9.109375 C14.9211875,10.151625 15.7695625,11 16.8118125,11 C17.1926875,11 17.4993125,11.308 17.4993125,11.6875 C17.4993125,12.067 17.1926875,12.375 16.8118125,12.375" id="Fill-2"></path>
                <path d="M9.25,16.5 C8.1335,16.5 7.103625,15.841375 6.627875,14.823875 C6.467,14.480125 6.614125,14.070375 6.957875,13.9095 C7.304375,13.74725 7.711375,13.897125 7.87225,14.240875 C8.123875,14.7785 8.665625,15.125 9.25,15.125 C9.834375,15.125 10.376125,14.7785 10.62775,14.240875 C10.788625,13.897125 11.197,13.74725 11.542125,13.9095 C11.885875,14.070375 12.033,14.480125 11.872125,14.823875 C11.396375,15.841375 10.3665,16.5 9.25,16.5" id="Fill-4"></path>
            </g>
        </g>
    </g>
</svg>