<?xml version="1.0" encoding="UTF-8"?>
<svg width="698px" height="627px" viewBox="0 0 698 627" version="1.1" xmlns="http://www.w3.org/2000/svg" xmlns:xlink="http://www.w3.org/1999/xlink">
    <!-- Generator: Sketch 52.5 (67469) - http://www.bohemiancoding.com/sketch -->
    <title>纸烟花@2x</title>
    <desc>Created with Sketch.</desc>
    <g id="小程序（精简版）" stroke="none" stroke-width="1" fill="none" fill-rule="evenodd">
        <g id="安利" transform="translate(-83.000000, -16.000000)">
            <g id="纸烟花" transform="translate(83.000000, 15.000000)">
                <path d="M143.674233,582.320575 C143.677065,591.635817 142.179718,600.59982 139.41606,608.987004 L164.020546,608.994484 C166.786255,600.603198 168.302073,591.645355 168.29924,582.328061 C168.296406,573.010768 166.77514,564.052002 164.004326,555.659032 L139.39984,555.651552 C142.1686,564.040418 143.6714,573.005333 143.674233,582.320575" id="Fill-1" fill="#FFC86D" transform="translate(153.849542, 582.323018) rotate(-30.000000) translate(-153.849542, -582.323018) "></path>
                <path d="M525.953335,286.5 C525.953335,293.3115 524.914909,299.8665 523,306 L540.03246,306 C541.948789,299.8635 543,293.313 543,286.5 C543,279.687 541.948789,273.1365 540.03246,267 L523,267 C524.914909,273.1335 525.953335,279.6885 525.953335,286.5" id="Fill-1-Copy-4" fill="#FF7C4F" transform="translate(533.000000, 286.500000) scale(-1, 1) rotate(-360.000000) translate(-533.000000, -286.500000) "></path>
                <path d="M67.4160601,181.987004 L92.0205462,181.994484 C94.7862552,173.603198 96.302073,164.645355 96.2992395,155.328061 C96.296406,146.010768 94.7751396,137.052002 92.0043263,128.659032 L67.3998402,128.651552 C70.1686002,137.040418 71.6713997,146.005333 71.6742326,155.320575 C71.6770654,164.635817 70.1797183,173.59982 67.4160601,181.987004 Z" id="Fill-1-Copy-3" fill="#FF7C4F" transform="translate(81.849542, 155.323018) scale(-1, 1) rotate(-30.000000) translate(-81.849542, -155.323018) "></path>
                <path d="M593.680934,589.499125 C593.679298,598.81317 592.177458,607.77674 589.409421,616.164173 L614.017068,616.159854 C616.787159,607.768319 618.307469,598.810899 618.309105,589.494803 C618.31074,580.178707 616.793576,571.221821 614.026433,562.831257 L589.418785,562.835575 C592.183877,571.222037 593.682569,580.185081 593.680934,589.499125" id="Fill-1-Copy-7" fill="#FF7C4F" transform="translate(603.859263, 589.497715) rotate(-345.000000) translate(-603.859263, -589.497715) "></path>
                <path d="M657.41606,312.987004 L682.020546,312.994484 C684.786255,304.603198 686.302073,295.645355 686.29924,286.328061 C686.296406,277.010768 684.77514,268.052002 682.004326,259.659032 L657.39984,259.651552 C660.1686,268.040418 661.6714,277.005333 661.674233,286.320575 C661.677065,295.635817 660.179718,304.59982 657.41606,312.987004 Z" id="Fill-1-Copy" fill="#FFC86D" transform="translate(671.849542, 286.323018) scale(-1, 1) rotate(-30.000000) translate(-671.849542, -286.323018) "></path>
                <path d="M638.302069,346.5 C638.302069,349.9393 639.284138,353.171673 641,356 L627.701241,356 C625.984276,353.171673 625,349.9393 625,346.5 C625,343.0607 625.984276,339.829307 627.701241,337 L641,337 C639.284138,339.828327 638.302069,343.0607 638.302069,346.5" id="Fill-1" fill="#F6F1FF"></path>
                <path d="M4.43000213,72.5 C4.43000213,81.7566538 2.87236309,90.6647308 0,99 L25.5486895,99 C28.4231835,90.6606538 30,81.7586923 30,72.5 C30,63.2413077 28.4231835,54.3393462 25.5486895,46 L0,46 C2.87236309,54.3352692 4.43000213,63.2433462 4.43000213,72.5" id="Fill-1-Copy-5" fill="#FFC86D" transform="translate(15.000000, 72.500000) scale(-1, 1) translate(-15.000000, -72.500000) "></path>
                <path d="M19.4344211,418.496401 C19.435906,425.689753 17.6128011,432.449937 14.4206333,438.364769 L39.1550314,438.369872 C42.3471992,432.45504 44.176461,425.694857 44.1749761,418.501506 C44.1734912,411.308154 42.3414387,404.549267 39.1468282,398.631067 L14.4124301,398.625964 C17.6070402,404.542113 19.4329362,411.30305 19.4344211,418.496401" id="Fill-1" fill="#9C6DFE" transform="translate(29.293704, 418.497918) rotate(-18.000000) translate(-29.293704, -418.497918) "></path>
                <path d="M407.434421,209.496401 C407.435906,216.689753 405.612801,223.449937 402.420633,229.364769 L427.155031,229.369872 C430.347199,223.45504 432.176461,216.694857 432.174976,209.501506 C432.173491,202.308154 430.341439,195.549267 427.146828,189.631067 L402.41243,189.625964 C405.60704,195.542113 407.432936,202.30305 407.434421,209.496401" id="Fill-1-Copy-11" fill="#9C6DFE" transform="translate(417.293704, 209.497918) rotate(-18.000000) translate(-417.293704, -209.497918) "></path>
                <path d="M650.129474,71.3034859 C650.130061,74.153016 649.409546,76.8309539 648.14796,79.174019 L657.923316,79.1760405 C659.184903,76.8329754 659.907851,74.155038 659.907264,71.3055079 C659.906677,68.4559778 659.182626,65.7785537 657.920074,63.4341541 L648.144718,63.4321326 C649.407269,65.7757197 650.128887,68.4539558 650.129474,71.3034859" id="Fill-1-Copy-9" fill="#9C6DFE" transform="translate(654.025991, 71.304087) scale(-1, 1) rotate(-18.000000) translate(-654.025991, -71.304087) "></path>
                <path d="M624.632015,14.9726514 C624.633724,19.9898577 623.827847,24.8178564 622.340277,29.335155 L635.585396,29.3396675 C637.07407,24.8201596 637.88989,19.9954789 637.888181,14.9771677 C637.886471,9.95885654 637.067364,5.1336188 635.575611,0.613095463 L622.330492,0.608582909 C623.82114,5.12689613 624.630306,9.95544509 624.632015,14.9726514" id="Fill-1-Copy-2" fill="#FFC86D" transform="translate(630.109338, 14.974125) scale(-1, 1) rotate(-52.000000) translate(-630.109338, -14.974125) "></path>
                <path d="M373.038895,559.744953 C373.038711,564.759981 372.230662,569.586189 370.74074,574.102088 L383.99161,574.101602 C385.482637,569.583494 386.300632,564.760599 386.300816,559.744466 C386.301,554.728333 385.483359,549.905498 383.992664,545.3875 L370.741795,545.387986 C372.231385,549.903776 373.039079,554.729924 373.038895,559.744953" id="Fill-1-Copy-6" fill="#FFC86D" transform="translate(378.520778, 559.744794) rotate(3.000000) translate(-378.520778, -559.744794) "></path>
                <path d="M274.038895,612.744953 C274.038711,617.759981 273.230662,622.586189 271.74074,627.102088 L284.99161,627.101602 C286.482637,622.583494 287.300632,617.760599 287.300816,612.744466 C287.301,607.728333 286.483359,602.905498 284.992664,598.3875 L271.741795,598.387986 C273.231385,602.903776 274.039079,607.729924 274.038895,612.744953" id="Fill-1-Copy-8" fill="#FF7C4F" transform="translate(279.520778, 612.744794) scale(-1, 1) rotate(3.000000) translate(-279.520778, -612.744794) "></path>
                <path d="M171.5663,46.0149148 C171.56542,51.0301696 172.425475,55.8564143 174.012229,60.3721843 L159.89154,60.3746624 C158.303608,55.8566837 157.432953,51.0337542 157.433834,46.0173949 C157.434715,41.0010357 158.307064,36.1778003 159.896582,31.6592639 L174.017271,31.6567858 C172.428931,36.1731131 171.567181,40.99966 171.5663,46.0149148" id="Fill-1" fill="#9C6DFE" transform="translate(165.725552, 46.015724) rotate(-345.000000) translate(-165.725552, -46.015724) "></path>
                <path d="M118.06893,316.1902 C118.065897,325.505852 119.562986,334.470217 122.326342,342.857712 L97.7229391,342.86572 C94.9575321,334.474123 93.4419735,325.515918 93.4450071,316.198215 C93.4480407,306.880511 94.9694327,297.921318 97.7403044,289.527919 L122.343707,289.519911 C119.574889,297.909206 118.071963,306.874548 118.06893,316.1902" id="Fill-1" fill="#F6F1FF" transform="translate(107.894355, 316.192815) scale(-1, 1) rotate(34.000000) translate(-107.894355, -316.192815) "></path>
                <path d="M282.06893,125.1902 C282.065897,134.505852 283.562986,143.470217 286.326342,151.857712 L261.722939,151.86572 C258.957532,143.474123 257.441974,134.515918 257.445007,125.198215 C257.448041,115.880511 258.969433,106.921318 261.740304,98.5279189 L286.343707,98.5199108 C283.574889,106.909206 282.071963,115.874548 282.06893,125.1902" id="Fill-1-Copy-10" fill="#F6F1FF" transform="translate(271.894355, 125.192815) rotate(3.000000) translate(-271.894355, -125.192815) "></path>
                <path d="M500.134719,370.703036 C500.132489,377.897245 498.306109,384.659177 495.111267,390.576363 L519.842717,390.568697 C523.03756,384.651512 524.870095,377.889578 524.872326,370.695368 C524.874556,363.501159 523.046213,356.742411 519.85504,350.825154 L495.123589,350.832819 C498.314763,356.748025 500.13695,363.508827 500.134719,370.703036" id="Fill-1" fill="#F6F1FF" transform="translate(509.991797, 370.700758) rotate(31.000000) translate(-509.991797, -370.700758) "></path>
            </g>
        </g>
    </g>
</svg>