<?xml version="1.0" standalone="no"?><!DOCTYPE svg PUBLIC "-//W3C//DTD SVG 1.1//EN" "http://www.w3.org/Graphics/SVG/1.1/DTD/svg11.dtd"><svg t="1564458706905" class="icon" viewBox="0 0 1024 1024" version="1.1" xmlns="http://www.w3.org/2000/svg" p-id="2758" xmlns:xlink="http://www.w3.org/1999/xlink" width="30" height="30"><defs><style type="text/css"></style></defs><path d="M705.828571 614.4c-54.857143 0-98.742857 43.885714-98.742857 98.742857 0 12.8 1.828571 23.771429 7.314286 34.742857 0 1.828571 1.828571 3.657143 3.657143 3.657143v5.485714c3.657143 5.485714 5.485714 10.971429 10.971428 16.457143 1.828571 1.828571 3.657143 3.657143 5.485715 3.657143 0 1.828571 0 5.485714 1.828571 7.314286 18.285714 18.285714 42.057143 27.428571 69.485714 27.428571 54.857143 0 98.742857-43.885714 98.742858-98.742857 0-54.857143-43.885714-98.742857-98.742858-98.742857z m0 177.371429c-21.942857 0-40.228571-7.314286-56.685714-23.771429-1.828571-1.828571-3.657143-1.828571-5.485714-1.828571 0-1.828571 0-3.657143-1.828572-5.485715-3.657143-3.657143-5.485714-9.142857-9.142857-12.8 0-1.828571-1.828571-1.828571-1.828571-3.657143v-3.657142c-3.657143-9.142857-5.485714-18.285714-5.485714-29.257143 0-43.885714 36.571429-80.457143 80.457142-80.457143s80.457143 36.571429 80.457143 80.457143-36.571429 80.457143-80.457143 80.457143z" p-id="2759"></path><path d="M740.571429 720.457143c5.485714 0 9.142857-3.657143 9.142857-9.142857s-3.657143-9.142857-9.142857-9.142857h-14.628572l18.285714-32.914286c1.828571-3.657143 1.828571-9.142857-3.657142-12.8-3.657143-1.828571-9.142857-1.828571-12.8 3.657143l-21.942858 40.228571-21.942857-40.228571c-1.828571-3.657143-7.314286-5.485714-12.8-3.657143-3.657143 1.828571-5.485714 7.314286-3.657143 12.8l18.285715 32.914286h-14.628572c-5.485714 0-9.142857 3.657143-9.142857 9.142857s3.657143 9.142857 9.142857 9.142857h25.6v5.485714h-25.6c-5.485714 0-9.142857 3.657143-9.142857 9.142857s3.657143 9.142857 9.142857 9.142857h25.6v16.457143c0 5.485714 3.657143 9.142857 9.142857 9.142857s9.142857-3.657143 9.142858-9.142857v-16.457143h25.6c5.485714 0 9.142857-3.657143 9.142857-9.142857s-3.657143-9.142857-9.142857-9.142857h-25.6v-5.485714h25.6zM731.428571 405.942857c-3.657143-106.057143-65.828571-168.228571-162.742857-168.228571H345.6v548.571428h84.114286V586.971429h138.971428c95.085714 0 157.257143-67.657143 162.742857-181.028572z m-188.342857 96.914286h-113.371428v-181.028572h117.028571c60.342857 0 96.914286 31.085714 96.914286 87.771429-1.828571 60.342857-36.571429 93.257143-100.571429 93.257143z" p-id="2760"></path><path d="M512 58.514286C261.485714 58.514286 58.514286 261.485714 58.514286 512S261.485714 965.485714 512 965.485714 965.485714 762.514286 965.485714 512 762.514286 58.514286 512 58.514286z m0 852.114285C292.571429 910.628571 113.371429 731.428571 113.371429 512S292.571429 113.371429 512 113.371429 910.628571 292.571429 910.628571 512 731.428571 910.628571 512 910.628571z" p-id="2761"></path></svg>