<?xml version="1.0" encoding="UTF-8"?>
<svg width="22px" height="22px" viewBox="0 0 22 22" version="1.1" xmlns="http://www.w3.org/2000/svg" xmlns:xlink="http://www.w3.org/1999/xlink">
    <!-- Generator: Sketch 52.5 (67469) - http://www.bohemiancoding.com/sketch -->
    <title>分组@2x</title>
    <desc>Created with Sketch.</desc>
    <g id="小程序（精简版）" stroke="none" stroke-width="1" fill="none" fill-rule="evenodd">
        <g id="票券明细_解忧券" transform="translate(-30.000000, -234.000000)">
            <g id="分组-5-copy" transform="translate(30.000000, 223.000000)">
                <g id="分组" transform="translate(0.000000, 11.000000)">
                    <polygon id="Fill-1" fill="#FFFFFF" points="0 22 22 22 22 0 0 0"></polygon>
                    <g transform="translate(1.375000, 2.750000)" fill="#FFC86D">
                        <path d="M15.6072125,12.0311125 C15.3872125,12.7942375 14.7148375,13.3071125 13.9365875,13.3071125 L5.3125875,13.3071125 C4.5343375,13.3071125 3.8633375,12.7942375 3.6419625,12.0311125 C3.3325875,10.9654875 3.1758375,9.8599875 3.1758375,8.7476125 C3.1758375,7.6366125 3.3325875,6.5324875 3.6419625,5.4668625 C3.8633375,4.7037375 4.5343375,4.1894875 5.3125875,4.1894875 L5.7608375,4.1894875 L5.7608375,4.8302375 C5.7608375,5.4448625 6.2599625,5.9426125 6.8745875,5.9426125 C7.4905875,5.9426125 7.9883375,5.4448625 7.9883375,4.8302375 L7.9883375,4.1894875 L11.2622125,4.1894875 L11.2622125,4.8302375 C11.2622125,5.4448625 11.7599625,5.9426125 12.3745875,5.9426125 C12.9905875,5.9426125 13.4883375,5.4448625 13.4883375,4.8302375 L13.4883375,4.1894875 L13.9365875,4.1894875 C14.7148375,4.1894875 15.3858375,4.7037375 15.6072125,5.4668625 C15.9179625,6.5338625 16.0747125,7.6379875 16.0747125,8.7476125 C16.0747125,9.8586125 15.9179625,10.9641125 15.6072125,12.0311125 M17.7480875,4.8453625 C17.2544625,3.1486125 15.6883375,1.9633625 13.9365875,1.9633625 L13.4635875,1.9633625 C13.4030875,1.4051125 12.9479625,0.9664875 12.3745875,0.9664875 C11.8012125,0.9664875 11.3460875,1.4051125 11.2855875,1.9633625 L7.9649625,1.9633625 C7.9044625,1.4051125 7.4479625,0.9664875 6.8745875,0.9664875 C6.3012125,0.9664875 5.8460875,1.4051125 5.7842125,1.9633625 L5.3125875,1.9633625 C3.5622125,1.9633625 1.9960875,3.1486125 1.5024625,4.8453625 C1.1353375,6.1131125 0.9483375,7.4262375 0.9483375,8.7476125 C0.9483375,10.0703625 1.1353375,11.3834875 1.5024625,12.6512375 C1.9947125,14.3493625 3.5622125,15.5332375 5.3125875,15.5332375 L13.9365875,15.5332375 C15.6883375,15.5332375 17.2544625,14.3493625 17.7480875,12.6512375 C18.1152125,11.3821125 18.3008375,10.0689875 18.3008375,8.7476125 C18.3008375,7.4276125 18.1152125,6.1144875 17.7480875,4.8453625" id="Fill-2"></path>
                        <path d="M11.7695875,7.0467375 L8.4888375,8.9222375 L7.7160875,8.1508625 C7.2802125,7.7149875 6.5762125,7.7122375 6.1403375,8.1494875 C5.7058375,8.5839875 5.7058375,9.2893625 6.1403375,9.7238625 L7.5153375,11.0988625 C7.7298375,11.3147375 8.0144625,11.4261125 8.3032125,11.4261125 C8.4915875,11.4261125 8.6827125,11.3779875 8.8559625,11.2789875 L12.8764625,8.9799875 C13.4085875,8.6761125 13.5942125,7.9941125 13.2889625,7.4606125 C12.9850875,6.9271125 12.3072125,6.7414875 11.7695875,7.0467375" id="Fill-4"></path>
                    </g>
                </g>
            </g>
        </g>
    </g>
</svg>