<?xml version="1.0" encoding="UTF-8"?>
<svg width="22px" height="22px" viewBox="0 0 22 22" version="1.1" xmlns="http://www.w3.org/2000/svg" xmlns:xlink="http://www.w3.org/1999/xlink">
    <!-- Generator: Sketch 52.5 (67469) - http://www.bohemiancoding.com/sketch -->
    <title>分组@2x</title>
    <desc>Created with Sketch.</desc>
    <g id="小程序（精简版）" stroke="none" stroke-width="1" fill="none" fill-rule="evenodd">
        <g id="票券明细_解忧券" transform="translate(-30.000000, -158.000000)">
            <g id="分组-5" transform="translate(30.000000, 147.000000)">
                <g id="分组" transform="translate(0.000000, 11.000000)">
                    <polygon id="Fill-1" fill="#FFFFFF" points="0 22 22 22 22 0 0 0"></polygon>
                    <g transform="translate(2.108333, 2.750000)" fill="#FFC86D">
                        <path d="M11.6413917,6.4339 L6.14139167,6.4339 C5.52676667,6.4339 5.02764167,5.93615 5.02764167,5.32015 C5.02764167,4.705525 5.52676667,4.207775 6.14139167,4.207775 L11.6413917,4.207775 C12.2560167,4.207775 12.7551417,4.705525 12.7551417,5.32015 C12.7551417,5.93615 12.2560167,6.4339 11.6413917,6.4339" id="Fill-2"></path>
                        <path d="M11.6413917,10.5589 L6.14139167,10.5589 C5.52676667,10.5589 5.02764167,10.06115 5.02764167,9.44515 C5.02764167,8.830525 5.52676667,8.332775 6.14139167,8.332775 L11.6413917,8.332775 C12.2560167,8.332775 12.7551417,8.830525 12.7551417,9.44515 C12.7551417,10.06115 12.2560167,10.5589 11.6413917,10.5589" id="Fill-4"></path>
                        <path d="M4.57980417,2.824525 C3.81392917,2.824525 3.12642917,3.349775 2.90917917,4.1019 C2.59980417,5.1689 2.44305417,6.273025 2.44305417,7.38265 C2.44305417,8.49365 2.59980417,9.59915 2.90917917,10.66615 C3.12917917,11.429275 3.80155417,11.94215 4.57980417,11.94215 L7.25005417,11.94215 C7.53880417,11.94215 7.81517917,12.053525 8.02280417,12.251525 L8.99492917,13.1879 L9.78830417,12.3079 C10.0000542,12.075525 10.2998042,11.94215 10.6160542,11.94215 L13.2038042,11.94215 C13.9820542,11.94215 14.6544292,11.429275 14.8744292,10.66615 C15.1838042,9.600525 15.3405542,8.495025 15.3405542,7.38265 C15.3405542,6.27165 15.1838042,5.167525 14.8744292,4.1019 C14.6571792,3.349775 13.9696792,2.824525 13.2038042,2.824525 L4.57980417,2.824525 Z M9.05130417,15.90215 C8.76392917,15.90215 8.48755417,15.79215 8.27992917,15.5914 L6.80180417,14.168275 L4.57980417,14.168275 C2.82805417,14.168275 1.26055417,12.9844 0.769679167,11.286275 C0.401179167,10.01715 0.215554167,8.704025 0.215554167,7.38265 C0.215554167,6.06265 0.401179167,4.749525 0.769679167,3.481775 C1.26055417,1.78365 2.82805417,0.5984 4.57980417,0.5984 L13.2038042,0.5984 C14.9555542,0.5984 16.5230542,1.78365 17.0139292,3.481775 C17.3810542,4.74815 17.5680542,6.061275 17.5680542,7.38265 C17.5680542,8.7054 17.3810542,10.018525 17.0139292,11.286275 C16.5230542,12.9844 14.9555542,14.168275 13.2038042,14.168275 L11.1110542,14.168275 L9.87905417,15.535025 C9.67692917,15.757775 9.39230417,15.89115 9.09117917,15.90215 L9.05130417,15.90215 Z" id="Fill-6"></path>
                    </g>
                </g>
            </g>
        </g>
    </g>
</svg>