<?xml version="1.0" encoding="UTF-8"?>
<svg width="22px" height="22px" viewBox="0 0 22 22" version="1.1" xmlns="http://www.w3.org/2000/svg" xmlns:xlink="http://www.w3.org/1999/xlink">
    <!-- Generator: Sketch 52.5 (67469) - http://www.bohemiancoding.com/sketch -->
    <title>分组@2x</title>
    <desc>Created with Sketch.</desc>
    <g id="小程序（精简版）" stroke="none" stroke-width="1" fill="none" fill-rule="evenodd">
        <g id="我的" transform="translate(-40.000000, -487.000000)">
            <g id="分组-6" transform="translate(20.000000, 471.000000)">
                <g id="分组-3">
                    <g id="分组-8-copy-2">
                        <g id="分组" transform="translate(20.000000, 16.000000)">
                            <polygon id="Fill-1" fill="#FFFFFF" points="0 22 22 22 22 0 0 0"></polygon>
                            <g transform="translate(1.375000, 2.375000)" fill="#FFC86D">
                                <path d="M12.2219625,1.61305 C10.3258375,1.61305 8.7844625,3.1558 8.7844625,5.05055 C8.7844625,6.946675 10.3258375,8.48805 12.2219625,8.48805 C14.1180875,8.48805 15.6594625,6.946675 15.6594625,5.05055 C15.6594625,3.1558 14.1180875,1.61305 12.2219625,1.61305 M12.2219625,9.86305 C9.5682125,9.86305 7.4094625,7.7043 7.4094625,5.05055 C7.4094625,2.3968 9.5682125,0.23805 12.2219625,0.23805 C14.8757125,0.23805 17.0344625,2.3968 17.0344625,5.05055 C17.0344625,7.7043 14.8757125,9.86305 12.2219625,9.86305" id="Fill-2"></path>
                                <path d="M9.13605,12.88695 C8.183175,12.88695 7.40905,13.661075 7.40905,14.612575 L7.40905,15.70845 L17.03405,15.63695 L17.03405,14.612575 C17.03405,13.661075 16.2613,12.88695 15.30705,12.88695 L9.13605,12.88695 Z M17.106925,17.01195 L7.33755,17.01195 C6.6198,17.01195 6.03405,16.4262 6.03405,15.70845 L6.03405,14.612575 C6.03405,12.90345 7.42555,11.51195 9.13605,11.51195 L15.30705,11.51195 C17.018925,11.51195 18.40905,12.90345 18.40905,14.612575 L18.40905,15.70845 C18.40905,16.4262 17.8233,17.01195 17.106925,17.01195 Z" id="Fill-4"></path>
                                <path d="M6.1633,9.1553375 C3.9743,9.1553375 2.196425,7.3760875 2.196425,5.1884625 C2.196425,3.0008375 3.9743,1.2215875 6.1633,1.2215875 C6.541425,1.2215875 6.8508,1.5295875 6.8508,1.9090875 C6.8508,2.2899625 6.541425,2.5965875 6.1633,2.5965875 C4.734675,2.5965875 3.571425,3.7598375 3.571425,5.1884625 C3.571425,6.6170875 4.734675,7.7803375 6.1633,7.7803375 C6.541425,7.7803375 6.8508,8.0883375 6.8508,8.4678375 C6.8508,8.8473375 6.541425,9.1553375 6.1633,9.1553375" id="Fill-6"></path>
                                <path d="M4.366725,16.00215 L2.14335,16.00215 C1.4256,16.00215 0.841225,15.417775 0.841225,14.700025 L0.841225,14.25315 C0.841225,12.54265 2.23135,11.152525 3.94185,11.152525 L5.290725,11.152525 C5.66885,11.152525 5.978225,11.45915 5.978225,11.840025 C5.978225,12.219525 5.66885,12.527525 5.290725,12.527525 L3.94185,12.527525 C2.988975,12.527525 2.216225,13.30165 2.216225,14.25315 L2.216225,14.700025 L4.366725,14.62715 C4.7476,14.62715 5.054225,14.93515 5.054225,15.31465 C5.054225,15.69415 4.7476,16.00215 4.366725,16.00215" id="Fill-8"></path>
                            </g>
                        </g>
                    </g>
                </g>
            </g>
        </g>
    </g>
</svg>