<?xml version="1.0" encoding="UTF-8"?>
<svg width="375px" height="414px" viewBox="0 0 375 414" version="1.1" xmlns="http://www.w3.org/2000/svg" xmlns:xlink="http://www.w3.org/1999/xlink">
    <!-- Generator: Sketch 51 (57462) - http://www.bohemiancoding.com/sketch -->
    <title>Group 5</title>
    <desc>Created with Sketch.</desc>
    <defs>
        <path d="M0,264 L162,264 L162,400 C162,404.418278 158.418278,408 154,408 L8,408 C3.581722,408 5.41083001e-16,404.418278 0,400 L0,264 Z" id="path-1"></path>
    </defs>
    <g id="Page-1" stroke="none" stroke-width="1" fill="none" fill-rule="evenodd">
        <g id="危机关怀" transform="translate(0.000000, -64.000000)">
            <g id="Group-5" transform="translate(-71.000000, 64.000000)">
                <g id="Group" transform="translate(182.000000, 0.000000)">
                    <path d="M0,270 L162,270 L162,406 C162,410.418278 158.418278,414 154,414 L8,414 C3.581722,414 5.41083001e-16,410.418278 0,406 L0,270 Z" id="Rectangle-3" fill="#EADEDC"></path>
                    <mask id="mask-2" fill="white">
                        <use xlink:href="#path-1"></use>
                    </mask>
                    <use id="Rectangle-3" fill="#FFF1EE" xlink:href="#path-1"></use>
                    <g id="Group-4" opacity="0.73515625" mask="url(#mask-2)">
                        <g transform="translate(134.797639, 381.796130) rotate(-33.000000) translate(-134.797639, -381.796130) translate(98.297639, 345.296130)">
                            <circle id="Oval-3" stroke="#FFB26F" stroke-width="7" fill="none" cx="36.5" cy="36.5" r="36.5"></circle>
                            <g id="Group-3" stroke="none" stroke-width="1" fill="none" fill-rule="evenodd" transform="translate(16.000000, 22.000000)">
                                <circle id="Oval-4" fill="#FFB26F" cx="6" cy="6" r="6"></circle>
                                <circle id="Oval-4-Copy" fill="#FFB26F" cx="34" cy="6" r="6"></circle>
                            </g>
                            <path d="M45.1707057,48 C45.5825421,46.8348076 46.6937812,46 48,46 C49.6568542,46 51,47.3431458 51,49 C51,50.5209495 49.8681623,51.7775442 48.4008139,51.9734572 C45.7151128,54.4003143 41.1199589,56 35.9023488,56 C30.6543447,56 26.0360697,54.3816227 23.3571434,51.9309617 C22.009208,51.6366746 21,50.4361939 21,49 C21,48.772706 21.0252773,48.5513159 21.0731741,48.3384873 C21.0453124,48.2263208 21.0208988,48.1134783 21,48 L21.1707057,48 C21.5825421,46.8348076 22.6937812,46 24,46 C25.6146947,46 26.9314427,47.2756612 26.997408,48.8741475 C28.226732,51.2700384 31.7490023,53 35.9023488,53 C40.5457539,53 44.4003739,50.8377133 45.1439414,48 L45.1707057,48 Z" id="Combined-Shape" stroke="none" fill="#FFB26F" fill-rule="evenodd"></path>
                        </g>
                    </g>
                    <path d="M0,260 L162,260 L162,260 C162,262.209139 160.209139,264 158,264 L4,264 C1.790861,264 2.705415e-16,262.209139 0,260 Z" id="Rectangle-3" fill="#D0CC8D" transform="translate(81.000000, 262.000000) scale(1, -1) translate(-81.000000, -262.000000) "></path>
                    <circle id="Oval" stroke="#FFF1EE" stroke-width="7" fill="#FF7E6E" cx="80.5" cy="264.5" r="10.5"></circle>
                    <rect id="Rectangle-5" fill="#FFF1EE" x="79" y="0" width="3" height="254" rx="1.5"></rect>
                </g>
                <text id="如果你或身边的人需要更-及时专业的帮助，" font-family="PingFangSC-Regular, PingFang SC" font-size="13" font-weight="normal" line-spacing="31" fill="#FF5D6A">
                    <tspan x="192" y="308">如果你或身边的人需要更</tspan>
                    <tspan x="192" y="339">及时专业的帮助，请尽快</tspan>
                    <tspan x="192" y="370">联系心理救援机构。</tspan>
                </text>
                <g id="Group-Copy" transform="translate(0.000000, 1.000000)">
                    <path d="M0,169 L162,169 L162,316 C162,320.418278 158.418278,324 154,324 L8,324 C3.581722,324 5.41083001e-16,320.418278 0,316 L0,169 Z" id="Rectangle-3" fill="#EADEDC"></path>
                    <path d="M0,163 L162,163 L162,310 C162,314.418278 158.418278,318 154,318 L8,318 C3.581722,318 5.41083001e-16,314.418278 0,310 L0,163 Z" id="Rectangle-3" fill="#FFF1EE"></path>
                    <path d="M0,159 L162,159 L162,159 C162,161.209139 160.209139,163 158,163 L4,163 C1.790861,163 2.705415e-16,161.209139 0,159 Z" id="Rectangle-3" fill="#FECA6D" transform="translate(81.000000, 161.000000) scale(1, -1) translate(-81.000000, -161.000000) "></path>
                    <circle id="Oval" stroke="#FFF1EE" stroke-width="7" fill="#FF7E6E" cx="80.5" cy="163.5" r="10.5"></circle>
                    <rect id="Rectangle-5" fill="#FFF1EE" x="79" y="0" width="2" height="153" rx="1"></rect>
                </g>
                <g id="Group-Copy-2" transform="translate(364.000000, 0.000000)">
                    <path d="M0,146 L162,146 L162,293 C162,297.418278 158.418278,301 154,301 L8,301 C3.581722,301 5.41083001e-16,297.418278 0,293 L0,146 Z" id="Rectangle-3" fill="#EADEDC"></path>
                    <path d="M0,140 L162,140 L162,287 C162,291.418278 158.418278,295 154,295 L8,295 C3.581722,295 5.41083001e-16,291.418278 0,287 L0,140 Z" id="Rectangle-3" fill="#FFF1EE"></path>
                    <path d="M0,136 L162,136 L162,136 C162,138.209139 160.209139,140 158,140 L4,140 C1.790861,140 2.705415e-16,138.209139 0,136 Z" id="Rectangle-3" fill="#A0BED9" transform="translate(81.000000, 138.000000) scale(1, -1) translate(-81.000000, -138.000000) "></path>
                    <circle id="Oval" stroke="#FFF1EE" stroke-width="7" fill="#FF7E6E" cx="80.5" cy="140.5" r="10.5"></circle>
                    <rect id="Rectangle-5" fill="#FFF1EE" x="79" y="0" width="3" height="130"></rect>
                </g>
                <path d="M403,170 L438,170 C440.209139,170 442,171.790861 442,174 C442,176.209139 440.209139,178 438,178 L403,178 C400.790861,178 399,176.209139 399,174 C399,171.790861 400.790861,170 403,170 Z M461,170 L485,170 C487.209139,170 489,171.790861 489,174 C489,176.209139 487.209139,178 485,178 L461,178 C458.790861,178 457,176.209139 457,174 C457,171.790861 458.790861,170 461,170 Z M381,193 L416,193 C418.209139,193 420,194.790861 420,197 C420,199.209139 418.209139,201 416,201 L381,201 C378.790861,201 377,199.209139 377,197 C377,194.790861 378.790861,193 381,193 Z M432,193 L456,193 C458.209139,193 460,194.790861 460,197 C460,199.209139 458.209139,201 456,201 L432,201 C429.790861,201 428,199.209139 428,197 C428,194.790861 429.790861,193 432,193 Z M477,193 L485,193 C487.209139,193 489,194.790861 489,197 C489,199.209139 487.209139,201 485,201 L477,201 C474.790861,201 473,199.209139 473,197 C473,194.790861 474.790861,193 477,193 Z M378,216 L413,216 C415.209139,216 417,217.790861 417,220 C417,222.209139 415.209139,224 413,224 L378,224 C375.790861,224 374,222.209139 374,220 C374,217.790861 375.790861,216 378,216 Z M425,216 L452,216 C454.209139,216 456,217.790861 456,220 C456,222.209139 454.209139,224 452,224 L425,224 C422.790861,224 421,222.209139 421,220 C421,217.790861 422.790861,216 425,216 Z M468,216 L485,216 C487.209139,216 489,217.790861 489,220 C489,222.209139 487.209139,224 485,224 L468,224 C465.790861,224 464,222.209139 464,220 C464,217.790861 465.790861,216 468,216 Z M413,239 L457,239 C459.209139,239 461,240.790861 461,243 C461,245.209139 459.209139,247 457,247 L413,247 C410.790861,247 409,245.209139 409,243 C409,240.790861 410.790861,239 413,239 Z M473,239 L485,239 C487.209139,239 489,240.790861 489,243 C489,245.209139 487.209139,247 485,247 L473,247 C470.790861,247 469,245.209139 469,243 C469,240.790861 470.790861,239 473,239 Z M481,262 L486,262 C488.209139,262 490,263.790861 490,266 C490,268.209139 488.209139,270 486,270 L481,270 C478.790861,270 477,268.209139 477,266 C477,263.790861 478.790861,262 481,262 Z M437,262 L465,262 C467.209139,262 469,263.790861 469,266 C469,268.209139 467.209139,270 465,270 L437,270 C434.790861,270 433,268.209139 433,266 C433,263.790861 434.790861,262 437,262 Z M391,262 L419,262 C421.209139,262 423,263.790861 423,266 C423,268.209139 421.209139,270 419,270 L391,270 C388.790861,270 387,268.209139 387,266 C387,263.790861 388.790861,262 391,262 Z" id="Combined-Shape-Copy" fill="#F5E3E0"></path>
                <path d="M58,195 L93,195 C95.209139,195 97,196.790861 97,199 C97,201.209139 95.209139,203 93,203 L58,203 C55.790861,203 54,201.209139 54,199 C54,196.790861 55.790861,195 58,195 Z M116,195 L140,195 C142.209139,195 144,196.790861 144,199 C144,201.209139 142.209139,203 140,203 L116,203 C113.790861,203 112,201.209139 112,199 C112,196.790861 113.790861,195 116,195 Z M36,218 L71,218 C73.209139,218 75,219.790861 75,222 C75,224.209139 73.209139,226 71,226 L36,226 C33.790861,226 32,224.209139 32,222 C32,219.790861 33.790861,218 36,218 Z M87,218 L111,218 C113.209139,218 115,219.790861 115,222 C115,224.209139 113.209139,226 111,226 L87,226 C84.790861,226 83,224.209139 83,222 C83,219.790861 84.790861,218 87,218 Z M132,218 L140,218 C142.209139,218 144,219.790861 144,222 C144,224.209139 142.209139,226 140,226 L132,226 C129.790861,226 128,224.209139 128,222 C128,219.790861 129.790861,218 132,218 Z M33,241 L68,241 C70.209139,241 72,242.790861 72,245 C72,247.209139 70.209139,249 68,249 L33,249 C30.790861,249 29,247.209139 29,245 C29,242.790861 30.790861,241 33,241 Z M80,241 L107,241 C109.209139,241 111,242.790861 111,245 C111,247.209139 109.209139,249 107,249 L80,249 C77.790861,249 76,247.209139 76,245 C76,242.790861 77.790861,241 80,241 Z M123,241 L140,241 C142.209139,241 144,242.790861 144,245 C144,247.209139 142.209139,249 140,249 L123,249 C120.790861,249 119,247.209139 119,245 C119,242.790861 120.790861,241 123,241 Z M68,264 L112,264 C114.209139,264 116,265.790861 116,268 C116,270.209139 114.209139,272 112,272 L68,272 C65.790861,272 64,270.209139 64,268 C64,265.790861 65.790861,264 68,264 Z M128,264 L140,264 C142.209139,264 144,265.790861 144,268 C144,270.209139 142.209139,272 140,272 L128,272 C125.790861,272 124,270.209139 124,268 C124,265.790861 125.790861,264 128,264 Z M136,287 L141,287 C143.209139,287 145,288.790861 145,291 C145,293.209139 143.209139,295 141,295 L136,295 C133.790861,295 132,293.209139 132,291 C132,288.790861 133.790861,287 136,287 Z M92,287 L120,287 C122.209139,287 124,288.790861 124,291 C124,293.209139 122.209139,295 120,295 L92,295 C89.790861,295 88,293.209139 88,291 C88,288.790861 89.790861,287 92,287 Z M46,287 L74,287 C76.209139,287 78,288.790861 78,291 C78,293.209139 76.209139,295 74,295 L46,295 C43.790861,295 42,293.209139 42,291 C42,288.790861 43.790861,287 46,287 Z" id="Combined-Shape" fill="#F5E3E0"></path>
            </g>
        </g>
    </g>
</svg>