<?xml version="1.0" encoding="UTF-8"?>
<svg width="22px" height="22px" viewBox="0 0 22 22" version="1.1" xmlns="http://www.w3.org/2000/svg" xmlns:xlink="http://www.w3.org/1999/xlink">
    <!-- Generator: Sketch 52.5 (67469) - http://www.bohemiancoding.com/sketch -->
    <title>分组@2x</title>
    <desc>Created with Sketch.</desc>
    <g id="小程序（精简版）" stroke="none" stroke-width="1" fill="none" fill-rule="evenodd">
        <g id="我的" transform="translate(-50.000000, -475.000000)">
            <g id="分组-6" transform="translate(30.000000, 459.000000)">
                <g id="分组-3">
                    <g id="分组-8-copy-2">
                        <g id="分组" transform="translate(20.000000, 16.000000)">
                            <polygon id="Fill-1" fill="#FFFFFF" points="0 22 22 22 22 0 0 0"></polygon>
                            <g transform="translate(1.375000, 2.108333)" fill="#FFC86D">
                                <path d="M12.554025,2.64930417 C10.884775,2.64930417 9.52765,4.00642917 9.52765,5.67567917 C9.52765,7.34492917 10.884775,8.70342917 12.554025,8.70342917 C14.223275,8.70342917 15.5804,7.34492917 15.5804,5.67567917 C15.5804,4.00642917 14.223275,2.64930417 12.554025,2.64930417 M12.554025,10.9295542 C9.6569,10.9295542 7.30015,8.57417917 7.30015,5.67567917 C7.30015,2.77992917 9.6569,0.423179167 12.554025,0.423179167 C15.45115,0.423179167 17.8079,2.77992917 17.8079,5.67567917 C17.8079,8.57417917 15.45115,10.9295542 12.554025,10.9295542" id="Fill-2"></path>
                                <path d="M17.4147875,17.3607042 C17.1301625,17.3607042 16.8455375,17.2520792 16.6282875,17.0362042 L14.0102875,14.4182042 C13.2320375,13.6399542 11.8762875,13.6399542 11.0966625,14.4182042 L8.4800375,17.0362042 C8.0455375,17.4679542 7.3401625,17.4679542 6.9042875,17.0362042 C6.4697875,16.6003292 6.4697875,15.8949542 6.9042875,15.4604542 L9.5222875,12.8438292 C11.1942875,11.1690792 13.9140375,11.1704542 15.5860375,12.8438292 L18.2026625,15.4604542 C18.6385375,15.8949542 18.6385375,16.6003292 18.2026625,17.0362042 C17.9854125,17.2520792 17.7007875,17.3607042 17.4147875,17.3607042" id="Fill-4"></path>
                                <path d="M1.8346625,16.4302417 C1.5500375,16.4302417 1.2654125,16.3216167 1.0481625,16.1043667 C0.6122875,15.6684917 0.6122875,14.9644917 1.0481625,14.5286167 L2.9704125,12.6063667 C3.9150375,11.6644917 5.3367875,11.3564917 6.5949125,11.8143667 C7.1724125,12.0261167 7.4694125,12.6668667 7.2562875,13.2443667 C7.0445375,13.8204917 6.4024125,14.1119917 5.8276625,13.9057417 C5.3807875,13.7421167 4.8789125,13.8507417 4.5461625,14.1821167 L2.6225375,16.1057417 C2.4052875,16.3216167 2.1192875,16.4302417 1.8346625,16.4302417" id="Fill-6"></path>
                                <path d="M4.9713125,10.0748542 C4.9176875,10.0748542 4.8640625,10.0707292 4.8104375,10.0624792 C2.7878125,9.76685417 1.2629375,8.00960417 1.2629375,5.97322917 C1.2629375,4.03035417 2.5870625,2.37072917 4.4845625,1.93760417 C5.0840625,1.80010417 5.6808125,2.17685417 5.8169375,2.77497917 C5.9544375,3.37585417 5.5776875,3.97397917 4.9795625,4.11010417 C4.1023125,4.31085417 3.4904375,5.07535417 3.4904375,5.97322917 C3.4904375,6.92610417 4.1806875,7.71947917 5.1308125,7.85835417 C5.7399375,7.94635417 6.1606875,8.51147917 6.0726875,9.12197917 C5.9915625,9.67472917 5.5158125,10.0748542 4.9713125,10.0748542" id="Fill-8"></path>
                            </g>
                        </g>
                    </g>
                </g>
            </g>
        </g>
    </g>
</svg>