<?xml version="1.0" encoding="UTF-8"?>
<svg width="16px" height="14px" viewBox="0 0 16 14" version="1.1" xmlns="http://www.w3.org/2000/svg" xmlns:xlink="http://www.w3.org/1999/xlink">
    <!-- Generator: Sketch 52.5 (67469) - http://www.bohemiancoding.com/sketch -->
    <title>分组@2x</title>
    <desc>Created with Sketch.</desc>
    <g id="小程序（精简版）" stroke="none" stroke-width="1" fill="none" fill-rule="evenodd">
        <g id="已解答" transform="translate(-180.000000, -392.000000)" fill="#FFFFFF">
            <g id="分组-3" transform="translate(0.000000, 140.000000)">
                <g id="分组-5" transform="translate(30.000000, 120.000000)">
                    <g id="分组-7" transform="translate(127.000000, 123.000000)">
                        <g id="分组" transform="translate(31.000000, 16.000000) scale(-1, 1) translate(-31.000000, -16.000000) translate(20.000000, 5.000000)">
                            <path d="M17.097575,9.8874875 L7.5317,9.8874875 L11.02695,6.2368625 C11.4532,5.7913625 11.4367,5.0873625 10.992575,4.6611125 C10.5512,4.2376125 9.845825,4.2513625 9.4182,4.6954875 L4.09695,10.2532375 C3.68445,10.6849875 3.685825,11.3669875 4.101075,11.7973625 L9.42095,17.3069875 C9.639575,17.5352375 9.931075,17.6479875 10.222575,17.6479875 C10.5017,17.6479875 10.77945,17.5434875 10.9967,17.3358625 C11.438075,16.9082375 11.451825,16.2028625 11.0242,15.7601125 L7.50145,12.1136125 L17.097575,12.1136125 C17.7122,12.1136125 18.211325,11.6158625 18.211325,11.0012375 C18.211325,10.3852375 17.7122,9.8874875 17.097575,9.8874875" id="Fill-2"></path>
                        </g>
                    </g>
                </g>
            </g>
        </g>
    </g>
</svg>