<?xml version="1.0" encoding="UTF-8"?>
<svg width="22px" height="22px" viewBox="0 0 22 22" version="1.1" xmlns="http://www.w3.org/2000/svg" xmlns:xlink="http://www.w3.org/1999/xlink">
    <!-- Generator: Sketch 52.5 (67469) - http://www.bohemiancoding.com/sketch -->
    <title>分组@2x</title>
    <desc>Created with Sketch.</desc>
    <g id="小程序（精简版）" stroke="none" stroke-width="1" fill="none" fill-rule="evenodd">
        <g id="信件_收到的解答_已感谢" transform="translate(-303.000000, -673.000000)">
            <g id="分组-7" transform="translate(30.000000, 457.000000)">
                <g id="分组-8">
                    <g id="分组-3" transform="translate(235.000000, 216.000000)">
                        <g id="分组" transform="translate(38.000000, 0.000000)">
                            <polygon id="Fill-1" fill="#FFFFFF" points="0 22 22 22 22 0 0 0"></polygon>
                            <path d="M10.9993125,18.7556875 C10.7146875,18.7556875 10.4286875,18.6470625 10.2114375,18.4298125 L4.1916875,12.4100625 C2.0975625,10.3145625 2.0975625,6.9073125 4.1916875,4.8118125 C6.0383125,2.9651875 8.9134375,2.7479375 10.9993125,4.1628125 C13.0879375,2.7479375 15.9603125,2.9651875 17.8083125,4.8118125 C19.9024375,6.9073125 19.9024375,10.3145625 17.8083125,12.4100625 L11.7885625,18.4298125 C11.5699375,18.6470625 11.2839375,18.7556875 10.9993125,18.7556875" id="Fill-2" fill="#FFC86D"></path>
                        </g>
                    </g>
                </g>
            </g>
        </g>
    </g>
</svg>