<?xml version="1.0" encoding="UTF-8"?>
<svg width="30px" height="30px" viewBox="0 0 30 30" version="1.1" xmlns="http://www.w3.org/2000/svg" xmlns:xlink="http://www.w3.org/1999/xlink">
    <!-- Generator: Sketch 52.2 (67145) - http://www.bohemiancoding.com/sketch -->
    <title>分组</title>
    <desc>Created with Sketch.</desc>
    <g id="小程序（精简版）" stroke="none" stroke-width="1" fill="none" fill-rule="evenodd">
        <g id="我的_拉到底" transform="translate(-40.000000, -669.000000)">
            <g id="分组-3" transform="translate(0.000000, 653.000000)">
                <g id="分组-9" transform="translate(40.000000, 16.000000)">
                    <g id="分组-8">
                        <g id="分组">
                            <polygon id="Fill-1" fill="#FFFFFF" points="0 29.998125 30 29.998125 30 0 0 0"></polygon>
                            <g transform="translate(2.875000, 4.750000)">
                                <path d="M18.3981875,20.0950625 L5.8506875,20.0950625 C2.7869375,20.0950625 0.2931875,17.6031875 0.2931875,14.5375625 L0.2931875,5.9631875 C0.2931875,2.8975625 2.7869375,0.4056875 5.8506875,0.4056875 L18.3981875,0.4056875 C21.4638125,0.4056875 23.9556875,2.8975625 23.9556875,5.9631875 L23.9556875,14.5375625 C23.9556875,17.6031875 21.4638125,20.0950625 18.3981875,20.0950625 Z" id="Fill-2" fill="#FFC86D"></path>
                                <path d="M12.12575,13.664 C10.627625,13.664 9.131375,13.094 7.991375,11.954 L4.42325,8.385875 C3.828875,7.793375 3.828875,6.829625 4.42325,6.237125 C5.01575,5.648375 5.977625,5.648375 6.570125,6.237125 L10.13825,9.80525 C11.1995,10.868375 13.050125,10.868375 14.111375,9.80525 L17.6795,6.237125 C18.273875,5.648375 19.23575,5.648375 19.82825,6.237125 C20.42075,6.829625 20.42075,7.793375 19.82825,8.385875 L16.260125,11.954 C15.120125,13.094 13.622,13.664 12.12575,13.664" id="Fill-4" fill="#FFFFFF"></path>
                            </g>
                        </g>
                    </g>
                </g>
            </g>
        </g>
    </g>
</svg>