<?xml version="1.0" encoding="UTF-8"?>
<svg width="30px" height="30px" viewBox="0 0 30 30" version="1.1" xmlns="http://www.w3.org/2000/svg" xmlns:xlink="http://www.w3.org/1999/xlink">
    <!-- Generator: Sketch 52.5 (67469) - http://www.bohemiancoding.com/sketch -->
    <title>分组@2x</title>
    <desc>Created with Sketch.</desc>
    <g id="小程序（精简版）" stroke="none" stroke-width="1" fill="none" fill-rule="evenodd">
        <g id="我的_拉到底" transform="translate(-40.000000, -669.000000)">
            <g id="分组-3" transform="translate(0.000000, 653.000000)">
                <g id="分组-9" transform="translate(40.000000, 16.000000)">
                    <g id="分组-8">
                        <g id="分组">
                            <polygon id="Fill-1" fill="#FFFFFF" points="0 30 30 30 30 0 0 0"></polygon>
                            <path d="M22.70325,16.344 C23.29575,16.9365 23.29575,17.898375 22.70325,18.49275 C22.407,18.789 22.018875,18.937125 21.628875,18.937125 C21.24075,18.937125 20.852625,18.789 20.5545,18.49275 L19.210125,17.148375 L19.13325,17.22525 C17.99325,18.36525 16.497,18.933375 14.998875,18.933375 C13.502625,18.933375 12.0045,18.36525 10.866375,17.22525 L10.7895,17.148375 L9.445125,18.49275 C9.148875,18.789 8.758875,18.937125 8.37075,18.937125 C7.98075,18.937125 7.592625,18.789 7.296375,18.49275 C6.703875,17.898375 6.703875,16.9365 7.296375,16.344 L8.64075,14.999625 L7.296375,13.65525 C6.703875,13.06275 6.703875,12.100875 7.296375,11.5065 C7.89075,10.912125 8.85075,10.914 9.445125,11.5065 L11.862,13.92525 C11.862,13.92525 11.862,13.92525 11.863875,13.92525 C11.863875,13.927125 11.863875,13.927125 11.863875,13.927125 L13.01325,15.0765 C14.10825,16.1715 15.891375,16.169625 16.986375,15.0765 L20.5545,11.5065 C21.148875,10.914 22.11075,10.914 22.70325,11.5065 C23.29575,12.100875 23.29575,13.06275 22.70325,13.65525 L21.358875,14.999625 L22.70325,16.344 Z M21.2745,5.154 L8.725125,5.154 C5.661375,5.154 3.1695,7.64775 3.1695,10.7115 L3.1695,19.28775 C3.1695,22.353375 5.661375,24.84525 8.725125,24.84525 L21.2745,24.84525 C24.33825,24.84525 26.832,22.353375 26.832,19.28775 L26.832,10.7115 C26.832,7.64775 24.33825,5.154 21.2745,5.154 Z" id="Fill-2" fill="#FFC86D"></path>
                        </g>
                    </g>
                </g>
            </g>
        </g>
    </g>
</svg>