<?xml version="1.0" encoding="UTF-8"?>
<svg width="30px" height="30px" viewBox="0 0 30 30" version="1.1" xmlns="http://www.w3.org/2000/svg" xmlns:xlink="http://www.w3.org/1999/xlink">
    <!-- Generator: Sketch 52.5 (67469) - http://www.bohemiancoding.com/sketch -->
    <title>分组@2x</title>
    <desc>Created with Sketch.</desc>
    <g id="小程序（精简版）" stroke="none" stroke-width="1" fill="none" fill-rule="evenodd">
        <g id="首页" transform="translate(-42.000000, -621.000000)">
            <g id="分组-3" transform="translate(0.000000, 605.000000)">
                <g id="分组-9" transform="translate(42.000000, 16.000000)">
                    <g id="分组-8">
                        <g id="分组">
                            <polygon id="Fill-1" fill="#FFFFFF" points="0 30 30 30 30 0 0 0"></polygon>
                            <g transform="translate(3.750000, 5.625000)" fill="#4D495B">
                                <path d="M16.7870625,9.375 L18.5420625,7.62 C18.9076875,7.254375 18.9076875,6.66 18.5420625,6.294375 C18.1764375,5.92875 17.5820625,5.92875 17.2164375,6.294375 L14.7995625,8.71125 C14.7995625,8.71125 14.7976875,8.71125 14.7976875,8.71125 C14.7958125,8.713125 14.7958125,8.713125 14.7958125,8.715 L13.6483125,9.8625 C12.3264375,11.184375 10.1758125,11.184375 8.8520625,9.8625 L7.7045625,8.715 C7.7026875,8.713125 7.7026875,8.713125 7.7026875,8.71125 C7.7008125,8.71125 7.7008125,8.71125 7.6989375,8.71125 L5.2839375,6.294375 C4.9164375,5.92875 4.3239375,5.92875 3.9583125,6.294375 C3.5908125,6.66 3.5908125,7.254375 3.9583125,7.62 L5.7133125,9.375 L3.9583125,11.13 C3.5908125,11.495625 3.5908125,12.09 3.9583125,12.455625 C4.1401875,12.639375 4.3801875,12.73125 4.6201875,12.73125 C4.8601875,12.73125 5.1001875,12.639375 5.2839375,12.455625 L7.0389375,10.700625 L7.5264375,11.188125 C8.5520625,12.215625 9.9020625,12.7275 11.2501875,12.7275 C12.5983125,12.7275 13.9464375,12.215625 14.9739375,11.188125 L15.4614375,10.700625 L17.2164375,12.455625 C17.4001875,12.639375 17.6401875,12.73125 17.8801875,12.73125 C18.1183125,12.73125 18.3583125,12.639375 18.5420625,12.455625 C18.9076875,12.09 18.9076875,11.495625 18.5420625,11.13 L16.7870625,9.375 Z" id="Fill-2"></path>
                                <path d="M20.625,1.897875 L1.786875,1.986 L1.875,16.852875 L20.625,16.76475 L20.625,1.897875 Z M20.713125,18.63975 L1.786875,18.63975 C0.8025,18.63975 0,17.83725 0,16.852875 L0,1.897875 C0,0.9135 0.8025,0.111 1.786875,0.111 L20.713125,0.111 C21.6975,0.111 22.5,0.9135 22.5,1.897875 L22.5,16.852875 C22.5,17.83725 21.6975,18.63975 20.713125,18.63975 Z" id="Fill-4"></path>
                            </g>
                        </g>
                    </g>
                </g>
            </g>
        </g>
    </g>
</svg>