<?xml version="1.0" encoding="UTF-8"?>
<svg width="22px" height="22px" viewBox="0 0 22 22" version="1.1" xmlns="http://www.w3.org/2000/svg" xmlns:xlink="http://www.w3.org/1999/xlink">
    <!-- Generator: Sketch 52.5 (67469) - http://www.bohemiancoding.com/sketch -->
    <title>分组@2x</title>
    <desc>Created with Sketch.</desc>
    <g id="小程序（精简版）" stroke="none" stroke-width="1" fill="none" fill-rule="evenodd">
        <g id="票券" transform="translate(-30.000000, -169.000000)">
            <g id="分组-5" transform="translate(30.000000, 147.000000)">
                <g id="分组" transform="translate(0.000000, 22.000000)">
                    <polygon id="Fill-1" fill="#FFFFFF" points="0 22 22 22 22 0 0 0"></polygon>
                    <g transform="translate(2.375000, 2.375000)" fill="#FFC86D">
                        <path d="M6.299875,10.94875 L10.94875,10.94875 L10.94875,6.299875 L6.299875,6.299875 L6.299875,10.94875 Z M12.0625,13.174875 L5.1875,13.174875 C4.572875,13.174875 4.07375,12.677125 4.07375,12.0625 L4.07375,5.1875 C4.07375,4.572875 4.572875,4.07375 5.1875,4.07375 L12.0625,4.07375 C12.677125,4.07375 13.174875,4.572875 13.174875,5.1875 L13.174875,12.0625 C13.174875,12.677125 12.677125,13.174875 12.0625,13.174875 Z" id="Fill-2"></path>
                        <path d="M11.3237125,14.808375 L14.8079625,14.808375 L14.8079625,11.32275 C14.0970875,10.60225 13.6997125,9.648 13.6997125,8.625 C13.6997125,7.602 14.0970875,6.646375 14.8079625,5.92725 L14.8079625,2.441625 L11.3237125,2.441625 C9.8882125,3.862 7.3664625,3.86475 5.9254625,2.441625 L2.4412125,2.441625 L2.4412125,5.925875 C3.1534625,6.645 3.5508375,7.602 3.5508375,8.625 C3.5508375,9.648 3.1534625,10.603625 2.4412125,11.324125 L2.4412125,14.808375 L5.9254625,14.808375 C7.3664625,13.383875 9.8882125,13.386625 11.3237125,14.808375 M15.9217125,17.0345 L10.8204625,17.0345 C10.4684625,17.0345 10.1384625,16.8695 9.9280875,16.589 C9.2983375,15.7475 7.9535875,15.7475 7.3210875,16.589 C7.1107125,16.8695 6.7793375,17.0345 6.4287125,17.0345 L1.3274625,17.0345 C0.7128375,17.0345 0.2150875,16.53675 0.2150875,15.922125 L0.2150875,10.820875 C0.2150875,10.47025 0.3800875,10.138875 0.6605875,9.9285 C1.0813375,9.613625 1.3247125,9.137875 1.3247125,8.625 C1.3247125,8.112125 1.0813375,7.636375 0.6605875,7.3215 C0.3800875,7.10975 0.2150875,6.77975 0.2150875,6.429125 L0.2150875,1.327875 C0.2150875,0.71325 0.7128375,0.2155 1.3274625,0.2155 L6.4287125,0.2155 C6.7793375,0.2155 7.1107125,0.3805 7.3210875,0.661 C7.9535875,1.503875 9.2983375,1.503875 9.9280875,0.661 C10.1384625,0.3805 10.4684625,0.2155 10.8204625,0.2155 L15.9217125,0.2155 C16.5363375,0.2155 17.0340875,0.71325 17.0340875,1.327875 L17.0340875,6.429125 C17.0340875,6.77975 16.8704625,7.10975 16.5899625,7.320125 C16.1678375,7.636375 15.9258375,8.1135 15.9258375,8.625 C15.9258375,9.1365 16.1678375,9.613625 16.5899625,9.929875 C16.8704625,10.138875 17.0340875,10.47025 17.0340875,10.820875 L17.0340875,15.922125 C17.0340875,16.53675 16.5363375,17.0345 15.9217125,17.0345" id="Fill-4"></path>
                    </g>
                </g>
            </g>
        </g>
    </g>
</svg>