<?xml version="1.0" encoding="UTF-8"?>
<svg width="30px" height="30px" viewBox="0 0 30 30" version="1.1" xmlns="http://www.w3.org/2000/svg" xmlns:xlink="http://www.w3.org/1999/xlink">
    <!-- Generator: Sketch 52.5 (67469) - http://www.bohemiancoding.com/sketch -->
    <title>分组@2x</title>
    <desc>Created with Sketch.</desc>
    <g id="小程序（精简版）" stroke="none" stroke-width="1" fill="none" fill-rule="evenodd">
        <g id="我的" transform="translate(-40.000000, -621.000000)">
            <g id="分组-3" transform="translate(0.000000, 605.000000)">
                <g id="分组-9" transform="translate(40.000000, 16.000000)">
                    <g id="分组-8">
                        <g id="分组">
                            <polygon id="Fill-1" fill="#FFFFFF" points="0 30 30 30 30 0 0 0"></polygon>
                            <g transform="translate(2.875000, 4.750000)" fill="#4D495B">
                                <path d="M18.4833125,10.25 L19.8276875,8.905625 C20.4220625,8.31125 20.4220625,7.35125 19.8276875,6.756875 C19.2351875,6.164375 18.2733125,6.164375 17.6808125,6.756875 L14.1108125,10.326875 C13.0158125,11.42 11.2326875,11.421875 10.1376875,10.326875 L8.9901875,9.1775 C8.9901875,9.1775 8.9901875,9.1775 8.9883125,9.175625 C8.9883125,9.175625 8.9883125,9.175625 8.9864375,9.175625 L6.5695625,6.756875 C5.9770625,6.164375 5.0151875,6.1625 4.4208125,6.756875 C3.8283125,7.35125 3.8283125,8.31125 4.4208125,8.905625 L5.7670625,10.25 L4.4208125,11.594375 C3.8283125,12.186875 3.8283125,13.14875 4.4208125,13.74125 C4.7189375,14.039375 5.1070625,14.1875 5.4951875,14.1875 C5.8833125,14.1875 6.2733125,14.039375 6.5695625,13.74125 L7.9139375,12.39875 L7.9908125,12.475625 C9.1308125,13.61375 10.6270625,14.18375 12.1233125,14.18375 C13.6214375,14.18375 15.1195625,13.61375 16.2576875,12.475625 L16.3345625,12.39875 L17.6808125,13.74125 C17.9770625,14.039375 18.3670625,14.1875 18.7551875,14.1875 C19.1433125,14.1875 19.5314375,14.039375 19.8276875,13.74125 C20.4220625,13.14875 20.4220625,12.186875 19.8276875,11.594375 L18.4833125,10.25 Z" id="Fill-2"></path>
                                <path d="M5.850875,3.4420625 C4.4615,3.4420625 3.330875,4.5726875 3.330875,5.9620625 L3.330875,14.5383125 C3.330875,15.9276875 4.4615,17.0583125 5.850875,17.0583125 L18.398375,17.0583125 C19.789625,17.0583125 20.918375,15.9276875 20.918375,14.5383125 L20.918375,5.9620625 C20.918375,4.5726875 19.789625,3.4420625 18.398375,3.4420625 L5.850875,3.4420625 Z M18.398375,20.0958125 L5.850875,20.0958125 C2.787125,20.0958125 0.293375,17.6020625 0.293375,14.5383125 L0.293375,5.9620625 C0.293375,2.8964375 2.787125,0.4045625 5.850875,0.4045625 L18.398375,0.4045625 C21.464,0.4045625 23.955875,2.8964375 23.955875,5.9620625 L23.955875,14.5383125 C23.955875,17.6020625 21.464,20.0958125 18.398375,20.0958125 Z" id="Fill-4"></path>
                            </g>
                        </g>
                    </g>
                </g>
            </g>
        </g>
    </g>
</svg>