<?xml version="1.0" encoding="UTF-8"?>
<svg width="60px" height="60px" viewBox="0 0 60 60" version="1.1" xmlns="http://www.w3.org/2000/svg" xmlns:xlink="http://www.w3.org/1999/xlink">
    <!-- Generator: Sketch 52.5 (67469) - http://www.bohemiancoding.com/sketch -->
    <title>分组@2x</title>
    <desc>Created with Sketch.</desc>
    <defs>
        <polygon id="path-1" points="0 0.213636364 59.7863409 0.213636364 59.7863409 60 0 60"></polygon>
    </defs>
    <g id="小程序" stroke="none" stroke-width="1" fill="none" fill-rule="evenodd">
        <g id="解答室" transform="translate(-265.000000, -223.000000)">
            <g id="分组-3-copy-2" transform="translate(30.000000, 203.000000)">
                <g id="分组" transform="translate(235.000000, 20.000000)">
                    <g>
                        <mask id="mask-2" fill="white">
                            <use xlink:href="#path-1"></use>
                        </mask>
                        <g id="Clip-2"></g>
                        <path d="M57.7029318,0.213568182 L53.7615682,0.213568182 L46.9336136,0.213568182 C46.8824773,2.05152273 45.37975,3.52652273 43.5295227,3.52652273 C41.6790682,3.52652273 40.1767955,2.05152273 40.1252045,0.213568182 L33.29725,0.213568182 C33.2461136,2.05152273 31.7433864,3.52652273 29.8931591,3.52652273 C28.0427045,3.52652273 26.5404318,2.05152273 26.4888409,0.213568182 L19.6608864,0.213568182 C19.60975,2.05152273 18.1070227,3.52652273 16.2567955,3.52652273 C14.4063409,3.52652273 12.9040682,2.05152273 12.8524773,0.213568182 L6.02452273,0.213568182 L2.08338636,0.213568182 L-2.27272727e-05,0.213568182 L-2.27272727e-05,2.29720455 L-2.27272727e-05,6.23834091 L-2.27272727e-05,13.0662955 C1.83770455,13.1176591 3.31293182,14.6201591 3.31293182,16.4703864 C3.31293182,18.3208409 1.83770455,19.8231136 -2.27272727e-05,19.8747045 L-2.27272727e-05,26.7026591 C1.83770455,26.7540227 3.31293182,28.2565227 3.31293182,30.10675 C3.31293182,31.9572045 1.83770455,33.4594773 -2.27272727e-05,33.5110682 L-2.27272727e-05,40.3390227 C1.83770455,40.3903864 3.31293182,41.8928864 3.31293182,43.7431136 C3.31293182,45.5935682 1.83770455,47.0958409 -2.27272727e-05,47.1474318 L-2.27272727e-05,53.9753864 L-2.27272727e-05,57.9165227 L-2.27272727e-05,60.0001591 L2.08338636,60.0001591 L6.02452273,60.0001591 L12.8524773,60.0001591 C12.9040682,58.1622045 14.4063409,56.6869773 16.2567955,56.6869773 C18.1070227,56.6869773 19.60975,58.1622045 19.6608864,60.0001591 L26.4888409,60.0001591 C26.5404318,58.1622045 28.0427045,56.6869773 29.8931591,56.6869773 C31.7433864,56.6869773 33.2461136,58.1622045 33.29725,60.0001591 L40.1252045,60.0001591 C40.1767955,58.1622045 41.6790682,56.6869773 43.5295227,56.6869773 C45.37975,56.6869773 46.8824773,58.1622045 46.9336136,60.0001591 L53.7615682,60.0001591 L57.7027045,60.0001591 L59.7863409,60.0001591 L59.7863409,57.9165227 L59.7863409,53.9753864 L59.7863409,47.1474318 C57.9483864,47.0958409 56.4733864,45.5935682 56.4733864,43.7431136 C56.4733864,41.8928864 57.9483864,40.3903864 59.7863409,40.3390227 L59.7863409,33.5110682 C57.9483864,33.4594773 56.4733864,31.9572045 56.4733864,30.10675 C56.4733864,28.2565227 57.9483864,26.7540227 59.7863409,26.7026591 L59.7863409,19.8747045 C57.9483864,19.8231136 56.4733864,18.3208409 56.4733864,16.4703864 C56.4733864,14.6201591 57.9483864,13.1176591 59.7863409,13.0662955 L59.7863409,6.23834091 L59.7863409,2.29720455 L59.7863409,0.213568182 L57.7029318,0.213568182 Z" id="Fill-1" fill="#E6E6E6" mask="url(#mask-2)"></path>
                    </g>
                    <polygon id="Fill-3" fill="#CCCCCC" points="7.82608696 52.173913 50.8695652 52.173913 50.8695652 9.13043478 7.82608696 9.13043478"></polygon>
                </g>
            </g>
        </g>
    </g>
</svg>