<?xml version="1.0" encoding="UTF-8"?>
<svg width="30px" height="30px" viewBox="0 0 30 30" version="1.1" xmlns="http://www.w3.org/2000/svg" xmlns:xlink="http://www.w3.org/1999/xlink">
    <!-- Generator: Sketch 52.5 (67469) - http://www.bohemiancoding.com/sketch -->
    <title>分组@2x</title>
    <desc>Created with Sketch.</desc>
    <g id="小程序" stroke="none" stroke-width="1" fill="none" fill-rule="evenodd">
        <g id="信箱_拉到底" transform="translate(-42.000000, -1239.000000)">
            <g id="分组-3" transform="translate(0.000000, 1223.000000)">
                <g id="分组-9" transform="translate(42.000000, 5.000000)">
                    <g id="分组-8">
                        <g id="分组" transform="translate(0.000000, 11.000000)">
                            <polygon id="Fill-1" fill="#FFFFFF" points="0 30 30 30 30 0 0 0"></polygon>
                            <path d="M22.29225,16.755 C22.657875,17.120625 22.657875,17.715 22.29225,18.080625 C22.1085,18.264375 21.8685,18.35625 21.6285,18.35625 C21.390375,18.35625 21.150375,18.264375 20.966625,18.080625 L19.211625,16.325625 L18.724125,16.813125 C17.696625,17.840625 16.3485,18.3525 15.000375,18.3525 C13.65225,18.3525 12.30225,17.840625 11.276625,16.813125 L10.789125,16.325625 L9.034125,18.080625 C8.850375,18.264375 8.610375,18.35625 8.370375,18.35625 C8.130375,18.35625 7.890375,18.264375 7.7085,18.080625 C7.341,17.715 7.341,17.120625 7.7085,16.755 L9.4635,15 L7.7085,13.245 C7.341,12.879375 7.341,12.285 7.7085,11.919375 C8.074125,11.55375 8.666625,11.55375 9.034125,11.919375 L11.449125,14.334375 C11.451,14.33625 11.451,14.33625 11.452875,14.33625 C11.452875,14.338125 11.452875,14.338125 11.45475,14.34 L12.60225,15.4875 C13.926,16.809375 16.076625,16.809375 17.3985,15.4875 L18.546,14.34 C18.546,14.338125 18.546,14.338125 18.547875,14.33625 C18.547875,14.33625 18.54975,14.33625 18.54975,14.334375 L20.966625,11.919375 C21.33225,11.55375 21.926625,11.55375 22.29225,11.919375 C22.657875,12.285 22.657875,12.879375 22.29225,13.245 L20.53725,15 L22.29225,16.755 Z M24.4635,5.735625 L5.53725,5.735625 C4.552875,5.735625 3.750375,6.538125 3.750375,7.5225 L3.750375,22.4775 C3.750375,23.461875 4.552875,24.264375 5.53725,24.264375 L24.4635,24.264375 C25.447875,24.264375 26.250375,23.461875 26.250375,22.4775 L26.250375,7.5225 C26.250375,6.538125 25.447875,5.735625 24.4635,5.735625 Z" id="Fill-2" fill="#FFC86D"></path>
                        </g>
                    </g>
                </g>
            </g>
        </g>
    </g>
</svg>