<?xml version="1.0" encoding="UTF-8"?>
<svg width="30px" height="30px" viewBox="0 0 30 30" version="1.1" xmlns="http://www.w3.org/2000/svg" xmlns:xlink="http://www.w3.org/1999/xlink">
    <!-- Generator: Sketch 52.5 (67469) - http://www.bohemiancoding.com/sketch -->
    <title>分组@2x</title>
    <desc>Created with Sketch.</desc>
    <g id="小程序（精简版）" stroke="none" stroke-width="1" fill="none" fill-rule="evenodd">
        <g id="我的" transform="translate(-40.000000, -621.000000)">
            <g id="分组-3" transform="translate(0.000000, 605.000000)">
                <g id="分组-9" transform="translate(40.000000, 16.000000)">
                    <g id="分组-8">
                        <g id="分组">
                            <polygon id="Fill-1" fill="#FFFFFF" points="0 30 30 30 30 0 0 0"></polygon>
                            <g transform="translate(2.875000, 5.625000)" fill="#4D495B">
                                <path d="M19.82825,5.881125 C19.233875,5.28675 18.272,5.2905 17.6795,5.883 L15.2645,8.298 C15.2645,8.298 15.262625,8.299875 15.262625,8.299875 C15.26075,8.299875 15.26075,8.30175 15.26075,8.30175 L14.111375,9.451125 C13.050125,10.51425 11.1995,10.512375 10.140125,9.453 L8.992625,8.307375 C8.99075,8.3055 8.99075,8.30175 8.988875,8.299875 C8.987,8.298 8.98325,8.298 8.981375,8.29425 L6.570125,5.883 C5.97575,5.2905 5.01575,5.2905 4.421375,5.881125 C3.828875,6.473625 3.828875,7.4355 4.421375,8.029875 L5.76575,9.37425 L4.421375,10.718625 C3.828875,11.311125 3.828875,12.274875 4.421375,12.867375 C4.717625,13.163625 5.10575,13.31175 5.49575,13.31175 C5.883875,13.31175 6.273875,13.163625 6.570125,12.867375 L7.9145,11.523 L7.991375,11.599875 C9.131375,12.739875 10.627625,13.309875 12.12575,13.309875 C13.622,13.309875 15.120125,12.739875 16.260125,11.599875 L16.337,11.523 L17.6795,12.867375 C17.977625,13.163625 18.36575,13.31175 18.753875,13.31175 C19.142,13.31175 19.532,13.163625 19.82825,12.86925 C20.42075,12.274875 20.42075,11.313 19.82825,10.7205 L18.483875,9.37425 L19.82825,8.029875 C20.42075,7.4355 20.42075,6.473625 19.82825,5.881125" id="Fill-2"></path>
                                <path d="M20.283125,13.85175 C19.985,14.8755 19.049375,15.59175 18.005,15.59175 L6.245,15.59175 C5.200625,15.59175 4.265,14.8755 3.966875,13.85175 C3.545,12.398625 3.33125,10.893 3.33125,9.37425 C3.33125,7.85925 3.545,6.35175 3.966875,4.898625 C4.265,3.874875 5.200625,3.158625 6.245,3.158625 L18.005,3.158625 C19.049375,3.158625 19.985,3.874875 20.283125,4.898625 C20.705,6.35175 20.91875,7.85925 20.91875,9.37425 C20.91875,10.893 20.705,12.398625 20.283125,13.85175 M23.200625,4.051125 C22.529375,1.737375 20.39375,0.123 18.005,0.123 L6.245,0.123 C3.858125,0.123 1.720625,1.737375 1.049375,4.051125 C0.54875,5.78175 0.29375,7.572375 0.29375,9.37425 C0.29375,11.178 0.54875,12.9705 1.049375,14.697375 C1.720625,17.013 3.858125,18.627375 6.245,18.627375 L18.005,18.627375 C20.39375,18.627375 22.529375,17.013 23.200625,14.697375 C23.70125,12.9705 23.95625,11.178 23.95625,9.37425 C23.95625,7.572375 23.70125,5.78175 23.200625,4.051125" id="Fill-4"></path>
                            </g>
                        </g>
                    </g>
                </g>
            </g>
        </g>
    </g>
</svg>