<?xml version="1.0" encoding="UTF-8"?>
<svg width="68px" height="68px" viewBox="0 0 68 68" version="1.1" xmlns="http://www.w3.org/2000/svg" xmlns:xlink="http://www.w3.org/1999/xlink">
    <!-- Generator: Sketch 52.5 (67469) - http://www.bohemiancoding.com/sketch -->
    <title>分组@2x</title>
    <desc>Created with Sketch.</desc>
    <defs>
        <path d="M59.9929138,26.7686857 C58.1039312,26.7686857 56.571284,25.2370508 56.571284,23.3470558 C56.571284,21.4580732 58.1039312,19.9264383 59.9929138,19.9264383 L60,19.9264383 L60,19.7310612 L60,13.4627974 C59.9979754,13.4627974 59.9949384,13.4638097 59.9929138,13.4638097 C58.1039312,13.4638097 56.571284,11.9321748 56.571284,10.0431922 C56.571284,8.15319723 58.1039312,6.62156234 59.9929138,6.62156234 C59.9949384,6.62156234 59.9979754,6.62257466 60,6.62257466 L60,6.04555424 L60,2.09043361 L60,0 L57.9085541,0 L53.9534334,0 L53.3784377,0 L53.3784377,0.00607389911 C53.3784377,1.89708115 51.8468028,3.42770373 49.9578201,3.42770373 C48.0678252,3.42770373 46.5361903,1.89708115 46.5361903,0.00607389911 L46.5361903,0 L40.2689388,0 L40.0735617,0 L40.0735617,0.00607389911 C40.0735617,1.89708115 38.5419268,3.42770373 36.6519318,3.42770373 C34.7629492,3.42770373 33.230302,1.89708115 33.230302,0.00607389911 C33.230302,0.00506158259 33.2313143,0.00303694955 33.2313143,0 L26.7686857,0 L26.7686857,0.00607389911 C26.7686857,1.89708115 25.2370508,3.42770373 23.3480682,3.42770373 C21.4580732,3.42770373 19.9264383,1.89708115 19.9264383,0.00607389911 L19.9264383,0 L19.7320736,0 L15.9794162,0 L13.4638097,0 L13.4638097,0.00607389911 C13.4638097,1.89708115 11.9311625,3.42770373 10.0421799,3.42770373 C8.15319723,3.42770373 6.62055003,1.89708115 6.62055003,0.00607389911 C6.62055003,0.00506158259 6.62156234,0.00303694955 6.62156234,0 L6.04656656,0 L2.09144593,0 L0,0 L0,2.09043361 L0,6.04555424 L0,6.62257466 C0.00202463304,6.62257466 0.00404926607,6.62156234 0.00708621562,6.62156234 C1.89606884,6.62156234 3.42770373,8.15319723 3.42770373,10.0431922 C3.42770373,11.9321748 1.89606884,13.4638097 0.00708621562,13.4638097 C0.00404926607,13.4638097 0.00202463304,13.4627974 0,13.4627974 L0,19.7310612 L0,19.9264383 L0.00708621562,19.9264383 C1.89606884,19.9264383 3.42770373,21.4580732 3.42770373,23.3470558 C3.42770373,25.2370508 1.89606884,26.7686857 0.00708621562,26.7686857 L0,26.7686857 L0,33.2313143 L0.00708621562,33.2313143 C1.89606884,33.2313143 3.42770373,34.7629492 3.42770373,36.6529442 C3.42770373,38.5419268 1.89606884,40.074574 0.00708621562,40.074574 C0.00404926607,40.074574 0.00202463304,40.0735617 0,40.0735617 L0,40.2689388 L0,43.564029 L0,46.5361903 L0.00708621562,46.5361903 C1.89606884,46.5361903 3.42770373,48.0678252 3.42770373,49.9568078 C3.42770373,51.8468028 1.89606884,53.3784377 0.00708621562,53.3784377 L0,53.3784377 L0,53.9534334 L0,57.9095664 L0,60 L2.09144593,60 L6.04656656,60 L6.62156234,60 C6.62156234,59.9979754 6.62055003,59.9949384 6.62055003,59.9929138 C6.62055003,58.1039312 8.15319723,56.571284 10.0421799,56.571284 C11.9311625,56.571284 13.4638097,58.1039312 13.4638097,59.9929138 L13.4638097,60 L19.7320736,60 L19.9264383,60 L19.9264383,59.9929138 C19.9264383,58.1039312 21.4580732,56.571284 23.3480682,56.571284 C25.2370508,56.571284 26.7686857,58.1039312 26.7686857,59.9929138 L26.7686857,60 L27.1422305,60 L33.2313143,60 C33.2313143,59.9979754 33.230302,59.9949384 33.230302,59.9929138 C33.230302,58.1039312 34.7629492,56.571284 36.6519318,56.571284 C38.5419268,56.571284 40.0735617,58.1039312 40.0735617,59.9929138 L40.0735617,60 L40.2689388,60 L46.5361903,60 L46.5361903,59.9929138 C46.5361903,58.1039312 48.0678252,56.571284 49.9578201,56.571284 C51.8468028,56.571284 53.3784377,58.1039312 53.3784377,59.9929138 L53.3784377,60 L53.9534334,60 L57.9085541,60 L60,60 L60,57.9095664 L60,53.9534334 L60,53.3784377 L59.9929138,53.3784377 C58.1039312,53.3784377 56.571284,51.8468028 56.571284,49.9568078 C56.571284,48.0678252 58.1039312,46.5361903 59.9929138,46.5361903 L60,46.5361903 L60,40.2689388 L60,40.0735617 C59.9979754,40.0735617 59.9949384,40.074574 59.9929138,40.074574 C58.1039312,40.074574 56.571284,38.5419268 56.571284,36.6529442 C56.571284,34.7629492 58.1039312,33.2313143 59.9929138,33.2313143 L60,33.2313143 L60,26.7686857 L59.9929138,26.7686857 Z" id="path-1"></path>
        <filter x="-11.7%" y="-8.3%" width="123.3%" height="123.3%" filterUnits="objectBoundingBox" id="filter-2">
            <feOffset dx="0" dy="2" in="SourceAlpha" result="shadowOffsetOuter1"></feOffset>
            <feGaussianBlur stdDeviation="2" in="shadowOffsetOuter1" result="shadowBlurOuter1"></feGaussianBlur>
            <feColorMatrix values="0 0 0 0 0   0 0 0 0 0   0 0 0 0 0  0 0 0 0.1 0" type="matrix" in="shadowBlurOuter1"></feColorMatrix>
        </filter>
        <polygon id="path-3" points="0 0.96 43.0399 0.96 43.0399 36.4339 0 36.4339"></polygon>
        <polygon id="path-5" points="0.0005 0.4626 43.04 0.4626 43.04 1 0.0005 1"></polygon>
        <polygon id="path-7" points="0.0938 0.462200562 12.8768 0.462200562 12.8768 1 0.0938 1"></polygon>
        <polygon id="path-9" points="0 0.462200562 30.5008 0.462200562 30.5008 1 0 1"></polygon>
        <polygon id="path-11" points="0 0.573080853 11.2568 0.573080853 11.2568 12.5716 0 12.5716"></polygon>
        <polygon id="path-13" points="0 0.0194 9.0528 0.0194 9.0528 8.6284 0 8.6284"></polygon>
        <polygon id="path-15" points="0 0.0454 11.0958 0.0454 11.0958 12.2154 0 12.2154"></polygon>
        <polygon id="path-17" points="0.8775 0.4148 2.04 0.4148 2.04 1 0.8775 1"></polygon>
        <polygon id="path-19" points="0.8574 0.4143 9.1904 0.4143 9.1904 1 0.8574 1"></polygon>
        <polygon id="path-21" points="0.1151 0.3703 1.04 0.3703 1.04 1 0.1151 1"></polygon>
        <polygon id="path-23" points="0.1624 0.2891 13.04 0.2891 13.04 10.1561 0.1624 10.1561"></polygon>
        <polygon id="path-25" points="0.1651 0.9933 10.04 0.9933 10.04 5.9043 0.1651 5.9043"></polygon>
        <polygon id="path-27" points="0 0.4536 11.2427 0.4536 11.2427 6.2846 0 6.2846"></polygon>
        <polygon id="path-29" points="0.9755 0.4148 5.8585 0.4148 5.8585 1 0.9755 1"></polygon>
        <polygon id="path-31" points="0.0005 0.4023 16.8905 0.4023 16.8905 1 0.0005 1"></polygon>
        <polygon id="path-33" points="0.5521 0.4198 1.5521 0.4198 1.5521 1 0.5521 1"></polygon>
        <polygon id="path-35" points="0.0407 0.4043 1.0407 0.4043 1.0407 1 0.0407 1"></polygon>
        <polygon id="path-37" points="0.7895 0.3962 10.3895 0.3962 10.3895 1 0.7895 1"></polygon>
        <polygon id="path-39" points="0.394 0.4029 1.394 0.4029 1.394 1 0.394 1"></polygon>
        <polygon id="path-41" points="0.6914 0.4062 2.8584 0.4062 2.8584 1 0.6914 1"></polygon>
        <polygon id="path-43" points="0.3907 0.0078 2.8517 0.0078 2.8517 1 0.3907 1"></polygon>
        <polygon id="path-45" points="0.8124 0.3928 9.3974 0.3928 9.3974 1 0.8124 1"></polygon>
        <polygon id="path-47" points="0.4623 0.4096 1.4623 0.4096 1.4623 1 0.4623 1"></polygon>
        <polygon id="path-49" points="0.8587 0.4163 11.1977 0.4163 11.1977 1 0.8587 1"></polygon>
        <polygon id="path-51" points="0.1441 0.4148 2.0401 0.4148 2.0401 1 0.1441 1"></polygon>
        <polygon id="path-53" points="0.8516 0.4148 11.1976 0.4148 11.1976 1 0.8516 1"></polygon>
    </defs>
    <g id="小程序（精简版）" stroke="none" stroke-width="1" fill="none" fill-rule="evenodd">
        <g id="记忆_我的咨询" transform="translate(-261.000000, -165.000000)">
            <g id="分组-3-copy-2" transform="translate(30.000000, 147.000000)">
                <g id="分组" transform="translate(235.000000, 20.000000)">
                    <g id="Fill-1">
                        <g>
                            <use fill="black" fill-opacity="1" filter="url(#filter-2)" xlink:href="#path-1"></use>
                            <use fill="#FFFFFF" fill-rule="evenodd" xlink:href="#path-1"></use>
                        </g>
                    </g>
                    <g transform="translate(8.000000, 8.000000)">
                        <g transform="translate(0.000000, 0.040000)">
                            <mask id="mask-4" fill="white">
                                <use xlink:href="#path-3"></use>
                            </mask>
                            <g id="Clip-2"></g>
                            <path d="M11.2569,28.2339 C11.3359,28.3049 11.4169,28.3809 11.4999,28.4649 C16.0289,26.0649 18.1369,28.3329 21.2719,31.4859 C23.0529,30.5479 24.8679,30.1829 26.6649,30.2389 C29.8839,28.6359 32.7469,27.5329 34.6359,27.4599 C38.5219,27.3109 40.1109,32.0159 43.0399,36.4339 L43.0399,0.9599 L-0.0001,0.9599 L-0.0001,30.4489 C4.6829,27.0159 7.9289,24.9319 11.2569,28.2339" id="Fill-1" fill="#F2F2F2" mask="url(#mask-4)"></path>
                        </g>
                        <g transform="translate(0.000000, 43.040000)">
                            <mask id="mask-6" fill="white">
                                <use xlink:href="#path-5"></use>
                            </mask>
                            <g id="Clip-4"></g>
                            <path d="M40.2725,0.9991 L30.5015,0.9991 L0.0005,0.9991 L0.0005,1.0001 L43.0405,1.0001 L43.0405,0.9251 L41.8765,0.9251 C40.9575,0.9831 40.2725,0.9991 40.2725,0.9991" id="Fill-3" fill="#E6E6E6" mask="url(#mask-6)"></path>
                        </g>
                        <g transform="translate(29.000000, 43.040000)">
                            <mask id="mask-8" fill="white">
                                <use xlink:href="#path-7"></use>
                            </mask>
                            <g id="Clip-6"></g>
                            <path d="M0.0938,0.9248 C0.5448,0.9768 1.0128,1.0048 1.5008,0.9988 L11.2728,0.9988 C11.2728,0.9988 11.9568,0.9828 12.8768,0.9248 L4.8588,0.9248 L0.0938,0.9248 Z" id="Fill-5" fill="#999999" mask="url(#mask-8)"></path>
                        </g>
                        <path d="M11.8223,28.8496 C14.3143,28.5306 15.9783,30.7496 17.7373,33.5866 C18.4143,33.1746 19.1283,32.7486 19.8873,32.3076 C20.2153,32.1066 20.5323,31.9256 20.8433,31.7586 C20.8763,31.7396 20.9073,31.7216 20.9403,31.7026 C21.0513,31.6406 21.1613,31.5846 21.2713,31.5266 C18.1363,28.3726 16.0293,26.1046 11.5003,28.5046 C11.6033,28.6086 11.7123,28.7246 11.8223,28.8496" id="Fill-7" fill="#999999"></path>
                        <g transform="translate(0.000000, 43.040000)">
                            <mask id="mask-10" fill="white">
                                <use xlink:href="#path-9"></use>
                            </mask>
                            <g id="Clip-10"></g>
                            <path d="M29.0938,0.9248 L29.0398,0.9248 L27.1978,0.9248 L16.8908,0.9248 L-0.0002,0.9248 L-0.0002,0.9988 L30.5008,0.9988 C30.0128,1.0048 29.5448,0.9768 29.0938,0.9248" id="Fill-9" fill="#B3B3B3" mask="url(#mask-10)"></path>
                        </g>
                        <path d="M16.0957,34.605 C16.6167,34.276 17.1637,33.937 17.7377,33.587 C15.9787,30.75 14.3147,28.531 11.8227,28.85 C12.2367,29.318 12.6977,29.934 13.2057,30.72 C14.1357,32.156 15.1097,33.446 16.0957,34.605" id="Fill-11" fill="#B3B3B3"></path>
                        <path d="M34.6358,27.5 C32.7468,27.573 29.8838,28.676 26.6648,30.279 C26.7168,30.281 26.7688,30.284 26.8208,30.286 C29.2338,29.102 31.2738,28.32 32.5448,28.26 C34.2308,28.181 33.4118,29.466 31.4038,31.329 C36.1058,33.201 40.3318,37.184 43.0398,40.182 L43.0398,36.474 C40.1108,32.056 38.5218,27.351 34.6358,27.5" id="Fill-13" fill="#B3B3B3"></path>
                        <path d="M32.545,28.2602 C31.274,28.3202 29.233,29.1012 26.82,30.2862 C28.374,30.3562 29.912,30.7352 31.403,31.3292 C33.412,29.4662 34.231,28.1812 32.545,28.2602" id="Fill-15" fill="#999999"></path>
                        <g transform="translate(0.000000, 26.040000)">
                            <mask id="mask-12" fill="white">
                                <use xlink:href="#path-11"></use>
                            </mask>
                            <g id="Clip-18"></g>
                            <path d="M9.0518,4.0196 C9.0058,1.9156 9.7268,0.8686 11.2568,2.2336 C7.9288,-1.0674 4.6828,1.0156 -0.0002,4.4486 L-0.0002,12.5716 C2.8918,9.4386 6.4928,5.7826 9.0518,4.0196" id="Fill-17" fill="#E6E6E6" mask="url(#mask-12)"></path>
                        </g>
                        <g transform="translate(0.000000, 30.040000)">
                            <mask id="mask-14" fill="white">
                                <use xlink:href="#path-13"></use>
                            </mask>
                            <g id="Clip-20"></g>
                            <path d="M9.0528,0.0454 C9.0528,0.0374 9.0518,0.0274 9.0518,0.0194 C6.4928,1.7824 2.8918,5.4394 -0.0002,8.5714 L-0.0002,8.6284 C3.7738,4.5584 6.6958,1.8024 9.0528,0.0454" id="Fill-19" fill="#E6E6E6" mask="url(#mask-14)"></path>
                        </g>
                        <g transform="translate(0.000000, 30.040000)">
                            <mask id="mask-16" fill="white">
                                <use xlink:href="#path-15"></use>
                            </mask>
                            <g id="Clip-22"></g>
                            <path d="M9.0528,0.0454 C6.6958,1.8024 3.7738,4.5584 -0.0002,8.6284 L-0.0002,12.2154 C2.9308,11.2154 6.7568,9.6964 11.0958,7.4534 C9.7928,4.7984 9.1008,1.9814 9.0528,0.0454" id="Fill-21" fill="#E6E6E6" mask="url(#mask-16)"></path>
                        </g>
                        <path d="M11.5,28.5049 C11.417,28.4219 11.336,28.3449 11.257,28.2739 C11.334,28.3509 11.411,28.4289 11.488,28.5109 C11.492,28.5089 11.496,28.5069 11.5,28.5049" id="Fill-23" fill="#CCCCCC"></path>
                        <path d="M11.793,28.853 C11.803,28.852 11.813,28.851 11.822,28.85 C11.712,28.725 11.604,28.609 11.5,28.505 C11.496,28.507 11.492,28.509 11.488,28.511 C11.59,28.62 11.691,28.734 11.793,28.853" id="Fill-25" fill="#CCCCCC"></path>
                        <path d="M15.8262,34.7759 C15.9162,34.7189 16.0052,34.6629 16.0962,34.6049 C15.1092,33.4459 14.1362,32.1559 13.2062,30.7199 C12.6972,29.9339 12.2362,29.3179 11.8222,28.8499 C11.8122,28.8509 11.8032,28.8519 11.7932,28.8529 C12.3562,29.5099 12.9252,30.3229 13.5052,31.3179 C14.2422,32.5819 15.0242,33.7309 15.8262,34.7759" id="Fill-27" fill="#CCCCCC"></path>
                        <path d="M9.4483,29.7964 C10.1803,29.2714 10.8573,28.8464 11.4883,28.5114 C11.4113,28.4294 11.3343,28.3504 11.2573,28.2744 C9.7263,26.9084 9.0063,27.9554 9.0523,30.0594 C9.1853,29.9674 9.3163,29.8794 9.4433,29.7984 L9.4483,29.7964 Z" id="Fill-29" fill="#CCCCCC"></path>
                        <path d="M11.4883,28.5112 C10.8573,28.8462 10.1803,29.2712 9.4483,29.7962 C10.3103,29.2462 11.0853,28.9492 11.7933,28.8532 C11.6913,28.7342 11.5903,28.6192 11.4883,28.5112" id="Fill-31" fill="#CCCCCC"></path>
                        <path d="M9.4483,29.7964 L9.4433,29.7984 C9.3163,29.8794 9.1853,29.9674 9.0523,30.0594 C9.0523,30.0674 9.0523,30.0774 9.0523,30.0854 C9.1863,29.9854 9.3183,29.8894 9.4483,29.7964" id="Fill-33" fill="#CCCCCC"></path>
                        <path d="M14.3887,35.7017 C14.8477,35.4027 15.3257,35.0937 15.8257,34.7757 C15.0247,33.7307 14.2427,32.5817 13.5047,31.3177 C12.9247,30.3227 12.3567,29.5097 11.7927,28.8527 C11.0847,28.9497 10.3107,29.2467 9.4487,29.7967 C9.3187,29.8897 9.1867,29.9857 9.0527,30.0857 C9.1007,32.0217 9.7927,34.8387 11.0957,37.4937 C12.1637,36.9417 13.2637,36.3447 14.3887,35.7017" id="Fill-35" fill="#CCCCCC"></path>
                        <path d="M26.4522,30.3862 C26.5232,30.3502 26.5952,30.3152 26.6652,30.2792 C24.8682,30.2222 23.0532,30.5882 21.2712,31.5262 C21.2732,31.5282 21.2742,31.5302 21.2762,31.5312 C23.3122,30.5102 25.0202,30.1992 26.4522,30.3862" id="Fill-37" fill="#E6E6E6"></path>
                        <g transform="translate(41.000000, 43.040000)">
                            <mask id="mask-18" fill="white">
                                <use xlink:href="#path-17"></use>
                            </mask>
                            <g id="Clip-40"></g>
                            <path d="M1.1905,0.9043 C1.0835,0.9113 0.9785,0.9183 0.8775,0.9253 L2.0405,0.9253 L2.0405,0.9043 L1.1905,0.9043 Z" id="Fill-39" fill="#E6E6E6" mask="url(#mask-18)"></path>
                        </g>
                        <path d="M19.294,32.6851 C19.495,32.5531 19.692,32.4281 19.888,32.3071 C19.128,32.7491 18.414,33.1751 17.737,33.5871 C17.753,33.6111 17.768,33.6361 17.783,33.6601 C18.283,33.3441 18.787,33.0191 19.294,32.6851" id="Fill-41" fill="#E6E6E6"></path>
                        <path d="M20.8428,31.7583 C20.9888,31.6793 21.1338,31.6033 21.2768,31.5313 C21.2748,31.5293 21.2738,31.5283 21.2718,31.5263 C21.1608,31.5843 21.0508,31.6403 20.9408,31.7023 C20.9068,31.7213 20.8758,31.7393 20.8428,31.7583" id="Fill-43" fill="#E6E6E6"></path>
                        <g transform="translate(33.000000, 43.040000)">
                            <mask id="mask-20" fill="white">
                                <use xlink:href="#path-19"></use>
                            </mask>
                            <g id="Clip-46"></g>
                            <path d="M0.8584,0.9248 L8.8774,0.9248 C8.9784,0.9188 9.0834,0.9118 9.1904,0.9038 L0.8574,0.9038 C0.8574,0.9168 0.8584,0.9248 0.8584,0.9248" id="Fill-45" fill="#E6E6E6" mask="url(#mask-20)"></path>
                        </g>
                        <path d="M16.1495,34.6684 C16.6895,34.3434 17.2345,34.0064 17.7835,33.6604 C17.7675,33.6354 17.7535,33.6114 17.7375,33.5864 C17.1645,33.9364 16.6175,34.2754 16.0955,34.6054 C16.1135,34.6264 16.1315,34.6474 16.1495,34.6684" id="Fill-47" fill="#E6E6E6"></path>
                        <path d="M26.586,30.4028 C26.664,30.3638 26.743,30.3238 26.82,30.2858 C26.769,30.2838 26.717,30.2808 26.665,30.2788 C26.595,30.3148 26.524,30.3508 26.452,30.3858 C26.496,30.3918 26.542,30.3958 26.586,30.4028" id="Fill-49" fill="#E6E6E6"></path>
                        <g transform="translate(42.000000, 43.040000)">
                            <mask id="mask-22" fill="white">
                                <use xlink:href="#path-21"></use>
                            </mask>
                            <g id="Clip-52"></g>
                            <path d="M1.0401,0.9043 L1.0401,0.8363 C0.7481,0.8623 0.4621,0.8853 0.1901,0.9043 L1.0401,0.9043 Z" id="Fill-51" fill="#E6E6E6" mask="url(#mask-22)"></path>
                        </g>
                        <g transform="translate(30.000000, 31.040000)">
                            <mask id="mask-24" fill="white">
                                <use xlink:href="#path-23"></use>
                            </mask>
                            <g id="Clip-54"></g>
                            <path d="M1.4034,0.2891 C1.0284,0.6381 0.6134,1.0051 0.1624,1.3891 C1.7354,3.1451 2.6434,5.7201 3.1654,7.9941 C3.9244,8.2061 4.7284,8.3931 5.5794,8.5501 C8.9044,9.1661 11.3244,9.6981 13.0404,10.1561 L13.0404,9.1421 C10.3324,6.1441 6.1054,2.1611 1.4034,0.2891" id="Fill-53" fill="#E6E6E6" mask="url(#mask-24)"></path>
                        </g>
                        <g transform="translate(33.000000, 38.040000)">
                            <mask id="mask-26" fill="white">
                                <use xlink:href="#path-25"></use>
                            </mask>
                            <g id="Clip-56"></g>
                            <path d="M2.5791,1.5503 C1.7281,1.3923 0.9251,1.2053 0.1651,0.9933 C0.7451,3.5263 0.8481,5.6803 0.8571,5.9043 L9.1901,5.9043 C9.4621,5.8853 9.7481,5.8623 10.0401,5.8363 L10.0401,3.1563 C8.3241,2.6973 5.9041,2.1663 2.5791,1.5503" id="Fill-55" fill="#E6E6E6" mask="url(#mask-26)"></path>
                        </g>
                        <path d="M30.1622,32.4292 C30.6132,32.0452 31.0282,31.6782 31.4032,31.3292 C29.9122,30.7352 28.3742,30.3562 26.8202,30.2862 C26.7432,30.3242 26.6642,30.3642 26.5862,30.4032 C28.0542,30.6282 29.2252,31.3832 30.1622,32.4292" id="Fill-57" fill="#E6E6E6"></path>
                        <path d="M16.1495,34.6684 C16.1315,34.6474 16.1135,34.6264 16.0955,34.6054 C16.0045,34.6624 15.9165,34.7194 15.8265,34.7754 C15.8415,34.7954 15.8565,34.8144 15.8725,34.8344 C15.9635,34.7794 16.0565,34.7244 16.1495,34.6684" id="Fill-59" fill="#E6E6E6"></path>
                        <path d="M15.8262,34.7759 C15.3262,35.0939 14.8472,35.4019 14.3892,35.7019 C14.8782,35.4219 15.3732,35.1319 15.8722,34.8349 C15.8562,34.8149 15.8422,34.7959 15.8262,34.7759" id="Fill-61" fill="#E6E6E6"></path>
                        <path d="M19.8877,32.3071 C20.1987,32.1271 20.5177,31.9441 20.8427,31.7581 C20.5327,31.9261 20.2147,32.1061 19.8877,32.3071" id="Fill-63" fill="#F2F2F2"></path>
                        <g transform="translate(0.000000, 37.040000)">
                            <mask id="mask-28" fill="white">
                                <use xlink:href="#path-27"></use>
                            </mask>
                            <g id="Clip-66"></g>
                            <path d="M11.0957,0.4536 C6.7567,2.6966 2.9307,4.2156 -0.0003,5.2156 L-0.0003,6.2846 C4.8057,4.9556 7.5297,3.2286 11.2427,0.7496 C11.1927,0.6516 11.1437,0.5526 11.0957,0.4536" id="Fill-65" fill="#F2F2F2" mask="url(#mask-28)"></path>
                        </g>
                        <path d="M11.0957,37.4936 C11.1437,37.5926 11.1927,37.6916 11.2427,37.7896 C12.2067,37.1466 13.2377,36.4516 14.3887,35.7016 C13.2637,36.3446 12.1637,36.9416 11.0957,37.4936" id="Fill-67" fill="#F2F2F2"></path>
                        <path d="M22.3477,32.5933 C23.7447,31.7993 25.1267,31.0523 26.4517,30.3863 C25.0207,30.1993 23.3127,30.5103 21.2767,31.5313 C21.6187,31.8763 21.9747,32.2323 22.3477,32.5933" id="Fill-69" fill="#F2F2F2"></path>
                        <g transform="translate(28.000000, 43.040000)">
                            <mask id="mask-30" fill="white">
                                <use xlink:href="#path-29"></use>
                            </mask>
                            <g id="Clip-72"></g>
                            <path d="M5.8575,0.9043 L0.9755,0.9043 C0.9895,0.9083 1.0005,0.9123 1.0095,0.9153 C1.0385,0.9183 1.0665,0.9223 1.0935,0.9253 L5.8585,0.9253 C5.8585,0.9253 5.8575,0.9173 5.8575,0.9043" id="Fill-71" fill="#F2F2F2" mask="url(#mask-30)"></path>
                        </g>
                        <path d="M17.7832,33.6601 C18.0232,34.0491 18.2652,34.4491 18.5122,34.8551 C19.7812,34.0811 21.0702,33.3181 22.3472,32.5931 C21.9742,32.2321 21.6192,31.8761 21.2762,31.5311 C21.1342,31.6031 20.9892,31.6801 20.8432,31.7581 C20.5172,31.9441 20.1982,32.1271 19.8872,32.3071 C19.6922,32.4281 19.4952,32.5531 19.2942,32.6851 C18.7872,33.0191 18.2832,33.3441 17.7832,33.6601" id="Fill-73" fill="#F2F2F2"></path>
                        <path d="M18.5127,34.855 C18.2657,34.449 18.0237,34.049 17.7837,33.66 C17.2347,34.007 16.6897,34.343 16.1497,34.668 C16.4627,35.035 16.7787,35.388 17.0937,35.729 C17.5627,35.437 18.0357,35.146 18.5127,34.855" id="Fill-75" fill="#F2F2F2"></path>
                        <g transform="translate(0.000000, 43.040000)">
                            <mask id="mask-32" fill="white">
                                <use xlink:href="#path-31"></use>
                            </mask>
                            <g id="Clip-78"></g>
                            <path d="M14.6915,0.9043 L14.3895,0.9043 L4.7895,0.9043 C4.7895,0.9043 4.7985,0.8973 4.8125,0.8873 L0.0005,0.8793 L0.0005,0.9253 L16.8905,0.9253 C16.8795,0.9193 16.8695,0.9133 16.8585,0.9073 L14.6915,0.9043 Z" id="Fill-77" fill="#F2F2F2" mask="url(#mask-32)"></path>
                        </g>
                        <g transform="translate(28.000000, 43.040000)">
                            <mask id="mask-34" fill="white">
                                <use xlink:href="#path-33"></use>
                            </mask>
                            <g id="Clip-80"></g>
                            <path d="M1.0401,0.9248 L1.0941,0.9248 C1.0661,0.9218 1.0381,0.9188 1.0101,0.9148 C1.0291,0.9218 1.0401,0.9248 1.0401,0.9248" id="Fill-79" fill="#F2F2F2" mask="url(#mask-34)"></path>
                        </g>
                        <path d="M22.4034,32.647 C23.8604,31.818 25.2744,31.054 26.5864,30.403 C26.5424,30.396 26.4964,30.392 26.4524,30.386 C25.1274,31.052 23.7454,31.799 22.3474,32.593 C22.3664,32.611 22.3844,32.629 22.4034,32.647" id="Fill-81" fill="#F2F2F2"></path>
                        <path d="M33.1651,39.0337 C32.6441,36.7607 31.7351,34.1847 30.1621,32.4297 C28.9701,33.4457 27.5441,34.5677 26.0451,35.7007 C27.9271,37.0157 30.2221,38.2127 33.1651,39.0337" id="Fill-83" fill="#F2F2F2"></path>
                        <path d="M21.3565,39.1318 C21.7305,39.6088 22.1225,40.0688 22.5385,40.5048 C25.8915,42.8678 28.5385,43.7988 28.9755,43.9438 L33.8575,43.9438 C33.8475,43.7198 33.7455,41.5658 33.1655,39.0338 C30.2215,38.2128 27.9265,37.0158 26.0445,35.7008 C24.5025,36.8678 22.8825,38.0448 21.3565,39.1318" id="Fill-85" fill="#F2F2F2"></path>
                        <path d="M18.5127,34.855 C18.5257,34.876 18.5387,34.898 18.5517,34.92 C19.8407,34.135 21.1377,33.367 22.4037,32.647 C22.3847,32.629 22.3667,32.611 22.3477,32.593 C21.0707,33.318 19.7817,34.082 18.5127,34.855" id="Fill-87" fill="#F2F2F2"></path>
                        <path d="M17.1446,35.7842 C17.6116,35.4952 18.0816,35.2062 18.5516,34.9202 C18.5396,34.8982 18.5256,34.8762 18.5126,34.8552 C18.0366,35.1452 17.5626,35.4372 17.0936,35.7292 C17.1106,35.7472 17.1276,35.7662 17.1446,35.7842" id="Fill-89" fill="#F2F2F2"></path>
                        <path d="M22.5381,40.5049 C22.1221,40.0689 21.7301,39.6089 21.3561,39.1319 C21.2441,39.2119 21.1321,39.2909 21.0201,39.3699 C21.5381,39.7809 22.0461,40.1579 22.5381,40.5049" id="Fill-91" fill="#F2F2F2"></path>
                        <g transform="translate(14.000000, 43.040000)">
                            <mask id="mask-36" fill="white">
                                <use xlink:href="#path-35"></use>
                            </mask>
                            <g id="Clip-94"></g>
                            <polygon id="Fill-93" fill="#F2F2F2" mask="url(#mask-36)" points="0.3897 0.9043 0.6917 0.9043 0.3907 0.9043"></polygon>
                        </g>
                        <g transform="translate(4.000000, 43.040000)">
                            <mask id="mask-38" fill="white">
                                <use xlink:href="#path-37"></use>
                            </mask>
                            <g id="Clip-96"></g>
                            <path d="M0.8125,0.8877 C0.7985,0.8977 0.7895,0.9047 0.7895,0.9047 L10.3895,0.9047 L9.3975,0.9017 L0.8125,0.8877 Z" id="Fill-95" fill="#F2F2F2" mask="url(#mask-38)"></path>
                        </g>
                        <path d="M26.586,30.4028 C25.274,31.0538 23.86,31.8178 22.403,32.6468 C23.45,33.6598 24.631,34.7138 26.045,35.7008 C27.544,34.5678 28.97,33.4448 30.162,32.4288 C29.226,31.3828 28.054,30.6288 26.586,30.4028" id="Fill-97" fill="#F2F2F2"></path>
                        <path d="M21.3565,39.1318 C22.8825,38.0448 24.5025,36.8678 26.0445,35.7008 C24.6305,34.7138 23.4505,33.6598 22.4035,32.6468 C21.1375,33.3668 19.8405,34.1348 18.5515,34.9198 C19.4025,36.3198 20.3055,37.7898 21.3565,39.1318" id="Fill-99" fill="#F2F2F2"></path>
                        <g transform="translate(13.000000, 43.040000)">
                            <mask id="mask-40" fill="white">
                                <use xlink:href="#path-39"></use>
                            </mask>
                            <g id="Clip-102"></g>
                            <polygon id="Fill-101" fill="#F2F2F2" mask="url(#mask-40)" points="0.3975 0.9019 1.3895 0.9039 1.3905 0.9039"></polygon>
                        </g>
                        <path d="M17.1446,35.7842 C18.4536,37.1922 19.7676,38.3772 21.0206,39.3702 C21.1316,39.2912 21.2446,39.2122 21.3566,39.1322 C20.3056,37.7892 19.4026,36.3202 18.5516,34.9202 C18.0816,35.2062 17.6116,35.4952 17.1446,35.7842" id="Fill-103" fill="#F2F2F2"></path>
                        <g transform="translate(14.000000, 43.040000)">
                            <mask id="mask-42" fill="white">
                                <use xlink:href="#path-41"></use>
                            </mask>
                            <g id="Clip-106"></g>
                            <path d="M2.8584,0.9077 C2.8564,0.9067 2.8544,0.9057 2.8514,0.9047 L0.6914,0.9047 L2.8584,0.9077 Z" id="Fill-105" fill="#F2F2F2" mask="url(#mask-42)"></path>
                        </g>
                        <path d="M4.7891,43.9233 C4.7891,43.9233 5.2571,43.5953 6.0691,43.0373 C7.3251,42.1553 9.4171,40.7083 11.9381,39.0403 C11.6911,38.6313 11.4591,38.2133 11.2431,37.7893 C7.5291,40.2693 4.8061,41.9963 0.0001,43.3243 L0.0001,43.9193 L4.8121,43.9273 C4.8131,43.9263 4.8161,43.9243 4.8181,43.9233 L4.7891,43.9233 Z" id="Fill-107" fill="#F2F2F2"></path>
                        <g transform="translate(14.000000, 43.040000)">
                            <mask id="mask-44" fill="white">
                                <use xlink:href="#path-43"></use>
                            </mask>
                            <g id="Clip-110"></g>
                            <path d="M0.3907,0.9038 L0.6917,0.9038 L2.8517,0.9038 C2.4047,0.6778 1.9767,0.4108 1.5667,0.1118 C0.8307,0.6098 0.3947,0.9008 0.3907,0.9038" id="Fill-109" fill="#F2F2F2" mask="url(#mask-44)"></path>
                        </g>
                        <path d="M11.9385,39.0405 C9.4175,40.7075 7.3255,42.1555 6.0695,43.0375 C7.3365,42.1655 9.4515,40.7305 11.9665,39.0855 C11.9575,39.0705 11.9485,39.0555 11.9385,39.0405" id="Fill-111" fill="#F2F2F2"></path>
                        <g transform="translate(4.000000, 43.040000)">
                            <mask id="mask-46" fill="white">
                                <use xlink:href="#path-45"></use>
                            </mask>
                            <g id="Clip-114"></g>
                            <path d="M0.8184,0.8833 C0.8164,0.8843 0.8134,0.8863 0.8124,0.8873 L9.3974,0.9023 L0.8184,0.8833 Z" id="Fill-113" fill="#F2F2F2" mask="url(#mask-46)"></path>
                        </g>
                        <path d="M4.7891,43.9233 L4.8181,43.9233 C4.9261,43.8453 5.3661,43.5303 6.0691,43.0373 C5.2571,43.5953 4.7891,43.9233 4.7891,43.9233" id="Fill-115" fill="#F2F2F2"></path>
                        <path d="M11.9668,39.0859 C9.4508,40.7309 7.3368,42.1659 6.0698,43.0379 C5.3658,43.5309 4.9258,43.8459 4.8188,43.9229 L13.3978,43.9419 L14.3908,43.9439 C14.3948,43.9409 14.8308,43.6499 15.5668,43.1519 C14.1368,42.1119 12.9338,40.6729 11.9668,39.0859" id="Fill-117" fill="#F2F2F2"></path>
                        <g transform="translate(28.000000, 43.040000)">
                            <mask id="mask-48" fill="white">
                                <use xlink:href="#path-47"></use>
                            </mask>
                            <g id="Clip-120"></g>
                            <path d="M1.0098,0.9151 C0.9998,0.9121 0.9888,0.9091 0.9758,0.9041 L0.9148,0.9041 C0.9468,0.9081 0.9788,0.9111 1.0098,0.9151" id="Fill-119" fill="#F2F2F2" mask="url(#mask-48)"></path>
                        </g>
                        <g transform="translate(16.000000, 43.040000)">
                            <mask id="mask-50" fill="white">
                                <use xlink:href="#path-49"></use>
                            </mask>
                            <g id="Clip-122"></g>
                            <path d="M0.8907,0.9248 L11.1977,0.9248 L0.8587,0.9078 C0.8697,0.9128 0.8797,0.9198 0.8907,0.9248" id="Fill-121" fill="#F2F2F2" mask="url(#mask-50)"></path>
                        </g>
                        <g transform="translate(27.000000, 43.040000)">
                            <mask id="mask-52" fill="white">
                                <use xlink:href="#path-51"></use>
                            </mask>
                            <g id="Clip-124"></g>
                            <path d="M1.9151,0.9043 L0.1441,0.9043 C0.1761,0.9163 0.1971,0.9253 0.1971,0.9253 L2.0401,0.9253 C2.0401,0.9253 2.0291,0.9213 2.0101,0.9153 C1.9781,0.9113 1.9461,0.9083 1.9151,0.9043" id="Fill-123" fill="#F2F2F2" mask="url(#mask-52)"></path>
                        </g>
                        <path d="M16.7588,35.938 C16.8698,35.868 16.9818,35.799 17.0938,35.729 C16.7788,35.388 16.4628,35.035 16.1498,34.668 C16.0568,34.724 15.9638,34.779 15.8718,34.834 C16.1648,35.216 16.4608,35.584 16.7588,35.938" id="Fill-125" fill="#F2F2F2"></path>
                        <path d="M28.9151,43.9443 L28.9761,43.9443 C28.5381,43.7993 25.8921,42.8673 22.5381,40.5053 C24.2011,42.2493 26.2351,43.5873 28.9151,43.9443" id="Fill-127" fill="#F2F2F2"></path>
                        <path d="M16.7588,35.938 C16.7748,35.957 16.7898,35.977 16.8058,35.995 C16.9188,35.925 17.0308,35.855 17.1448,35.784 C17.1278,35.766 17.1108,35.747 17.0938,35.729 C16.9818,35.799 16.8698,35.868 16.7588,35.938" id="Fill-129" fill="#F2F2F2"></path>
                        <path d="M22.5381,40.5049 C22.0461,40.1579 21.5381,39.7809 21.0201,39.3699 C20.8531,39.4889 20.6871,39.6059 20.5231,39.7219 C23.8951,42.5849 26.7471,43.7849 27.1441,43.9439 L28.9151,43.9439 C26.2351,43.5879 24.2011,42.2499 22.5381,40.5049" id="Fill-131" fill="#F2F2F2"></path>
                        <path d="M17.1446,35.7842 C17.0316,35.8542 16.9186,35.9252 16.8056,35.9952 C18.0516,37.4692 19.3206,38.7002 20.5236,39.7222 C20.6876,39.6062 20.8536,39.4892 21.0206,39.3702 C19.7676,38.3772 18.4536,37.1922 17.1446,35.7842" id="Fill-133" fill="#F2F2F2"></path>
                        <g transform="translate(16.000000, 43.040000)">
                            <mask id="mask-54" fill="white">
                                <use xlink:href="#path-53"></use>
                            </mask>
                            <g id="Clip-136"></g>
                            <path d="M0.8516,0.9043 C0.8546,0.9053 0.8566,0.9063 0.8586,0.9073 L11.1976,0.9253 C11.1976,0.9253 11.1756,0.9163 11.1446,0.9043 L0.8516,0.9043 Z" id="Fill-135" fill="#F2F2F2" mask="url(#mask-54)"></path>
                        </g>
                        <path d="M15.8721,34.8345 C15.3731,35.1325 14.8781,35.4215 14.3891,35.7015 C13.2371,36.4525 12.2071,37.1465 11.2431,37.7895 C11.4591,38.2135 11.6911,38.6315 11.9381,39.0405 C13.4241,38.0585 15.0581,37.0015 16.7591,35.9385 C16.4611,35.5845 16.1651,35.2155 15.8721,34.8345" id="Fill-137" fill="#F2F2F2"></path>
                        <path d="M16.8057,35.9951 C16.7897,35.9761 16.7747,35.9561 16.7587,35.9381 C15.0577,37.0011 13.4237,38.0581 11.9387,39.0401 C11.9487,39.0561 11.9567,39.0711 11.9667,39.0861 C13.4687,38.1041 15.1137,37.0491 16.8057,35.9951" id="Fill-139" fill="#F2F2F2"></path>
                        <path d="M15.5665,43.1523 C15.9765,43.4503 16.4045,43.7173 16.8515,43.9443 L27.1445,43.9443 C26.7475,43.7853 23.8955,42.5843 20.5235,39.7223 C18.4805,41.1653 16.6795,42.3983 15.5665,43.1523" id="Fill-141" fill="#F2F2F2"></path>
                        <path d="M16.8057,35.9951 C15.1137,37.0491 13.4687,38.1041 11.9667,39.0861 C12.9337,40.6731 14.1367,42.1121 15.5667,43.1521 C16.6797,42.3981 18.4807,41.1651 20.5237,39.7221 C19.3207,38.7001 18.0517,37.4691 16.8057,35.9951" id="Fill-143" fill="#F2F2F2"></path>
                    </g>
                </g>
            </g>
        </g>
    </g>
</svg>