<?xml version="1.0" encoding="UTF-8"?>
<svg width="17px" height="20px" viewBox="0 0 17 20" version="1.1" xmlns="http://www.w3.org/2000/svg" xmlns:xlink="http://www.w3.org/1999/xlink">
    <!-- Generator: Sketch 52.2 (67145) - http://www.bohemiancoding.com/sketch -->
    <title>分组</title>
    <desc>Created with Sketch.</desc>
    <g id="小程序" stroke="none" stroke-width="1" fill="none" fill-rule="evenodd">
        <g id="我的" transform="translate(-309.000000, -626.000000)">
            <g id="分组-3" transform="translate(0.000000, 605.000000)">
                <g id="分组-9" transform="translate(43.000000, 16.000000)">
                    <g id="分组" transform="translate(259.000000, 0.000000)">
                        <polygon id="Fill-1" points="0 30 30 30 30 0 0 0"></polygon>
                        <path d="M18.75,10.6246875 C18.75,8.8753125 17.375625,7.4990625 15.624375,7.4990625 C13.875,7.4990625 12.500625,8.8753125 12.500625,10.6246875 C12.500625,12.3759375 13.875,13.7503125 15.624375,13.7503125 C17.375625,13.7503125 18.75,12.3759375 18.75,10.6246875 Z M21.249375,10.6246875 C21.249375,13.7503125 18.75,16.2496875 15.624375,16.2496875 C12.500625,16.2496875 9.999375,13.7503125 9.999375,10.6246875 C9.999375,7.4990625 12.500625,4.9996875 15.624375,4.9996875 C18.75,4.9996875 21.249375,7.4990625 21.249375,10.6246875 Z M23.750625,19.9996875 L23.750625,25.0003125 L7.5,25.0003125 L7.5,19.9996875 L7.625625,19.9996875 L10.125,17.5003125 L21.125625,17.5003125 L23.750625,19.9996875 Z M21.249375,21.1246875 L20.124375,19.9996875 L11.124375,19.9996875 L9.999375,21.1246875 L9.999375,22.4990625 L21.249375,22.4990625 L21.249375,21.1246875 Z" id="Fill-2" fill="#2A2A2A"></path>
                    </g>
                </g>
            </g>
        </g>
    </g>
</svg>