<?xml version="1.0" encoding="UTF-8"?>
<svg width="22px" height="22px" viewBox="0 0 22 22" version="1.1" xmlns="http://www.w3.org/2000/svg" xmlns:xlink="http://www.w3.org/1999/xlink">
    <!-- Generator: Sketch 52.5 (67469) - http://www.bohemiancoding.com/sketch -->
    <title>分组@2x</title>
    <desc>Created with Sketch.</desc>
    <g id="小程序（精简版）" stroke="none" stroke-width="1" fill="none" fill-rule="evenodd">
        <g id="我的" transform="translate(-65.000000, -379.000000)">
            <g id="矩形-2" transform="translate(20.000000, 365.000000)">
                <g id="分组-5">
                    <g id="分组" transform="translate(45.000000, 14.000000)">
                        <polygon id="Fill-1" fill="#FFFFFF" points="0 22 22 22 22 0 0 0"></polygon>
                        <g transform="translate(2.750000, 2.750000)" fill="#FFC86D">
                            <path d="M8.25,1.5382125 C4.549875,1.5382125 1.538625,4.5494625 1.538625,8.2495875 C1.538625,11.9510875 4.549875,14.9623375 8.25,14.9623375 C11.950125,14.9623375 14.96275,11.9510875 14.96275,8.2495875 C14.96275,4.5494625 11.950125,1.5382125 8.25,1.5382125 M8.25,16.3373375 C3.790875,16.3373375 0.163625,12.7100875 0.163625,8.2495875 C0.163625,3.7904625 3.790875,0.1632125 8.25,0.1632125 C12.709125,0.1632125 16.33775,3.7904625 16.33775,8.2495875 C16.33775,12.7100875 12.709125,16.3373375 8.25,16.3373375" id="Fill-2"></path>
                            <path d="M8.22855,8.9375 L5.47855,8.9375 C5.09905,8.9375 4.79105,8.6295 4.79105,8.25 C4.79105,7.8705 5.09905,7.5625 5.47855,7.5625 L7.54105,7.5625 L7.54105,4.5485 C7.54105,4.169 7.84905,3.861 8.22855,3.861 C8.60805,3.861 8.91605,4.169 8.91605,4.5485 L8.91605,8.25 C8.91605,8.6295 8.60805,8.9375 8.22855,8.9375" id="Fill-4"></path>
                        </g>
                    </g>
                </g>
            </g>
        </g>
    </g>
</svg>