<?xml version="1.0" encoding="UTF-8"?>
<svg width="14px" height="18px" viewBox="0 0 14 18" version="1.1" xmlns="http://www.w3.org/2000/svg" xmlns:xlink="http://www.w3.org/1999/xlink">
    <!-- Generator: Sketch 52.5 (67469) - http://www.bohemiancoding.com/sketch -->
    <title>分组@2x</title>
    <desc>Created with Sketch.</desc>
    <g id="小程序（精简版）" stroke="none" stroke-width="1" fill="none" fill-rule="evenodd">
        <g id="我的" transform="translate(-76.000000, -373.000000)" fill="#FFC86D">
            <g id="矩形-2" transform="translate(30.000000, 357.000000)">
                <g id="分组-5">
                    <g id="分组" transform="translate(42.000000, 14.000000)">
                        <g transform="translate(4.125000, 1.375000)">
                            <path d="M9.625,18.3013875 L4.125,18.3013875 C3.510375,18.3013875 3.01125,17.8022625 3.01125,17.1876375 C3.01125,16.5730125 3.510375,16.0738875 4.125,16.0738875 L9.625,16.0738875 C10.239625,16.0738875 10.73875,16.5730125 10.73875,17.1876375 C10.73875,17.8022625 10.239625,18.3013875 9.625,18.3013875" id="Fill-2"></path>
                            <path d="M5.2382,13.3236125 L8.512075,13.3236125 L8.512075,12.2992375 C8.512075,11.9032375 8.72245,11.5361125 9.064825,11.3367375 C10.439825,10.5364875 11.262075,9.1257375 11.262075,7.5623625 C11.262075,5.1437375 9.293075,3.1761125 6.87445,3.1761125 C4.4572,3.1761125 2.4882,5.1437375 2.4882,7.5623625 C2.4882,9.1257375 3.31045,10.5364875 4.68545,11.3367375 C5.027825,11.5361125 5.2382,11.9032375 5.2382,12.2992375 L5.2382,13.3236125 Z M9.62445,15.5511125 L4.12445,15.5511125 C3.509825,15.5511125 3.012075,15.0519875 3.012075,14.4373625 L3.012075,12.9014875 C1.3002,11.6639875 0.262075,9.6729875 0.262075,7.5623625 C0.262075,3.9158625 3.22795,0.9486125 6.87445,0.9486125 C10.522325,0.9486125 13.4882,3.9158625 13.4882,7.5623625 C13.4882,9.6729875 12.450075,11.6639875 10.7382,12.9014875 L10.7382,14.4373625 C10.7382,15.0519875 10.24045,15.5511125 9.62445,15.5511125 Z" id="Fill-4"></path>
                        </g>
                    </g>
                </g>
            </g>
        </g>
    </g>
</svg>