<?xml version="1.0" encoding="UTF-8"?>
<svg width="22px" height="22px" viewBox="0 0 22 22" version="1.1" xmlns="http://www.w3.org/2000/svg" xmlns:xlink="http://www.w3.org/1999/xlink">
    <!-- Generator: Sketch 52.5 (67469) - http://www.bohemiancoding.com/sketch -->
    <title>分组@2x</title>
    <desc>Created with Sketch.</desc>
    <g id="小程序（精简版）" stroke="none" stroke-width="1" fill="none" fill-rule="evenodd">
        <g id="我的" transform="translate(-72.000000, -355.000000)">
            <g id="矩形-2" transform="translate(30.000000, 341.000000)">
                <g id="分组-5">
                    <g id="分组" transform="translate(42.000000, 14.000000)">
                        <polygon id="Fill-1" fill="#FFFFFF" points="0 22 22 22 22 0 0 0"></polygon>
                        <g transform="translate(1.375000, 1.375000)" fill="#FFC86D">
                            <path d="M9.625,3.3389125 C6.158625,3.3389125 3.339875,6.1590375 3.339875,9.6240375 C3.339875,13.0904125 6.158625,15.9119125 9.625,15.9119125 C13.091375,15.9119125 15.910125,13.0904125 15.910125,9.6240375 C15.910125,6.1590375 13.091375,3.3389125 9.625,3.3389125 M9.625,18.1380375 C4.93075,18.1380375 1.112375,14.3182875 1.112375,9.6240375 C1.112375,4.9297875 4.93075,1.1127875 9.625,1.1127875 C14.31925,1.1127875 18.137625,4.9297875 18.137625,9.6240375 C18.137625,14.3182875 14.31925,18.1380375 9.625,18.1380375" id="Fill-2"></path>
                            <path d="M9.6028625,10.73765 L6.8528625,10.73765 C6.2382375,10.73765 5.7391125,10.2399 5.7391125,9.6239 C5.7391125,9.009275 6.2382375,8.511525 6.8528625,8.511525 L8.4891125,8.511525 L8.4891125,5.923775 C8.4891125,5.30915 8.9882375,4.810025 9.6028625,4.810025 C10.2174875,4.810025 10.7166125,5.30915 10.7166125,5.923775 L10.7166125,9.6239 C10.7166125,10.2399 10.2174875,10.73765 9.6028625,10.73765" id="Fill-4"></path>
                        </g>
                    </g>
                </g>
            </g>
        </g>
    </g>
</svg>