<?xml version="1.0" encoding="UTF-8"?>
<svg width="30px" height="30px" viewBox="0 0 30 30" version="1.1" xmlns="http://www.w3.org/2000/svg" xmlns:xlink="http://www.w3.org/1999/xlink">
    <!-- Generator: Sketch 52.5 (67469) - http://www.bohemiancoding.com/sketch -->
    <title>分组@2x</title>
    <desc>Created with Sketch.</desc>
    <g id="小程序（精简版）" stroke="none" stroke-width="1" fill="none" fill-rule="evenodd">
        <g id="我的" transform="translate(-301.000000, -621.000000)">
            <g id="分组-3" transform="translate(0.000000, 605.000000)">
                <g id="分组-9" transform="translate(40.000000, 16.000000)">
                    <g id="分组-8">
                        <g id="分组" transform="translate(261.000000, 0.000000)">
                            <polygon id="Fill-1" fill="#FFFFFF" points="0 30 30 30 30 0 0 0"></polygon>
                            <g transform="translate(6.625000, 2.875000)" fill="#4D495B">
                                <path d="M8.375375,3.6220625 C6.110375,3.6220625 4.269125,5.4633125 4.269125,7.7283125 C4.269125,9.9933125 6.110375,11.8364375 8.375375,11.8364375 C10.640375,11.8364375 12.481625,9.9933125 12.481625,7.7283125 C12.481625,5.4633125 10.640375,3.6220625 8.375375,3.6220625 M8.375375,14.8720625 C4.436,14.8720625 1.231625,11.6676875 1.231625,7.7283125 C1.231625,3.7908125 4.436,0.5864375 8.375375,0.5864375 C12.31475,0.5864375 15.519125,3.7908125 15.519125,7.7283125 C15.519125,11.6676875 12.31475,14.8720625 8.375375,14.8720625" id="Fill-2"></path>
                                <path d="M15.0036875,23.6628125 C14.6136875,23.6628125 14.2255625,23.5146875 13.9293125,23.2203125 L10.3611875,19.6503125 C9.2999375,18.5890625 7.4493125,18.5890625 6.3880625,19.6503125 L2.8199375,23.2203125 C2.2274375,23.8090625 1.2655625,23.8090625 0.6711875,23.2203125 C0.0786875,22.6259375 0.0786875,21.6640625 0.6711875,21.0715625 L4.2411875,17.5034375 C6.5211875,15.2196875 10.2299375,15.2215625 12.5080625,17.5034375 L16.0780625,21.0715625 C16.6705625,21.6640625 16.6705625,22.6259375 16.0780625,23.2203125 C15.7818125,23.5146875 15.3936875,23.6628125 15.0036875,23.6628125" id="Fill-4"></path>
                            </g>
                        </g>
                    </g>
                </g>
            </g>
        </g>
    </g>
</svg>