<?xml version="1.0" encoding="UTF-8"?>
<svg width="30px" height="30px" viewBox="0 0 30 30" version="1.1" xmlns="http://www.w3.org/2000/svg" xmlns:xlink="http://www.w3.org/1999/xlink">
    <!-- Generator: Sketch 52.2 (67145) - http://www.bohemiancoding.com/sketch -->
    <title>分组</title>
    <desc>Created with Sketch.</desc>
    <g id="小程序（精简版）" stroke="none" stroke-width="1" fill="none" fill-rule="evenodd">
        <g id="我的" transform="translate(-301.000000, -621.000000)">
            <g id="分组-3" transform="translate(0.000000, 605.000000)">
                <g id="分组-9" transform="translate(40.000000, 16.000000)">
                    <g id="分组-8">
                        <g id="分组" transform="translate(261.000000, 0.000000)">
                            <polygon id="Fill-1" fill="#FFFFFF" points="0 30 30 30 30 0 0 0"></polygon>
                            <g transform="translate(6.625000, 2.875000)" fill="#FFC86D">
                                <path d="M8.3755625,14.87225 C12.3149375,14.87225 15.5193125,11.667875 15.5193125,7.730375 C15.5193125,3.791 12.3149375,0.586625 8.3755625,0.586625 C4.4361875,0.586625 1.2318125,3.791 1.2318125,7.730375 C1.2318125,11.667875 4.4361875,14.87225 8.3755625,14.87225" id="Fill-2"></path>
                                <path d="M16.07825,21.0725 L12.510125,17.5025 C10.230125,15.2225 6.5195,15.220625 4.241375,17.504375 L0.671375,21.0725 C0.078875,21.663125 0.078875,22.626875 0.671375,23.22125 C1.26575,23.81 2.22575,23.81 2.820125,23.22125 L6.38825,19.65125 C7.48325,18.55625 9.266375,18.55625 10.361375,19.65125 L13.9295,23.22125 C14.227625,23.515625 14.61575,23.66375 15.003875,23.66375 C15.393875,23.66375 15.782,23.515625 16.07825,23.22125 C16.67075,22.626875 16.67075,21.663125 16.07825,21.0725" id="Fill-4"></path>
                            </g>
                        </g>
                    </g>
                </g>
            </g>
        </g>
    </g>
</svg>