<?xml version="1.0" encoding="UTF-8"?>
<svg width="30px" height="30px" viewBox="0 0 30 30" version="1.1" xmlns="http://www.w3.org/2000/svg" xmlns:xlink="http://www.w3.org/1999/xlink">
    <!-- Generator: Sketch 52.5 (67469) - http://www.bohemiancoding.com/sketch -->
    <title>分组@2x</title>
    <desc>Created with Sketch.</desc>
    <g id="小程序（精简版）" stroke="none" stroke-width="1" fill="none" fill-rule="evenodd">
        <g id="首页" transform="translate(-303.000000, -621.000000)">
            <g id="分组-3" transform="translate(0.000000, 605.000000)">
                <g id="分组-9" transform="translate(42.000000, 16.000000)">
                    <g id="分组-8">
                        <g id="分组" transform="translate(261.000000, 0.000000)">
                            <polygon id="Fill-1" fill="#FFFFFF" points="0 30 30 30 30 0 0 0"></polygon>
                            <g transform="translate(4.625000, 3.750000)" fill="#4D495B">
                                <path d="M10.375,2.2265625 C7.79125,2.2265625 5.6875,4.3303125 5.6875,6.9140625 C5.6875,9.4978125 7.79125,11.6015625 10.375,11.6015625 C12.95875,11.6015625 15.0625,9.4978125 15.0625,6.9140625 C15.0625,4.3303125 12.95875,2.2265625 10.375,2.2265625 M10.375,13.4765625 C6.75625,13.4765625 3.8125,10.5328125 3.8125,6.9140625 C3.8125,3.2953125 6.75625,0.3515625 10.375,0.3515625 C13.99375,0.3515625 16.9375,3.2953125 16.9375,6.9140625 C16.9375,10.5328125 13.99375,13.4765625 10.375,13.4765625" id="Fill-2"></path>
                                <path d="M5.2294375,16.5234375 C3.9300625,16.5234375 2.8744375,17.5790625 2.8744375,18.8765625 L2.8744375,20.3765625 L17.8744375,20.2734375 L17.8744375,18.8765625 C17.8744375,17.5790625 16.8188125,16.5234375 15.5213125,16.5234375 L5.2294375,16.5234375 Z M17.9775625,22.1484375 L2.7731875,22.1484375 C1.7944375,22.1484375 0.9994375,21.3534375 0.9994375,20.3765625 L0.9994375,18.8765625 C0.9994375,16.5459375 2.8969375,14.6484375 5.2294375,14.6484375 L15.5213125,14.6484375 C17.8538125,14.6484375 19.7494375,16.5459375 19.7494375,18.8765625 L19.7494375,20.3765625 C19.7494375,21.3534375 18.9544375,22.1484375 17.9775625,22.1484375 Z" id="Fill-4"></path>
                            </g>
                        </g>
                    </g>
                </g>
            </g>
        </g>
    </g>
</svg>