<?xml version="1.0" encoding="UTF-8"?>
<svg width="30px" height="30px" viewBox="0 0 30 30" version="1.1" xmlns="http://www.w3.org/2000/svg" xmlns:xlink="http://www.w3.org/1999/xlink">
    <!-- Generator: Sketch 52.5 (67469) - http://www.bohemiancoding.com/sketch -->
    <title>分组@2x</title>
    <desc>Created with Sketch.</desc>
    <g id="小程序（精简版）" stroke="none" stroke-width="1" fill="none" fill-rule="evenodd">
        <g id="我的" transform="translate(-303.000000, -621.000000)">
            <g id="分组-3" transform="translate(0.000000, 605.000000)">
                <g id="分组-9" transform="translate(42.000000, 5.000000)">
                    <g id="分组-8">
                        <g id="分组" transform="translate(261.000000, 11.000000)">
                            <polygon id="Fill-1" fill="#FFFFFF" points="0 30 30 30 30 0 0 0"></polygon>
                            <g transform="translate(4.625000, 3.750000)" fill="#FFC86D">
                                <path d="M10.375,13.4769375 C13.99375,13.4769375 16.9375,10.5331875 16.9375,6.9144375 C16.9375,3.2956875 13.99375,0.3519375 10.375,0.3519375 C6.75625,0.3519375 3.8125,3.2956875 3.8125,6.9144375 C3.8125,10.5331875 6.75625,13.4769375 10.375,13.4769375" id="Fill-2"></path>
                                <path d="M15.521125,14.6488125 L5.22925,14.6488125 C2.89675,14.6488125 0.99925,16.5463125 0.99925,18.8769375 L0.99925,20.3750625 C0.99925,21.3538125 1.79425,22.1488125 2.773,22.1488125 L17.977375,22.1488125 C18.956125,22.1488125 19.74925,21.3538125 19.74925,20.3750625 L19.74925,18.8769375 C19.74925,16.5463125 17.853625,14.6488125 15.521125,14.6488125" id="Fill-4"></path>
                            </g>
                        </g>
                    </g>
                </g>
            </g>
        </g>
    </g>
</svg>