<?xml version="1.0" encoding="UTF-8"?>
<svg width="373px" height="209px" viewBox="0 0 373 209" version="1.1" xmlns="http://www.w3.org/2000/svg" xmlns:xlink="http://www.w3.org/1999/xlink">
    <!-- Generator: Sketch 51 (57462) - http://www.bohemiancoding.com/sketch -->
    <title>Group 2</title>
    <desc>Created with Sketch.</desc>
    <defs>
        <linearGradient x1="0%" y1="50%" x2="100%" y2="50%" id="linearGradient-1">
            <stop stop-color="#FFFFFF" offset="0%"></stop>
            <stop stop-color="#FFFFFF" stop-opacity="0.405121026" offset="28.2333815%"></stop>
            <stop stop-color="#FFFFFF" stop-opacity="0.185378813" offset="55.0284501%"></stop>
            <stop stop-color="#FFFFFF" stop-opacity="0" offset="100%"></stop>
        </linearGradient>
    </defs>
    <g id="Page-2" stroke="none" stroke-width="1" fill="none" fill-rule="evenodd">
        <g id="iPhone-8-Copy" transform="translate(0.000000, -230.000000)">
            <g id="Group-2" transform="translate(-2.000000, 230.000000)">
                <g id="Group-81">
                    <polygon id="Fill-12" fill="#55B3C9" points="266.009009 192.699234 343.847087 192.699234 343.847087 88.4795238 266.009009 88.4795238"></polygon>
                    <polygon id="Fill-14" fill="#3795A5" points="298.526203 105.968741 337.163564 105.968741 337.163564 98.9608635 298.526203 98.9608635"></polygon>
                    <polygon id="Fill-15" fill="#3795A5" points="298.526203 125.802624 337.163564 125.802624 337.163564 118.794747 298.526203 118.794747"></polygon>
                    <polygon id="Fill-16" fill="#3795A5" points="298.526203 144.831468 337.163564 144.831468 337.163564 137.824382 298.526203 137.824382"></polygon>
                    <polygon id="Fill-17" fill="#55B3C9" points="150.69193 192.699234 206.718952 192.699234 206.718952 92.3163227 150.69193 92.3163227"></polygon>
                    <polygon id="Fill-18" fill="#3795A5" points="194.876607 109.936942 201.27687 109.936942 201.27687 96.9019582 194.876607 96.9019582"></polygon>
                    <polygon id="Fill-19" fill="#3795A5" points="182.271516 109.936942 188.671779 109.936942 188.671779 96.9019582 182.271516 96.9019582"></polygon>
                    <polygon id="Fill-20" fill="#3795A5" points="177.55974 140.04477 183.960002 140.04477 183.960002 127.009786 177.55974 127.009786"></polygon>
                    <polygon id="Fill-21" fill="#3795A5" points="164.953857 140.04477 171.35412 140.04477 171.35412 127.009786 164.953857 127.009786"></polygon>
                    <polygon id="Fill-22" fill="#3795A5" points="177.543124 168.495025 183.943386 168.495025 183.943386 155.460833 177.543124 155.460833"></polygon>
                    <polygon id="Fill-23" fill="#3795A5" points="164.937241 168.495025 171.337504 168.495025 171.337504 155.460833 164.937241 155.460833"></polygon>
                    <polygon id="Fill-24" fill="#55B3C9" points="28.7079444 192.699234 111.983358 192.699234 111.983358 106.5838 28.7079444 106.5838"></polygon>
                    <polygon id="Fill-25" fill="#3795A5" points="35.0741839 120.851277 75.5661891 120.851277 75.5661891 115.755863 35.0741839 115.755863"></polygon>
                    <polygon id="Fill-26" fill="#3795A5" points="35.0741839 134.609767 75.5661891 134.609767 75.5661891 129.514353 35.0741839 129.514353"></polygon>
                    <polygon id="Fill-27" fill="#3795A5" points="35.0741839 148.112576 75.5661891 148.112576 75.5661891 143.017161 35.0741839 143.017161"></polygon>
                    <polygon id="Fill-28" fill="#3795A5" points="35.0741839 172.826563 75.5661891 172.826563 75.5661891 167.731149 35.0741839 167.731149"></polygon>
                    <polygon id="Fill-29" fill="#55B3C9" points="37.6844529 110.024016 74.9292487 110.024016 74.9292487 93.59077 37.6844529 93.59077"></polygon>
                    <polygon id="Fill-30" fill="#55B3C9" points="81.5130766 192.699234 159.351155 192.699234 159.351155 35.5013032 81.5130766 35.5013032"></polygon>
                    <polygon id="Fill-31" fill="#3795A5" points="88.6816237 53.2216619 97.8638521 53.2216619 97.8638521 44.0361423 88.6816237 44.0361423"></polygon>
                    <polygon id="Fill-32" fill="#3795A5" points="106.76282 53.2216619 115.944257 53.2216619 115.944257 44.0361423 106.76282 44.0361423"></polygon>
                    <polygon id="Fill-33" fill="#3795A5" points="142.925213 53.2216619 152.10665 53.2216619 152.10665 44.0361423 142.925213 44.0361423"></polygon>
                    <polygon id="Fill-34" fill="#3795A5" points="106.76282 73.9864457 115.944257 73.9864457 115.944257 64.8009261 106.76282 64.8009261"></polygon>
                    <polygon id="Fill-35" fill="#3795A5" points="124.844016 73.9864457 134.026245 73.9864457 134.026245 64.8009261 124.844016 64.8009261"></polygon>
                    <polygon id="Fill-36" fill="#3795A5" points="88.6816237 94.7512295 97.8638521 94.7512295 97.8638521 85.5649183 88.6816237 85.5649183"></polygon>
                    <polygon id="Fill-37" fill="#3795A5" points="124.844016 94.7512295 134.026245 94.7512295 134.026245 85.5649183 124.844016 85.5649183"></polygon>
                    <polygon id="Fill-38" fill="#3795A5" points="88.6816237 115.515222 97.8638521 115.515222 97.8638521 106.32891 88.6816237 106.32891"></polygon>
                    <polygon id="Fill-39" fill="#3795A5" points="106.76282 115.515222 115.944257 115.515222 115.944257 106.32891 106.76282 106.32891"></polygon>
                    <polygon id="Fill-40" fill="#3795A5" points="142.925213 115.515222 152.10665 115.515222 152.10665 106.32891 142.925213 106.32891"></polygon>
                    <polygon id="Fill-41" fill="#3795A5" points="88.6816237 136.280005 97.8638521 136.280005 97.8638521 127.094486 88.6816237 127.094486"></polygon>
                    <polygon id="Fill-42" fill="#3795A5" points="106.76282 136.280005 115.944257 136.280005 115.944257 127.094486 106.76282 127.094486"></polygon>
                    <polygon id="Fill-43" fill="#3795A5" points="142.925213 136.280005 152.10665 136.280005 152.10665 127.094486 142.925213 127.094486"></polygon>
                    <polygon id="Fill-44" fill="#3795A5" points="88.6816237 157.043998 97.8638521 157.043998 97.8638521 147.858478 88.6816237 147.858478"></polygon>
                    <polygon id="Fill-45" fill="#3795A5" points="124.844016 157.043998 134.026245 157.043998 134.026245 147.858478 124.844016 147.858478"></polygon>
                    <polygon id="Fill-46" fill="#3795A5" points="142.925213 157.043998 152.10665 157.043998 152.10665 147.858478 142.925213 147.858478"></polygon>
                    <polygon id="Fill-47" fill="#3795A5" points="106.76282 177.80799 115.944257 177.80799 115.944257 168.62247 106.76282 168.62247"></polygon>
                    <polygon id="Fill-48" fill="#3795A5" points="124.844016 177.80799 134.026245 177.80799 134.026245 168.62247 124.844016 168.62247"></polygon>
                    <polygon id="Fill-49" fill="#55B3C9" points="294.970018 192.699234 294.970018 46.3626023 283.017692 46.3626023 283.017692 19.1266342 270.231409 19.1266342 270.231409 0.906787179 241.870548 0.906787179 241.870548 19.1266342 229.083474 19.1266342 229.083474 46.3626023 217.131939 46.3626023 217.131939 192.699234"></polygon>
                    <polygon id="Fill-50" fill="#3795A5" points="221.999193 66.2851427 229.384537 66.2851427 229.384537 53.5905392 221.999193 53.5905392"></polygon>
                    <polygon id="Fill-51" fill="#3795A5" points="236.705792 66.2851427 244.091136 66.2851427 244.091136 53.5905392 236.705792 53.5905392"></polygon>
                    <polygon id="Fill-52" fill="#3795A5" points="251.794555 66.2851427 259.179899 66.2851427 259.179899 53.5905392 251.794555 53.5905392"></polygon>
                    <polygon id="Fill-53" fill="#3795A5" points="237.533419 38.7681629 244.918763 38.7681629 244.918763 26.0735595 237.533419 26.0735595"></polygon>
                    <polygon id="Fill-54" fill="#3795A5" points="252.240809 38.7681629 259.626153 38.7681629 259.626153 26.0735595 252.240809 26.0735595"></polygon>
                    <polygon id="Fill-55" fill="#3795A5" points="221.999193 85.1825841 229.384537 85.1825841 229.384537 72.4879806 221.999193 72.4879806"></polygon>
                    <polygon id="Fill-56" fill="#3795A5" points="236.705792 85.1825841 244.091136 85.1825841 244.091136 72.4879806 236.705792 72.4879806"></polygon>
                    <polygon id="Fill-57" fill="#3795A5" points="251.794555 85.1825841 259.179899 85.1825841 259.179899 72.4879806 251.794555 72.4879806"></polygon>
                    <polygon id="Fill-58" fill="#3795A5" points="236.705792 155.22415 244.091136 155.22415 244.091136 142.530338 236.705792 142.530338"></polygon>
                    <polygon id="Fill-59" fill="#3795A5" points="251.794555 155.22415 259.179899 155.22415 259.179899 142.530338 251.794555 142.530338"></polygon>
                    <polygon id="Fill-60" fill="#3795A5" points="299.717796 192.954123 307.05171 192.954123 307.05171 127.785537 299.717796 127.785537"></polygon>
                    <polygon id="Fill-61" fill="#21717A" points="303.241145 192.954123 307.05171 192.954123 307.05171 127.785537 303.241145 127.785537"></polygon>
                    <path d="M328.405673,134.986402 C328.405673,121.832681 317.023033,111.170069 302.98265,111.170069 C288.941476,111.170069 277.558836,121.832681 277.558836,134.986402 C277.558836,148.139331 288.941476,158.801943 302.98265,158.801943 C317.023033,158.801943 328.405673,148.139331 328.405673,134.986402" id="Fill-62" fill="#3795A5"></path>
                    <path d="M310.844077,112.336623 C314.49877,116.031729 316.735579,120.974368 316.735579,126.409371 C316.735579,137.849317 306.835704,147.124285 294.623063,147.124285 C288.103325,147.124285 282.243473,144.478818 278.195539,140.273933 C280.763872,150.880343 290.882126,158.801706 302.982412,158.801706 C317.023586,158.801706 328.405435,148.139094 328.405435,134.986164 C328.405435,124.403502 321.035916,115.438834 310.844077,112.336623" id="Fill-63" fill="#21717A"></path>
                    <polygon id="Fill-64" fill="#3795A5" points="343.767964 192.954123 348.360265 192.954123 348.360265 152.14727 343.767964 152.14727"></polygon>
                    <polygon id="Fill-65" fill="#21717A" points="345.973914 192.954123 348.360265 192.954123 348.360265 152.14727 345.973914 152.14727"></polygon>
                    <path d="M361.731663,156.656676 C361.731663,148.420264 354.604259,141.743268 345.812108,141.743268 C337.020747,141.743268 329.893344,148.420264 329.893344,156.656676 C329.893344,164.892297 337.020747,171.569293 345.812108,171.569293 C354.604259,171.569293 361.731663,164.892297 361.731663,156.656676" id="Fill-66" fill="#3795A5"></path>
                    <path d="M350.734747,142.473978 C353.023777,144.787772 354.424255,147.882859 354.424255,151.28587 C354.424255,158.449689 348.224965,164.257528 340.577723,164.257528 C336.494974,164.257528 332.826039,162.600746 330.291728,159.967944 C331.899509,166.609318 338.235681,171.569372 345.811712,171.569372 C354.604655,171.569372 361.731267,164.892377 361.731267,156.656756 C361.731267,150.030421 357.11602,144.41652 350.734747,142.473978" id="Fill-67" fill="#21717A"></path>
                    <polygon id="Fill-68" fill="#3795A5" points="108.894395 192.954915 113.409946 192.954915 113.409946 152.831197 108.894395 152.831197"></polygon>
                    <polygon id="Fill-69" fill="#21717A" points="111.063157 192.954915 113.409946 192.954915 113.409946 152.831197 111.063157 152.831197"></polygon>
                    <path d="M126.556951,157.264295 C126.556951,149.166409 119.549024,142.601027 110.904041,142.601027 C102.259849,142.601027 95.2519215,149.166409 95.2519215,157.264295 C95.2519215,165.361389 102.259849,171.926772 110.904041,171.926772 C119.549024,171.926772 126.556951,165.361389 126.556951,157.264295" id="Fill-70" fill="#3795A5"></path>
                    <path d="M115.744392,143.318833 C117.994652,145.593841 119.371392,148.637474 119.371392,151.983492 C119.371392,159.02699 113.276545,164.737464 105.757483,164.737464 C101.74278,164.737464 98.1355606,163.109179 95.6431849,160.519123 C97.2248545,167.049676 103.454211,171.927405 110.904436,171.927405 C119.548628,171.927405 126.557347,165.362022 126.557347,157.264137 C126.557347,150.748624 122.01964,145.228921 115.744392,143.318833" id="Fill-71" fill="#21717A"></path>
                    <polygon id="Fill-72" fill="#3795A5" points="64.6796505 192.954123 70.5434588 192.954123 70.5434588 140.848226 64.6796505 140.848226"></polygon>
                    <polygon id="Fill-73" fill="#21717A" points="67.4964306 192.954123 70.5434588 192.954123 70.5434588 140.848226 67.4964306 140.848226"></polygon>
                    <path d="M87.6170232,146.605799 C87.6170232,136.088838 78.5162916,127.562707 67.2895239,127.562707 C56.0635474,127.562707 46.9628158,136.088838 46.9628158,146.605799 C46.9628158,157.121968 56.0635474,165.6481 67.2895239,165.6481 C78.5162916,165.6481 87.6170232,157.121968 87.6170232,146.605799" id="Fill-74" fill="#3795A5"></path>
                    <path d="M73.5754535,128.495982 C76.4974673,131.449375 78.2864391,135.402537 78.2864391,139.747531 C78.2864391,148.895846 70.3701793,156.310597 60.6056054,156.310597 C55.3929797,156.310597 50.7073135,154.196281 47.4719725,150.83364 C49.5252153,159.314651 57.6155458,165.6481 67.2899195,165.6481 C78.5158959,165.6481 87.6174188,157.121968 87.6174188,146.605799 C87.6174188,138.143786 81.7243351,130.976009 73.5754535,128.495982" id="Fill-75" fill="#21717A"></path>
                    <path d="M94.0295497,194.482589 L22.3511996,194.482589 C22.3472435,194.338521 22.3432873,194.195245 22.3432873,194.050385 C22.4065857,188.798238 27.0036342,184.590978 32.6110838,184.657471 C32.663305,184.660638 32.7076139,184.664595 32.7590438,184.664595 C33.1356695,180.681354 36.0276165,177.393122 39.927591,176.178834 C40.5953894,171.56866 44.3181283,167.891761 49.1106106,166.969567 C49.9255779,166.806501 50.767447,166.728926 51.6306793,166.7408 C55.7846387,166.789087 59.4076826,168.86699 61.4443096,171.952577 C61.6769313,171.940703 61.909553,171.938329 62.1453397,171.940703 C65.4550563,171.977908 68.4213789,173.306974 70.5165569,175.407042 C71.8592749,174.902012 73.3317546,174.632083 74.8706976,174.650289 C80.9687101,174.72074 85.8830419,179.296877 86.0563213,184.955898 C90.420748,186.336417 93.6315609,190.042605 94.0295497,194.482589" id="Fill-76" fill="#3795A5"></path>
                    <path d="M94.0295497,194.482589 L78.5704908,194.482589 C77.6518724,186.805825 69.5053645,187.838048 69.5053645,187.838048 C66.7384319,176.212081 56.7768416,182.117284 56.7768416,182.117284 C58.9463953,173.557906 52.9844745,168.97702 49.1106106,166.969567 C49.9255779,166.806501 50.767447,166.728926 51.6306793,166.7408 C55.7846387,166.789087 59.4076826,168.86699 61.4443096,171.952577 C61.6769313,171.940703 61.909553,171.938329 62.1453397,171.940703 C65.4550563,171.977908 68.4213789,173.306974 70.5165569,175.407042 C71.8592749,174.902012 73.3317546,174.632083 74.8706976,174.650289 C80.9687101,174.72074 85.8830419,179.296877 86.0563213,184.955898 C90.420748,186.336417 93.6315609,190.042605 94.0295497,194.482589" id="Fill-77" fill="#21717A"></path>
                    <path d="M327.81225,192.444107 L256.1339,192.444107 C256.129944,192.300039 256.125987,192.156762 256.125987,192.012695 C256.189286,186.759755 260.786334,182.552496 266.394575,182.618989 C266.445214,182.622947 266.490314,182.626113 266.541744,182.626113 C266.91837,178.642872 269.810317,175.354639 273.710291,174.140352 C274.378089,169.530177 278.100828,165.85407 282.893311,164.931085 C283.709069,164.768811 284.550147,164.691236 285.413379,164.702318 C289.567339,164.750604 293.190383,166.828507 295.22701,169.914095 C295.459631,169.903013 295.691462,169.899846 295.92804,169.903013 C299.237756,169.939425 302.204079,171.268492 304.299257,173.368559 C305.641975,172.86353 307.114455,172.5936 308.652606,172.611807 C314.75141,172.682258 319.665742,177.259186 319.839813,182.918207 C324.203448,184.297935 327.41347,188.004122 327.81225,192.444107" id="Fill-78" fill="#3795A5"></path>
                    <path d="M327.81225,192.444107 L312.353982,192.444107 C311.435364,184.767343 303.288856,185.800358 303.288856,185.800358 C300.521923,174.173599 290.560333,180.079593 290.560333,180.079593 C292.729095,171.519423 286.767175,166.938537 282.893311,164.931085 C283.709069,164.768811 284.550147,164.691236 285.413379,164.702318 C289.567339,164.750604 293.190383,166.828507 295.22701,169.914095 C295.459631,169.903013 295.691462,169.899846 295.92804,169.903013 C299.237756,169.939425 302.204079,171.268492 304.299257,173.368559 C305.641975,172.86353 307.114455,172.5936 308.652606,172.611807 C314.75141,172.682258 319.665742,177.259186 319.839813,182.918207 C324.203448,184.297935 327.41347,188.004122 327.81225,192.444107" id="Fill-79" fill="#21717A"></path>
                    <path d="M374.797724,198.558763 C374.797724,192.789712 291.108497,188.113044 187.873506,188.113044 C84.6385156,188.113044 0.949288547,192.789712 0.949288547,198.558763 C0.949288547,204.328605 84.6385156,209.004481 187.873506,209.004481 C291.108497,209.004481 374.797724,204.328605 374.797724,198.558763" id="Fill-80" fill="#3795A5"></path>
                </g>
                <g id="Group-214" transform="translate(51.047120, 46.138743)">
                    <path d="M95.610829,94.2504648 L81.6670801,81.9241864 C81.1414088,81.4598349 80.3307349,81.5096716 79.8660224,82.0341436 C79.40131,82.5594066 79.4503937,83.3686598 79.9760651,83.8338024 L93.9206057,96.1600808 C94.4454853,96.6244323 95.2561592,96.5745956 95.7216634,96.0493325 C96.1863758,95.5240695 96.1365004,94.7148163 95.610829,94.2504648" id="Fill-1" fill="#BCB8B8"></path>
                    <path d="M112.695543,101.64813 L112.695543,83.0455914 C112.695543,82.3447132 112.120788,81.7704046 111.419365,81.7704046 C110.717942,81.7704046 110.143979,82.3447132 110.143979,83.0455914 L110.143979,101.64813 C110.143979,102.3498 110.717942,102.923317 111.419365,102.923317 C112.120788,102.923317 112.695543,102.3498 112.695543,101.64813" id="Fill-3" fill="#BCB8B8"></path>
                    <path d="M83.06383,86.5631135 L86.9145309,86.5631135 L81.6665259,81.9243446 C81.1416463,81.4599931 80.3309724,81.5090387 79.8654682,82.0335107 C79.4015475,82.5587738 79.4506312,83.368818 79.9763026,83.8339606 L83.06383,86.5631135 Z" id="Fill-5" fill="#828181"></path>
                    <path d="M112.695543,86.5631135 L112.695543,83.046066 C112.695543,82.3443968 112.120788,81.7700881 111.419365,81.7700881 C110.717942,81.7700881 110.143979,82.3443968 110.143979,83.046066 L110.143979,86.5631135 L112.695543,86.5631135 Z" id="Fill-7" fill="#828181"></path>
                    <path d="M112.305169,80.7784959 L80.5527202,80.7784959 C79.325626,80.7784959 78.3304921,81.7720658 78.3304921,82.998998 C78.3304921,84.2243481 79.325626,85.217918 80.5527202,85.217918 L112.305169,85.217918 C113.532263,85.217918 114.526606,84.2243481 114.526606,82.998998 C114.526606,81.7720658 113.532263,80.7784959 112.305169,80.7784959" id="Fill-9" fill="#BCB8B8"></path>
                    <path d="M82.4712622,82.9987607 C82.4712622,82.1808059 81.8086314,81.5186896 80.9900407,81.5186896 C80.1722418,81.5186896 79.5088192,82.1808059 79.5088192,82.9987607 C79.5088192,83.8159244 80.1722418,84.4780407 80.9900407,84.4780407 C81.8086314,84.4780407 82.4712622,83.8159244 82.4712622,82.9987607" id="Fill-11" fill="#828181"></path>
                    <path d="M80.401273,83.5565362 C80.2793553,83.4355042 80.2793553,83.2361574 80.401273,83.1135433 L81.1264461,82.3889334 C81.2483639,82.2679014 81.447074,82.2679014 81.5697834,82.3889334 C81.6909095,82.5115476 81.6909095,82.7108944 81.5697834,82.8327174 L80.8446103,83.5565362 C80.7226925,83.6783593 80.5231908,83.6783593 80.401273,83.5565362" id="Fill-13" fill="#BCB8B8"></path>
                    <path d="M112.893858,82.9987607 C112.893858,82.1808059 112.230435,81.5186896 111.412636,81.5186896 C110.594837,81.5186896 109.931415,82.1808059 109.931415,82.9987607 C109.931415,83.8159244 110.594837,84.4780407 111.412636,84.4780407 C112.230435,84.4780407 112.893858,83.8159244 112.893858,82.9987607" id="Fill-15" fill="#828181"></path>
                    <path d="M110.823473,83.5565362 C110.701555,83.4355042 110.701555,83.2361574 110.823473,83.1135433 L111.548646,82.3889334 C111.670563,82.2679014 111.870065,82.2679014 111.991983,82.3889334 C112.113109,82.5115476 112.113109,82.7108944 111.991983,82.8327174 L111.26681,83.5565362 C111.144892,83.6783593 110.94539,83.6783593 110.823473,83.5565362" id="Fill-17" fill="#BCB8B8"></path>
                    <path d="M211.32542,97.5615205 C211.32542,97.5615205 201.328956,93.5888232 193.047258,78.0943543 L185.430565,82.0259165 L195.687489,114.31931 L200.122446,110.851309 C202.935262,108.652165 206.116999,106.969583 209.520404,105.88425 L211.88355,105.12958 L211.32542,97.5615205 Z" id="Fill-19" fill="#E53923"></path>
                    <path d="M211.883629,105.129897 L211.44425,99.1771791 C203.895642,101.83039 198.552636,106.477861 194.784269,111.474979 L195.687569,114.318836 L200.122525,110.850834 C202.935341,108.65169 206.117078,106.969108 209.520483,105.883776 L211.883629,105.129897 Z" id="Fill-21" fill="#C42316"></path>
                    <path d="M193.910182,131.496678 L200.996453,130.252342 C203.320016,129.843365 205.299992,128.317413 206.253958,126.161777 C207.979015,122.258693 211.9073,116.349484 219.890538,116.249019 L231.870936,116.249019 C233.21599,116.249019 234.527001,115.818683 235.610803,115.022878 L238.189284,113.128292 C238.687247,112.762032 238.779081,112.058781 238.389577,111.579399 C238.355535,111.538264 238.31991,111.494756 238.282701,111.449665 C225.828091,96.3467706 201.753293,100.051299 194.161143,118.089813 C192.715546,121.526173 191.62937,125.307434 191.373659,129.212891 C191.281825,130.617812 192.523961,131.741115 193.910182,131.496678" id="Fill-23" fill="#E53923"></path>
                    <path d="M238.282543,111.449824 C235.993023,108.673207 233.308457,106.537348 230.407765,105.005068 C229.795009,107.318124 227.658282,109.473759 222.200483,110.175428 C208.742822,111.903891 202.205972,114.593491 198.168436,125.542536 C196.924717,128.915611 194.457862,130.206619 191.640295,130.384607 C192.065424,131.169338 192.947348,131.666123 193.910024,131.496836 L200.996295,130.252501 C203.319857,129.843523 205.299833,128.317571 206.2538,126.161935 C207.979649,122.258851 211.907934,116.348851 219.891171,116.248386 L231.870778,116.248386 C233.216623,116.248386 234.526843,115.81805 235.610644,115.023036 L238.189126,113.12845 C238.687088,112.76219 238.778922,112.058939 238.389419,111.579557 C238.355377,111.537631 238.319752,111.494123 238.282543,111.449824" id="Fill-25" fill="#C42316"></path>
                    <path d="M197.783525,116.322113 C197.783525,116.322113 202.975321,98.1681044 227.775291,104.892104 C227.775291,104.892104 207.877364,104.987822 197.783525,116.322113" id="Fill-27" fill="#FFFFFF"></path>
                    <path d="M240.962992,136.359712 C240.962992,125.461295 232.120788,116.625959 221.2139,116.625959 C210.306219,116.625959 201.464016,125.461295 201.464016,136.359712 C201.464016,147.258129 210.306219,156.093465 221.2139,156.093465 C232.120788,156.093465 240.962992,147.258129 240.962992,136.359712" id="Fill-29" fill="#474444"></path>
                    <path d="M232.900112,136.359712 C232.900112,129.911 227.66794,124.682102 221.213425,124.682102 C214.758909,124.682102 209.527529,129.911 209.527529,136.359712 C209.527529,142.808423 214.758909,148.037322 221.213425,148.037322 C227.66794,148.037322 232.900112,142.808423 232.900112,136.359712" id="Fill-31" fill="#BCB8B8"></path>
                    <path d="M226.780078,126.089079 C229.981607,128.172728 232.100126,131.777583 232.100126,135.880014 C232.100126,142.328725 226.867162,147.557624 220.412647,147.557624 C218.397837,147.557624 216.501779,147.047391 214.847181,146.149539 C216.678322,147.341665 218.864133,148.037006 221.213821,148.037006 C227.667545,148.037006 232.899716,142.808898 232.899716,136.359395 C232.899716,131.923929 230.424944,128.065935 226.780078,126.089079" id="Fill-33" fill="#777777"></path>
                    <path d="M225.802836,136.359712 C225.802836,133.827533 223.747651,131.773944 221.213504,131.773944 C218.678565,131.773944 216.624171,133.827533 216.624171,136.359712 C216.624171,138.891891 218.678565,140.94548 221.213504,140.94548 C223.747651,140.94548 225.802836,138.891891 225.802836,136.359712" id="Fill-35" fill="#999696"></path>
                    <path d="M222.192408,131.880658 C223.609504,132.54752 224.592763,133.983292 224.592763,135.652426 C224.592763,137.955198 222.725205,139.822097 220.420643,139.822097 C218.920421,139.822097 217.609409,139.028665 216.873944,137.842077 C217.49145,139.645691 219.19909,140.945401 221.2139,140.945401 C223.748047,140.945401 225.803232,138.891812 225.803232,136.359633 C225.803232,134.163654 224.25551,132.329188 222.192408,131.880658" id="Fill-37" fill="#777777"></path>
                    <path d="M217.155543,136.635475 C217.155543,134.103296 219.209936,132.049707 221.744875,132.049707 C222.390881,132.049707 223.00522,132.184978 223.562558,132.426251 C222.875385,132.014109 222.07342,131.773628 221.213662,131.773628 C218.678723,131.773628 216.62433,133.827216 216.62433,136.359395 C216.62433,138.246862 217.765923,139.866159 219.395188,140.570202 C218.055676,139.768859 217.155543,138.309355 217.155543,136.635475" id="Fill-39" fill="#BCB8B8"></path>
                    <path d="M222.940778,136.359712 C222.940778,135.406486 222.167312,134.633622 221.213346,134.633622 C220.259379,134.633622 219.486705,135.406486 219.486705,136.359712 C219.486705,137.312938 220.259379,138.085802 221.213346,138.085802 C222.167312,138.085802 222.940778,137.312938 222.940778,136.359712" id="Fill-41" fill="#BCB8B8"></path>
                    <path d="M220.502343,146.050182 L220.502343,144.185657 C219.394792,144.085983 218.352949,143.759276 217.425108,143.249043 L216.495683,144.858848 C217.697443,145.526501 219.055955,145.944972 220.502343,146.050182" id="Fill-43" fill="#999696"></path>
                    <path d="M218.421112,129.017658 C219.078202,128.768474 219.774874,128.599979 220.502423,128.534321 L220.502423,126.669004 C219.437621,126.746528 218.420321,126.992547 217.478229,127.384912 L218.421112,129.017658 Z" id="Fill-45" fill="#999696"></path>
                    <path d="M211.65634,134.56124 L213.561107,134.56124 C213.75665,133.725091 214.085986,132.943524 214.525365,132.234736 L212.907976,131.300495 C212.305512,132.285364 211.875633,133.386517 211.65634,134.56124" id="Fill-47" fill="#999696"></path>
                    <path d="M213.346405,136.359712 C213.346405,136.232351 213.359863,136.108946 213.364613,135.982377 L211.497055,135.982377 C211.491513,136.108155 211.486763,136.233143 211.486763,136.359712 C211.486763,137.539972 211.69814,138.671186 212.083685,139.717757 L213.726408,138.770859 C213.481781,138.010652 213.346405,137.200607 213.346405,136.359712" id="Fill-49" fill="#999696"></path>
                    <path d="M229.08092,136.359712 C229.08092,137.200607 228.945543,138.010652 228.700916,138.770859 L230.343639,139.717757 C230.729184,138.671186 230.939769,137.539972 230.939769,136.359712 C230.939769,136.233143 230.935019,136.108155 230.930269,135.982377 L229.061919,135.982377 C229.067461,136.108946 229.08092,136.232351 229.08092,136.359712" id="Fill-51" fill="#999696"></path>
                    <path d="M221.924902,126.669241 L221.924902,128.533767 C222.65245,128.599425 223.349123,128.767921 224.006212,129.017895 L224.949095,127.384359 C224.007004,126.992785 222.989703,126.746765 221.924902,126.669241" id="Fill-53" fill="#999696"></path>
                    <path d="M216.24401,142.451735 C215.446794,141.801485 214.778622,140.999351 214.286992,140.088842 L212.675936,141.018336 C213.329859,142.212835 214.2292,143.25466 215.304293,144.077361 L216.24401,142.451735 Z" id="Fill-55" fill="#999696"></path>
                    <path d="M228.140015,140.088605 C227.647594,140.999114 226.980213,141.801247 226.182998,142.451498 L227.122715,144.077123 C228.197808,143.254422 229.097149,142.213389 229.751071,141.018099 L228.140015,140.088605 Z" id="Fill-57" fill="#999696"></path>
                    <path d="M225.001108,143.249043 C224.074058,143.760067 223.033008,144.085983 221.924664,144.185657 L221.924664,146.050182 C223.370261,145.944972 224.728773,145.526501 225.931325,144.858848 L225.001108,143.249043 Z" id="Fill-59" fill="#999696"></path>
                    <path d="M215.387419,131.090311 C215.898048,130.527077 216.487053,130.039785 217.140184,129.643464 L216.206009,128.027331 C215.270251,128.589774 214.43741,129.305682 213.740737,130.140249 L215.387419,131.090311 Z" id="Fill-61" fill="#999696"></path>
                    <path d="M225.287219,129.643385 C225.939558,130.039706 226.529355,130.526998 227.039985,131.090232 L228.686666,130.14017 C227.989993,129.305603 227.156361,128.589695 226.221394,128.027252 L225.287219,129.643385 Z" id="Fill-63" fill="#999696"></path>
                    <path d="M227.901088,132.234419 C228.340467,132.943208 228.669803,133.725565 228.866139,134.560923 L230.770905,134.560923 C230.55082,133.386201 230.121733,132.285047 229.519269,131.300179 L227.901088,132.234419 Z" id="Fill-65" fill="#999696"></path>
                    <path d="M189.873675,71.3228908 C189.145335,69.5374711 188.443121,67.6523779 187.784448,65.6320137 L181.440767,69.4646937 L183.151574,74.8502221 L185.430802,82.0259165 L193.047495,78.0943543 C191.951027,76.0423477 190.882268,73.7965317 189.873675,71.3228908" id="Fill-67" fill="#C42316"></path>
                    <path d="M194.961604,67.1845458 C192.66575,67.0018112 190.368313,66.1711994 190.368313,66.2123345 L181.440609,69.4651683 L181.344816,69.2017457 C180.4621,66.8293604 175.509389,66.0889293 175.509389,66.0889293 L175.509389,61.7072545 L178.995129,58.350792 L185.73623,53.8828918 C186.726614,53.2271041 187.855541,52.8307836 189.029593,52.727946 L193.113837,52.3743427 L194.961604,52.2137578 L194.961604,67.1845458 Z" id="Fill-69" fill="#E53923"></path>
                    <path d="M201.914241,59.7050056 C201.914241,63.6049255 198.799796,66.7659965 194.96097,66.7659965 L194.96097,52.648761 C195.899104,52.648761 196.796862,52.8386151 197.617036,53.1835167 C200.136933,54.2435356 201.914241,56.765431 201.914241,59.7050056" id="Fill-71" fill="#FFC543"></path>
                    <path d="M201.914241,59.7050056 C201.914241,63.6049255 198.799796,66.7659965 194.96097,66.7659965 L194.96097,63.0290347 C196.868904,61.3852145 198.904297,58.3372649 197.617036,53.1835167 C200.136933,54.2435356 201.914241,56.765431 201.914241,59.7050056" id="Fill-73" fill="#FF9D45"></path>
                    <path d="M181.669402,63.6317424 C181.642485,65.1569038 180.610143,65.7343767 178.694293,66.3608953 L173.681415,67.8821014 L173.576914,67.9137438 C171.107683,68.1692558 170.072966,66.6330196 170.099883,65.1070671 C170.123633,63.7432817 171.003183,62.9601335 172.242152,62.5717236 C172.387028,62.5266333 172.536654,62.4862893 172.691031,62.4499006 L179.011754,60.9809043 C180.538101,61.0093825 181.697111,62.10579 181.669402,63.6317424" id="Fill-75" fill="#474444"></path>
                    <path d="M173.681494,67.8821014 L173.576993,67.9137438 C171.107763,68.1692558 170.072253,66.6330196 170.099962,65.1070671 C170.123712,63.7432817 171.003262,62.9601335 172.242231,62.5717236 C173.956996,62.684054 175.324217,63.8382088 175.382009,65.2969212 C175.425551,66.3798807 174.73442,67.3528831 173.681494,67.8821014" id="Fill-77" fill="#282626"></path>
                    <path d="M178.853656,67.0609033 C179.9525,67.5450313 180.984842,68.2364167 181.344262,69.2015084 L181.440846,69.464931 L190.36855,66.2120972 C190.36855,66.1709621 192.665196,67.0015739 194.961841,67.1843084 L194.961841,52.2135204 L193.114075,52.3748964 L192.396819,52.4373901 C192.029482,56.700406 189.692461,63.761397 178.853656,67.0609033" id="Fill-79" fill="#C42316"></path>
                    <path d="M153.277371,126.926494 L109.763817,126.926494 L109.763817,139.380924 L140.812468,139.380924 C147.696863,139.380924 153.277371,133.80475 153.277371,126.926494" id="Fill-81" fill="#474444"></path>
                    <path d="M109.763897,139.381003 L122.649969,139.381003 C122.775846,138.390597 122.847096,137.38437 122.847096,136.359949 C122.847096,133.009024 122.155173,129.821057 120.911454,126.926573 L109.763897,126.926573 L109.763897,139.381003 Z" id="Fill-83" fill="#282626"></path>
                    <path d="M118.651305,136.359712 C118.651305,125.461295 109.809101,116.625959 98.9022125,116.625959 C87.9945322,116.625959 79.1523286,125.461295 79.1523286,136.359712 C79.1523286,147.258129 87.9945322,156.093465 98.9022125,156.093465 C109.809101,156.093465 118.651305,147.258129 118.651305,136.359712" id="Fill-85" fill="#474444"></path>
                    <path d="M110.588425,136.359712 C110.588425,129.911 105.356253,124.682102 98.9017375,124.682102 C92.4472218,124.682102 87.2150502,129.911 87.2150502,136.359712 C87.2150502,142.808423 92.4472218,148.037322 98.9017375,148.037322 C105.356253,148.037322 110.588425,142.808423 110.588425,136.359712" id="Fill-87" fill="#BCB8B8"></path>
                    <path d="M104.468074,126.089079 C107.669603,128.172728 109.788122,131.777583 109.788122,135.880014 C109.788122,142.328725 104.55595,147.557624 98.1014345,147.557624 C96.0866249,147.557624 94.1905664,147.047391 92.5351767,146.149539 C94.3671097,147.341665 96.5529207,148.037006 98.9018166,148.037006 C105.356332,148.037006 110.588504,142.808898 110.588504,136.359395 C110.588504,131.923929 108.11294,128.065935 104.468074,126.089079" id="Fill-89" fill="#777777"></path>
                    <path d="M103.491228,136.359712 C103.491228,133.827533 101.436043,131.773944 98.9018958,131.773944 C96.3669566,131.773944 94.3125633,133.827533 94.3125633,136.359712 C94.3125633,138.891891 96.3669566,140.94548 98.9018958,140.94548 C101.436043,140.94548 103.491228,138.891891 103.491228,136.359712" id="Fill-91" fill="#999696"></path>
                    <path d="M99.8803253,131.880658 C101.298213,132.54752 102.281472,133.983292 102.281472,135.652426 C102.281472,137.955198 100.413122,139.822097 98.1085596,139.822097 C96.6091296,139.822097 95.2973263,139.028665 94.5618614,137.842077 C95.1793669,139.645691 96.8870071,140.945401 98.9018166,140.945401 C101.435964,140.945401 103.491149,138.891812 103.491149,136.359633 C103.491149,134.163654 101.944219,132.329188 99.8803253,131.880658" id="Fill-93" fill="#777777"></path>
                    <path d="M94.8438556,136.635475 C94.8438556,134.103296 96.8982488,132.049707 99.433188,132.049707 C100.079194,132.049707 100.693533,132.184978 101.250871,132.426251 C100.562906,132.014109 99.7609409,131.773628 98.901975,131.773628 C96.3670358,131.773628 94.3126425,133.827216 94.3126425,136.359395 C94.3126425,138.246862 95.454236,139.866159 97.0842921,140.570202 C95.7439886,139.768859 94.8438556,138.309355 94.8438556,136.635475" id="Fill-95" fill="#BCB8B8"></path>
                    <path d="M100.62909,136.359712 C100.62909,135.406486 99.8556251,134.633622 98.9016583,134.633622 C97.9476915,134.633622 97.1742263,135.406486 97.1742263,136.359712 C97.1742263,137.312938 97.9476915,138.085802 98.9016583,138.085802 C99.8556251,138.085802 100.62909,137.312938 100.62909,136.359712" id="Fill-97" fill="#BCB8B8"></path>
                    <path d="M98.1907353,146.050182 L98.1907353,144.185657 C97.0831838,144.085983 96.0413412,143.759276 95.1142913,143.249043 L94.1840747,144.858848 C95.3858354,145.526501 96.7443474,145.944972 98.1907353,146.050182" id="Fill-99" fill="#999696"></path>
                    <path d="M96.1095043,129.017658 C96.7665935,128.768474 97.4624747,128.599979 98.1908145,128.534321 L98.1908145,126.669004 C97.1260133,126.746528 96.1087126,126.992547 95.1658293,127.384912 L96.1095043,129.017658 Z" id="Fill-101" fill="#999696"></path>
                    <path d="M89.3446525,134.56124 L91.2494194,134.56124 C91.4457545,133.725091 91.7750908,132.943524 92.2144697,132.234736 L90.5962886,131.300495 C89.9938249,132.285364 89.5647378,133.386517 89.3446525,134.56124" id="Fill-103" fill="#999696"></path>
                    <path d="M91.0343217,136.359712 C91.0343217,136.232351 91.0477801,136.108946 91.0533219,135.982377 L89.1849719,135.982377 C89.1802219,136.108155 89.1754718,136.233143 89.1754718,136.359712 C89.1754718,137.539972 89.386057,138.671186 89.7723938,139.717757 L91.4143251,138.770859 C91.1696979,138.010652 91.0343217,137.200607 91.0343217,136.359712" id="Fill-105" fill="#999696"></path>
                    <path d="M106.769232,136.359712 C106.769232,137.200607 106.633856,138.010652 106.389229,138.770859 L108.03116,139.717757 C108.417497,138.671186 108.628082,137.539972 108.628082,136.359712 C108.628082,136.233143 108.623332,136.108155 108.618582,135.982377 L106.750232,135.982377 C106.755774,136.108946 106.769232,136.232351 106.769232,136.359712" id="Fill-107" fill="#999696"></path>
                    <path d="M99.6128979,126.669241 L99.6128979,128.533767 C100.340446,128.599425 101.037119,128.767921 101.694208,129.017895 L102.637883,127.384359 C101.695,126.992785 100.677699,126.746765 99.6128979,126.669241" id="Fill-109" fill="#999696"></path>
                    <path d="M93.9320058,142.451735 C93.1347904,141.801485 92.4674094,140.999351 91.9749884,140.088842 L90.3639324,141.018336 C91.0186466,142.212835 91.9179879,143.25466 92.9922891,144.077361 L93.9320058,142.451735 Z" id="Fill-111" fill="#999696"></path>
                    <path d="M105.828328,140.088605 C105.335907,140.999114 104.668526,141.801247 103.871311,142.451498 L104.811027,144.077123 C105.88612,143.254422 106.78467,142.213389 107.439384,141.018099 L105.828328,140.088605 Z" id="Fill-113" fill="#999696"></path>
                    <path d="M102.689896,143.249043 C101.762055,143.760067 100.721004,144.085983 99.6126604,144.185657 L99.6126604,146.050182 C101.059048,145.944972 102.41756,145.526501 103.619321,144.858848 L102.689896,143.249043 Z" id="Fill-115" fill="#999696"></path>
                    <path d="M93.0757315,131.090311 C93.586361,130.527077 94.1753663,130.039785 94.8284971,129.643464 L93.8943221,128.027331 C92.9585638,128.589774 92.1249314,129.305682 91.4290502,130.140249 L93.0757315,131.090311 Z" id="Fill-117" fill="#999696"></path>
                    <path d="M102.975136,129.643385 C103.628267,130.039706 104.217272,130.526998 104.727902,131.090232 L106.374583,130.14017 C105.678702,129.305603 104.845069,128.589695 103.909311,128.027252 L102.975136,129.643385 Z" id="Fill-119" fill="#999696"></path>
                    <path d="M105.58948,132.234419 C106.028859,132.943208 106.358195,133.725565 106.55453,134.560923 L108.459297,134.560923 C108.239212,133.386201 107.809333,132.285047 107.207661,131.300179 L105.58948,132.234419 Z" id="Fill-121" fill="#999696"></path>
                    <path d="M118.225305,132.266853 L79.5765865,132.266853 C81.4623533,123.334217 89.3988822,116.626038 98.9037166,116.626038 C108.408551,116.626038 116.339538,123.334217 118.225305,132.266853" id="Fill-123" fill="#474444"></path>
                    <polygon id="Fill-125" fill="#E53923" points="93.5573858 96.9218704 90.131022 100.079777 83.3598368 106.321231 72.3666558 106.321231 72.3666558 103.035964 78.4862935 95.6767438 88.0085448 95.6767438 90.1769391 96.1664092"></polygon>
                    <path d="M90.1773349,96.1663301 L90.1314178,100.079698 L83.3602326,106.321152 L72.3670516,106.321152 L72.3670516,105.076817 C80.5284158,104.632242 84.485201,99.0940388 86.2783419,95.6766647 L88.0089406,95.6766647 L90.1773349,96.1663301 Z" id="Fill-127" fill="#C42316"></path>
                    <path d="M149.928195,92.3323054 L123.539336,92.3323054 C121.153231,92.3323054 119.037879,90.6378574 118.310331,88.1381116 C118.21533,87.820897 118.121121,87.4949807 118.018203,87.1643182 C117.869369,86.6659511 117.717367,86.1588824 117.556657,85.6565601 C116.688983,82.9163323 118.507458,80.0447889 121.141356,79.9941611 C133.513633,79.7592166 137.464876,79.2695512 145.562115,79.9403691 C146.139245,79.9902058 146.607916,80.0447889 146.945169,80.1033272 C150.98983,80.8184444 152.261258,85.5426476 152.651553,88.9030654 C152.862138,90.7193365 151.59071,92.3323054 149.928195,92.3323054" id="Fill-129" fill="#474444"></path>
                    <path d="M149.928195,92.3323054 L123.539336,92.3323054 C121.153231,92.3323054 119.037879,90.6378574 118.310331,88.1381116 C118.21533,87.820897 118.121121,87.4949807 118.018203,87.1643182 C133.80576,87.0915408 141.003658,86.9697177 144.44348,87.2007069 C147.163671,87.3818593 146.516873,83.2596519 145.562115,79.9403691 C146.139245,79.9902058 146.607916,80.0447889 146.945169,80.1033272 C150.98983,80.8184444 152.261258,85.5426476 152.651553,88.9030654 C152.862138,90.7193365 151.59071,92.3323054 149.928195,92.3323054" id="Fill-131" fill="#282626"></path>
                    <path d="M146.834968,97.2107651 C146.834968,97.2107651 136.675419,106.549214 138.983148,113.392664 C141.290085,120.236114 149.941495,120.884782 149.941495,120.884782 L174.280712,120.884782 C174.280712,120.884782 185.619062,107.451812 185.140892,93.6367614 C185.140892,93.6367614 189.853725,105.612601 188.700257,110.799573 C187.546788,115.985755 182.643161,123.765818 182.643161,123.765818 L178.462332,128.232927 L142.587638,128.232927 L131.557249,117.210314 L129.610523,108.205691 L132.205629,103.162692 L146.834968,97.2107651 Z" id="Fill-133" fill="#9E120B"></path>
                    <path d="M189.787145,69.0663956 C184.460765,70.0860704 183.554298,82.0880147 185.140812,93.6374733 C186.308531,102.138191 180.968692,114.503232 178.068791,120.438546 C177.041199,122.54118 174.90368,123.868577 172.562701,123.868577 L147.951148,123.868577 C147.951148,123.868577 137.073552,122.849693 136.053084,111.414147 C135.498121,105.18535 144.21524,98.9407316 146.826972,97.2162234 C147.281393,96.9164121 147.558478,96.4125076 147.564812,95.8690502 L147.60677,92.221478 L94.8060927,92.221478 C85.8609715,95.9291707 77.0456849,109.287781 72.7437299,116.608239 C71.4730936,118.770203 73.0390242,121.490654 75.5494216,121.490654 L121.54883,121.490654 L133.636105,133.418239 L178.417919,133.418239 C182.496622,132.81387 191.259658,128.43615 198.360972,111.527268 C205.462285,94.6183862 189.787145,69.0663956 189.787145,69.0663956" id="Fill-135" fill="#E53923"></path>
                    <path d="M174.352596,133.417922 L178.41784,133.417922 C182.496543,132.813553 191.259579,128.435834 198.360892,111.526952 C205.462205,94.6180698 189.787066,69.0660791 189.787066,69.0660791 C189.787066,69.0660791 209.187822,114.709382 174.352596,133.417922" id="Fill-137" fill="#C42316"></path>
                    <path d="M189.42068,70.1695271 C189.42068,70.1695271 184.626304,74.8518042 185.960274,85.8736266 C185.960274,85.8736266 187.690081,97.4001446 186.825573,101.001835 C185.960274,104.603526 178.462332,124.198844 178.462332,124.198844 C178.462332,124.198844 192.881085,114.545553 193.314131,100.713099 C193.746385,86.8822266 189.42068,70.1695271 189.42068,70.1695271" id="Fill-139" fill="#FFFFFF"></path>
                    <path d="M130.11664,129.945491 C134.67193,127.917216 137.928876,124.064759 139.507473,119.629293 C137.784,117.788499 136.387487,115.162975 136.053401,111.414147 C135.853899,109.174659 136.855366,106.934381 138.338171,104.902151 C137.040618,102.646842 135.160393,100.600373 132.639704,98.9446869 C126.566775,94.9537952 119.376003,92.5228714 111.637392,92.221478 L108.363822,92.221478 C98.1377723,92.6201717 88.8696483,96.7384239 81.8720444,103.260704 C78.0830941,107.923995 74.8641488,112.999429 72.7432549,116.608239 C71.4734103,118.769412 73.0409243,121.490654 75.5489465,121.490654 L121.549147,121.490654 L130.11664,129.945491 Z" id="Fill-141" fill="#9E120B"></path>
                    <path d="M120.615051,129.059426 C136.025772,129.059426 142.184993,108.986308 129.30842,100.525143 C123.607578,96.7786887 116.783351,94.5985307 109.449285,94.5985307 C93.4416431,94.5985307 79.8620641,104.981969 75.0874799,119.376866 C73.5049242,124.147742 77.122873,129.059426 82.1531678,129.059426 L120.615051,129.059426 Z" id="Fill-143" fill="#C42316"></path>
                    <path d="M129.308737,100.524906 C126.082667,98.4048683 122.496385,96.7879441 118.662309,95.7825084 C121.471167,103.399614 124.237275,118.423403 103.25238,120.060894 C91.5823182,120.972194 82.707656,119.020652 76.2697655,116.309693 C75.8327616,117.310383 75.4345497,118.33164 75.0877966,119.376629 C73.5052409,124.147504 77.1231897,129.059188 82.1534844,129.059188 L120.615368,129.059188 C136.026088,129.059188 142.184518,108.986071 129.308737,100.524906" id="Fill-145" fill="#9E120B"></path>
                    <path d="M111.248285,104.589129 L93.7119205,104.589129 C93.436418,104.589129 93.2115827,104.81379 93.2115827,105.089078 L93.2115827,105.123885 C93.2115827,105.398382 93.436418,105.623834 93.7119205,105.623834 L111.248285,105.623834 C111.522995,105.623834 111.747831,105.398382 111.747831,105.123885 L111.747831,105.089078 C111.747831,104.81379 111.522995,104.589129 111.248285,104.589129" id="Fill-147" fill="#9E120B"></path>
                    <path d="M111.248285,107.865378 L93.7119205,107.865378 C93.436418,107.865378 93.2115827,108.090039 93.2115827,108.364536 L93.2115827,108.400134 C93.2115827,108.674631 93.436418,108.900083 93.7119205,108.900083 L111.248285,108.900083 C111.522995,108.900083 111.747831,108.674631 111.747831,108.400134 L111.747831,108.364536 C111.747831,108.090039 111.522995,107.865378 111.248285,107.865378" id="Fill-149" fill="#9E120B"></path>
                    <path d="M111.248285,111.097565 L93.7119205,111.097565 C93.436418,111.097565 93.2115827,111.322226 93.2115827,111.597514 L93.2115827,111.632321 C93.2115827,111.906818 93.436418,112.13227 93.7119205,112.13227 L111.248285,112.13227 C111.522995,112.13227 111.747831,111.906818 111.747831,111.632321 L111.747831,111.597514 C111.747831,111.322226 111.522995,111.097565 111.248285,111.097565" id="Fill-151" fill="#9E120B"></path>
                    <path d="M111.248285,114.028517 L93.7119205,114.028517 C93.436418,114.028517 93.2115827,114.253178 93.2115827,114.528466 L93.2115827,114.563273 C93.2115827,114.83777 93.436418,115.063222 93.7119205,115.063222 L111.248285,115.063222 C111.522995,115.063222 111.747831,114.83777 111.747831,114.563273 L111.747831,114.528466 C111.747831,114.253178 111.522995,114.028517 111.248285,114.028517" id="Fill-153" fill="#9E120B"></path>
                    <path d="M111.248285,104.589129 L93.7119205,104.589129 C93.436418,104.589129 93.2115827,104.81379 93.2115827,105.089078 L93.2115827,105.123885 C93.2115827,105.398382 93.436418,105.623834 93.7119205,105.623834 L111.248285,105.623834 C111.522995,105.623834 111.747831,105.398382 111.747831,105.123885 L111.747831,105.089078 C111.747831,104.81379 111.522995,104.589129 111.248285,104.589129" id="Fill-155" fill="#9E120B"></path>
                    <path d="M111.248285,107.865378 L93.7119205,107.865378 C93.436418,107.865378 93.2115827,108.090039 93.2115827,108.364536 L93.2115827,108.400134 C93.2115827,108.674631 93.436418,108.900083 93.7119205,108.900083 L111.248285,108.900083 C111.522995,108.900083 111.747831,108.674631 111.747831,108.400134 L111.747831,108.364536 C111.747831,108.090039 111.522995,107.865378 111.248285,107.865378" id="Fill-157" fill="#9E120B"></path>
                    <path d="M111.248285,111.097565 L93.7119205,111.097565 C93.436418,111.097565 93.2115827,111.322226 93.2115827,111.597514 L93.2115827,111.632321 C93.2115827,111.906818 93.436418,112.13227 93.7119205,112.13227 L111.248285,112.13227 C111.522995,112.13227 111.747831,111.906818 111.747831,111.632321 L111.747831,111.597514 C111.747831,111.322226 111.522995,111.097565 111.248285,111.097565" id="Fill-159" fill="#9E120B"></path>
                    <path d="M111.248285,114.028517 L93.7119205,114.028517" id="Fill-161" fill="#9E120B"></path>
                    <polygon id="Fill-163" fill="url(#linearGradient-1)" points="269.524521 44.2874276 195.041484 52.6164858 195.041484 67.0082188 269.524521 75.338068"></polygon>
                    <polygon id="Fill-166" fill="#E8AB5B" points="77.3203956 80.9680336 116.292117 80.9680336 116.292117 51.7890383 77.3203956 51.7890383"></polygon>
                    <polygon id="Fill-168" fill="#D8923D" points="77.3203956 54.1013032 116.292117 54.1013032 116.292117 51.7890383 77.3203956 51.7890383"></polygon>
                    <polygon id="Fill-169" fill="#E8AB5B" points="74.7672479 51.7890383 118.845265 51.7890383 118.845265 46.0491155 74.7672479 46.0491155"></polygon>
                    <path d="M116.291721,80.9677963 L116.291721,51.788801 L112.560563,51.788801 C111.746722,64.0668248 98.8796498,83.7594428 77.3199998,71.3342821 L77.3199998,80.9677963 L116.291721,80.9677963 Z" id="Fill-170" fill="#D8923D"></path>
                    <polygon id="Fill-171" fill="#474444" points="83.3751161 81.1199169 87.3445681 81.1199169 87.3445681 45.3205504 83.3751161 45.3205504"></polygon>
                    <polygon id="Fill-172" fill="#2D2929" points="85.7509289 81.1199169 87.3445681 81.1199169 87.3445681 45.3205504 85.7509289 45.3205504"></polygon>
                    <polygon id="Fill-173" fill="#474444" points="105.300519 81.1199169 109.269971 81.1199169 109.269971 45.3205504 105.300519 45.3205504"></polygon>
                    <polygon id="Fill-174" fill="#2D2929" points="107.67554 81.1199169 109.269971 81.1199169 109.269971 45.3205504 107.67554 45.3205504"></polygon>
                    <polygon id="Fill-175" fill="#F7B891" points="151.959947 108.771536 151.206273 116.114144 165.244231 116.114144 160.910609 109.712896 161.286654 106.417345"></polygon>
                    <path d="M175.489043,118.580982 C174.839079,120.083202 169.51349,120.727915 169.51349,120.727915 L150.571113,120.727915 L150.464237,118.580982 C150.023275,117.756698 150.288486,115.294132 150.582197,113.407457 C150.599614,113.310948 150.610697,113.21523 150.628114,113.125049 C150.780115,112.159166 151.843333,111.63944 152.708632,112.103001 C153.567598,112.56577 154.618941,113.017465 155.523032,113.09578 C157.461841,113.254783 160.260408,108.900004 160.582619,108.900004 C160.90483,108.900004 164.025608,111.859355 165.964417,113.525325 C167.761516,115.073427 174.703703,115.695199 175.692503,115.773514 C175.766129,115.779051 175.811254,115.78538 175.811254,115.78538 C175.811254,115.78538 176.133466,117.073223 175.489043,118.580982" id="Fill-176" fill="#474444"></path>
                    <path d="M165.962675,113.52485 C164.026241,111.858089 160.904672,108.901111 160.582461,108.901111 C160.351292,108.901111 158.858195,111.122404 157.31839,112.332724 C158.187648,112.74012 159.501034,113.196561 161.173841,113.310473 C164.294619,113.520895 165.38792,119.135039 172.732277,115.445541 C170.28838,115.109341 167.099519,114.501808 165.962675,113.52485" id="Fill-177" fill="#999696"></path>
                    <path d="M175.486747,118.578608 C174.841533,120.083993 169.514361,120.729497 169.514361,120.729497 L168.472518,120.729497 C168.649062,119.220948 169.059149,117.747206 169.979865,117.610352 C171.414378,117.398349 174.226403,116.635768 175.691791,115.774305 C175.768583,115.779842 175.80975,115.783007 175.80975,115.783007 C175.80975,115.783007 176.131961,117.073223 175.486747,118.578608" id="Fill-178" fill="#474444"></path>
                    <path d="M163.413723,110.628626 L162.341797,111.827871 C162.196921,111.990038 162.211171,112.240012 162.373464,112.384776 L162.426506,112.43224 C162.588008,112.577003 162.838968,112.561973 162.983845,112.400597 L164.056562,111.202143 C164.200647,111.039976 164.186397,110.78921 164.024104,110.645238 L163.971062,110.596983 C163.808769,110.452219 163.5586,110.46725 163.413723,110.628626" id="Fill-179" fill="#BCB8B8"></path>
                    <path d="M164.784427,111.78278 L163.955545,112.709901 C163.823335,112.857829 163.836002,113.086445 163.984045,113.218552 L164.087754,113.311897 C164.236589,113.444004 164.465383,113.431347 164.597592,113.282628 L165.427266,112.356298 C165.559476,112.207579 165.546017,111.978963 165.397183,111.846856 L165.294265,111.754302 C165.146222,111.622195 164.916637,111.634852 164.784427,111.78278" id="Fill-180" fill="#BCB8B8"></path>
                    <path d="M165.869179,112.943896 L165.228715,113.659014 C165.107588,113.795076 165.120255,114.004706 165.255631,114.125738 L165.404466,114.258636 C165.539842,114.379668 165.750428,114.368593 165.871554,114.232531 L166.511226,113.516623 C166.632352,113.381352 166.620477,113.17093 166.484309,113.049898 L166.336266,112.917792 C166.200098,112.795968 165.990305,112.807834 165.869179,112.943896" id="Fill-181" fill="#BCB8B8"></path>
                    <path d="M157.037821,120.727757 L150.57143,120.727757 L150.463762,118.580823 C150.023592,117.75654 150.288803,115.293974 150.582514,113.407299 C151.842858,113.7522 153.652624,114.389794 154.268546,115.361214 C155.037261,116.569952 156.450399,119.496078 157.037821,120.727757" id="Fill-182" fill="#999696"></path>
                    <path d="M158.860016,118.954836 C157.730298,118.471499 150.4659,118.578292 150.4659,118.578292 L150.573568,120.729181 L169.514361,120.729181 C169.514361,120.729181 174.841533,120.084468 175.486747,118.578292 C175.59679,118.321989 175.677541,118.072805 175.737708,117.834697 C170.659913,120.388235 159.898692,119.399411 158.860016,118.954836" id="Fill-183" fill="#BCB8B8"></path>
                    <path d="M165.087559,69.9284915 L146.425435,63.9599527 L122.895309,72.3689079 C122.895309,72.3689079 125.484874,78.9426066 130.007706,79.5881106 C133.438819,80.077776 146.656604,80.3767962 152.841159,80.4922908 C154.544049,80.5247242 155.820227,82.0514677 155.548683,83.7308856 C154.577299,89.7279025 151.767649,102.754268 150.877016,110.136429 L163.454336,109.430804 L170.136854,77.9561563 C170.713984,74.3924363 168.551923,70.9544947 165.087559,69.9284915" id="Fill-184" fill="#474444"></path>
                    <path d="M158.318116,81.3618227 C157.446483,86.7093802 154.414373,101.612928 153.132653,110.006062 L150.876383,110.132632 C151.770182,102.752053 154.573499,89.7312249 155.547258,83.7349991 C155.824343,82.0500438 154.54104,80.5233003 152.839734,80.491658 C146.656762,80.3729992 133.435811,80.0803074 130.007864,79.5898509 C125.487407,78.9411827 122.898634,72.367484 122.898634,72.367484 L126.223664,71.1808958 C127.205339,73.1039597 129.477443,76.7420392 132.778722,77.2166745 C136.206669,77.707131 149.42762,77.9998227 155.610592,78.1184815 C157.311898,78.1501239 158.595201,79.6768674 158.318116,81.3618227" id="Fill-185" fill="#282626"></path>
                    <polygon id="Fill-186" fill="#282626" points="163.733005 108.107917 163.455128 109.428985 160.170474 109.610137"></polygon>
                    <path d="M166.704078,57.8880226 C166.704078,57.8880226 175.39903,61.067288 176.257204,64.349391 C176.51529,65.3342592 176.427414,66.2479321 176.180412,67.0445284 C175.599323,68.9114271 173.389762,69.7206803 171.666288,68.7975147 L170.11065,67.9645297 C168.987265,67.3633251 168.330967,66.1498408 168.440218,64.8817736 C168.459218,64.672143 168.327009,64.4799157 168.125924,64.4205863 L163.831094,63.1604296 L166.704078,57.8880226 Z" id="Fill-187" fill="#F7B891"></path>
                    <path d="M151.230894,11.050617 C151.230894,11.050617 151.193686,15.3658428 151.051976,15.6063247 C150.910266,15.8468065 150.682264,17.2976084 150.682264,17.2976084 L152.666199,21.314605 L150.72264,21.8675552 L150.711556,22.7013311 C150.70839,22.914126 150.592014,23.1087264 150.406762,23.2131462 L150.043384,23.4164483 L150.364012,23.7281255 C150.543721,23.9013674 150.603889,24.1639989 150.51918,24.3981523 L150.370345,24.8055476 L150.166093,25.5760389 C149.746506,27.1629028 148.17345,28.1754581 146.560811,27.8669452 C142.751277,27.13838 136.622931,24.9930285 137.311687,18.7515745 C137.960068,12.8763807 140.316089,8.63788759 142.032438,8.10787818 C143.748786,7.57786878 151.230894,11.050617 151.230894,11.050617" id="Fill-188" fill="#F7B891"></path>
                    <polygon id="Fill-189" fill="#F7B891" points="133.117162 19.4317269 133.069662 26.9159343 140.91119 29.8998081 141.280902 24.6194905"></polygon>
                    <path d="M130.320021,25.9061477 C126.986283,29.5774516 117.771993,39.9893677 120.31564,72.4686604 L128.130251,73.2597192 C134.648101,72.9013696 148.968687,64.8072558 148.968687,64.8072558 C148.968687,64.8072558 144.375396,56.2638207 144.080893,42.2810651 L141.384453,29.4105382 C141.384453,29.4105382 137.852796,26.2882291 133.703634,24.968743 C132.493957,24.5842884 131.173445,24.9671609 130.320021,25.9061477" id="Fill-190" fill="#F67024"></path>
                    <path d="M143.825578,12.9178322 C146.086599,13.3196901 149.277044,13.5364402 152.689949,12.6670665 C153.062036,3.6774742 147.838572,-0.57367585 140.277297,0.0623354344 C134.285119,0.565448839 128.193981,7.61694708 129.552493,14.1321075 C129.942788,16.0069168 131.63697,20.2572758 132.438144,22.0600989 C132.714438,22.680289 133.33986,23.0726541 134.019116,23.0821469 C137.025893,23.1232819 139.524415,23.0544598 140.672342,21.8670805 C141.625517,20.8790481 141.459266,17.9307719 141.125971,15.5188336 C140.911428,13.9612388 142.276273,12.6425437 143.825578,12.9178322" id="Fill-191" fill="#E53923"></path>
                    <path d="M139.811951,18.072055 C139.800076,17.4115209 139.253821,16.8846757 138.591982,16.8965416 C137.930934,16.9084075 137.40368,17.454238 137.416346,18.1147721 C137.42743,18.7760973 137.973685,19.3021514 138.635524,19.2910766 C139.297363,19.2784197 139.823826,18.7333801 139.811951,18.072055" id="Fill-192" fill="#E0E3E9"></path>
                    <path d="M166.006771,59.168905 C170.289726,61.2881516 176.735533,65.3091035 173.633756,69.1473209 C174.778516,68.9914823 175.810067,68.233648 176.18057,67.0446866 C176.427572,66.2480903 176.514657,65.3344174 176.257363,64.3495492 C175.399188,61.0658641 166.704236,57.8881808 166.704236,57.8881808 L166.006771,59.168905 Z" id="Fill-193" fill="#EA996C"></path>
                    <path d="M144.081131,42.2808278 L142.582492,35.1296561 L131.939231,34.4469724 C131.939231,34.4469724 133.776706,53.6515071 136.320353,56.6171866 C138.864001,59.5828661 143.668669,60.2892816 143.668669,60.2892816 L145.517227,66.6596782 C147.598537,65.5814651 148.968924,64.8078096 148.968924,64.8078096 C148.968924,64.8078096 144.375633,56.2643744 144.081131,42.2808278" id="Fill-194" fill="#D35313"></path>
                    <path d="M131.889039,35.6205872 C133.097925,41.6468733 135.145193,50.9995616 138.465472,55.2388458 L166.126552,64.9997204 L168.447739,57.461721 L147.411385,48.7640294 L143.330307,32.523592 C142.649468,29.8181708 140.065445,28.0367064 137.292212,28.3626226 C134.0701,28.7415398 131.25095,32.4421129 131.889039,35.6205872" id="Fill-195" fill="#F67024"></path>
                    <path d="M131.205983,25.2213281 C130.879813,25.3977342 130.577394,25.623186 130.3201,25.906385 C126.98557,29.577689 117.772072,39.989605 120.315719,72.4688977 L123.410372,72.782157 C118.021449,54.542714 124.543257,34.7765275 131.205983,25.2213281" id="Fill-196" fill="#D35313"></path>
                    <path d="M151.755853,6.22895529 C149.950837,1.67957607 145.719341,-0.395371194 140.277376,0.0618607991 C134.285198,0.565765262 128.19406,7.61647245 129.552572,14.1316328 C129.942868,16.0064422 131.636258,20.2575923 132.438223,22.0604153 C132.714517,22.6806054 133.339939,23.0729706 134.019195,23.0824633 C134.912203,23.0943292 135.752169,23.091956 136.533551,23.0587315 C134.18228,20.2045913 130.246079,14.2059923 134.200489,9.73492795 C138.171524,5.24487813 145.925968,4.0796485 151.755853,6.22895529" id="Fill-197" fill="#C42316"></path>
                    <g id="Group-203" transform="translate(0.000000, 59.734433)" fill="#FFFFFF">
                        <path d="M84.2776241,0.153623621 L0.573171762,0.153623621 C0.258085627,0.153623621 0,0.411508794 0,0.726350201 C0,1.04119161 0.258085627,1.29907678 0.573171762,1.29907678 L84.2776241,1.29907678 C84.5927103,1.29907678 84.8507959,1.04119161 84.8507959,0.726350201 C84.8507959,0.411508794 84.5927103,0.153623621 84.2776241,0.153623621" id="Fill-198"></path>
                        <path d="M123.773196,10.0836267 L40.0687437,10.0836267 C39.7536575,10.0836267 39.4947802,10.3407208 39.4947802,10.6563533 C39.4947802,10.9711947 39.7536575,11.2290798 40.0687437,11.2290798 L123.773196,11.2290798 C124.088282,11.2290798 124.346368,10.9711947 124.346368,10.6563533 C124.346368,10.3407208 124.088282,10.0836267 123.773196,10.0836267" id="Fill-199"></path>
                        <path d="M97.0182666,50.0567777 L13.3138142,50.0567777 C12.998728,50.0567777 12.7406424,50.3146629 12.7406424,50.6302953 C12.7406424,50.9451367 12.998728,51.2022308 13.3138142,51.2022308 L97.0182666,51.2022308 C97.3333527,51.2022308 97.5914383,50.9451367 97.5914383,50.6302953 C97.5914383,50.3146629 97.3333527,50.0567777 97.0182666,50.0567777" id="Fill-200"></path>
                        <path d="M56.5037314,71.2531985 L30.7680027,71.2531985 C30.4529165,71.2531985 30.1948309,71.5110837 30.1948309,71.8267162 C30.1948309,72.1415576 30.4529165,72.3986517 30.7680027,72.3986517 L56.5037314,72.3986517 C56.8188176,72.3986517 57.0769032,72.1415576 57.0769032,71.8267162 C57.0769032,71.5110837 56.8188176,71.2531985 56.5037314,71.2531985" id="Fill-201"></path>
                        <path d="M57.0769824,23.8962255 L42.1388912,23.8962255 C41.8222218,23.8962255 41.5657195,24.1525285 41.5657195,24.4689521 C41.5657195,24.7853756 41.8222218,25.0416786 42.1388912,25.0416786 L57.0769824,25.0416786 C57.3920685,25.0416786 57.6501541,24.7837935 57.6501541,24.4689521 C57.6501541,24.1533196 57.3920685,23.8962255 57.0769824,23.8962255" id="Fill-202"></path>
                    </g>
                    <path d="M97.2644771,155.9824 C93.0424812,150.101669 84.8494501,145.33554 78.9649394,145.33554 C74.8062774,145.33554 72.9165523,147.717418 73.6536005,151.188584 C69.4062711,147.717418 64.0957239,145.33554 59.9370619,145.33554 C55.6089818,145.33554 53.7390485,147.915183 54.7294323,151.618129 C50.4203523,147.946034 44.8849698,145.391705 40.5845983,145.391705 C34.7151294,145.391705 33.3700758,150.145968 37.5809882,156.010087 C37.5865299,156.017998 37.5920717,156.025118 37.5968217,156.031446 L56.9627438,156.031446 L58.8500939,156.031446 L75.9906213,156.031446 L78.2714332,156.031446 L97.298519,156.031446 C97.2866439,156.015625 97.2763522,155.999013 97.2644771,155.9824" id="Fill-204" fill="#FFFFFF"></path>
                    <path d="M220.64999,156.036509 C217.57513,151.753716 211.607493,148.281759 207.321372,148.281759 C204.292428,148.281759 202.9165,150.017342 203.452463,152.545566 C200.358602,150.017342 196.491276,148.281759 193.462332,148.281759 C190.309887,148.281759 188.947417,150.160524 189.668632,152.857243 C186.530437,150.183465 182.499235,148.322894 179.366582,148.322894 C175.091544,148.322894 174.112243,151.785359 177.179187,156.057076 C177.183146,156.062614 177.187104,156.06736 177.190271,156.072897 L191.295521,156.072897 L192.670658,156.072897 L205.155353,156.072897 L206.815493,156.072897 L220.674532,156.072897 C220.666616,156.060241 220.658699,156.049166 220.64999,156.036509" id="Fill-205" fill="#FFFFFF"></path>
                    <path d="M101.831722,161.787902 C101.614012,161.175622 101.934639,160.50164 102.548187,160.28489 C103.161734,160.066558 103.835448,160.386937 104.053158,161.000007 C104.270869,161.613078 103.950241,162.286269 103.336694,162.50381 C102.723146,162.721351 102.049432,162.400972 101.831722,161.787902" id="Fill-206" fill="#FFFFFF"></path>
                    <path d="M24.2066902,155.66566 C24.2066902,157.282585 22.8948868,158.593369 21.2767058,158.593369 C19.6577331,158.593369 18.3459297,157.282585 18.3459297,155.66566 C18.3459297,154.047945 19.6577331,152.737161 21.2767058,152.737161 C22.8948868,152.737161 24.2066902,154.047945 24.2066902,155.66566" id="Fill-207" fill="#FFFFFF"></path>
                    <path d="M52.2357393,132.241381 C52.2357393,133.717496 51.037937,134.915159 49.5606739,134.915159 C48.0826191,134.915159 46.8848168,133.717496 46.8848168,132.241381 C46.8848168,130.765265 48.0826191,129.567602 49.5606739,129.567602 C51.037937,129.567602 52.2357393,130.765265 52.2357393,132.241381" id="Fill-208" fill="#FFFFFF"></path>
                    <path d="M46.252982,123.886613 C46.252982,124.487818 45.7661026,124.974319 45.1644306,124.974319 C44.5635503,124.974319 44.0758793,124.487818 44.0758793,123.886613 C44.0758793,123.286199 44.5635503,122.799698 45.1644306,122.799698 C45.7661026,122.799698 46.252982,123.286199 46.252982,123.886613" id="Fill-209" fill="#FFFFFF"></path>
                    <path d="M42.5744701,139.068139 C42.5744701,139.668553 42.0867991,140.155845 41.4859188,140.155845 C40.8850384,140.155845 40.3973674,139.668553 40.3973674,139.068139 C40.3973674,138.466934 40.8850384,137.980433 41.4859188,137.980433 C42.0867991,137.980433 42.5744701,138.466934 42.5744701,139.068139" id="Fill-210" fill="#FFFFFF"></path>
                    <path d="M153.878093,142.521269 C153.878093,143.297298 153.247921,143.926981 152.471289,143.926981 C151.693073,143.926981 151.062901,143.297298 151.062901,142.521269 C151.062901,141.744449 151.693073,141.114766 152.471289,141.114766 C153.247921,141.114766 153.878093,141.744449 153.878093,142.521269" id="Fill-211" fill="#FFFFFF"></path>
                    <path d="M63.898993,140.070885 C63.898993,140.846914 63.2688207,141.476597 62.4913971,141.476597 C61.7139736,141.476597 61.0838013,140.846914 61.0838013,140.070885 C61.0838013,139.294065 61.7139736,138.664383 62.4913971,138.664383 C63.2688207,138.664383 63.898993,139.294065 63.898993,140.070885" id="Fill-212" fill="#FFFFFF"></path>
                    <path d="M20.0720951,126.576529 C20.0720951,127.352558 19.4419228,127.982241 18.6644992,127.982241 C17.8870757,127.982241 17.2569034,127.352558 17.2569034,126.576529 C17.2569034,125.79971 17.8870757,125.170027 18.6644992,125.170027 C19.4419228,125.170027 20.0720951,125.79971 20.0720951,126.576529" id="Fill-213" fill="#FFFFFF"></path>
                </g>
            </g>
        </g>
    </g>
</svg>