<?xml version="1.0" encoding="UTF-8"?>
<svg width="22px" height="22px" viewBox="0 0 22 22" version="1.1" xmlns="http://www.w3.org/2000/svg" xmlns:xlink="http://www.w3.org/1999/xlink">
    <!-- Generator: Sketch 52.5 (67469) - http://www.bohemiancoding.com/sketch -->
    <title>分组@2x</title>
    <desc>Created with Sketch.</desc>
    <g id="小程序" stroke="none" stroke-width="1" fill="none" fill-rule="evenodd">
        <g id="机构列表" transform="translate(-40.000000, -101.000000)">
            <g id="分组-3" transform="translate(20.000000, 81.000000)">
                <g id="分组" transform="translate(20.000000, 20.000000)">
                    <polygon id="Fill-1" fill="#FFFFFF" points="0 22 22 22 22 0 0 0"></polygon>
                    <g transform="translate(2.750000, 1.375000)" fill="#FFC86D">
                        <path d="M15.125,12.044725 L14.216125,12.050225 L14.216125,7.853725 L15.125,7.8496 L15.125,12.044725 Z M2.2935,12.110725 L1.375,12.11485 L1.304875,7.919725 L2.283875,7.914225 L2.283875,12.01585 C2.283875,12.047475 2.2935,12.077725 2.2935,12.110725 Z M15.195125,6.544725 L14.146,6.544725 C13.7995,3.582975 11.303875,1.26885 8.25,1.26885 C5.196125,1.26885 2.7005,3.582975 2.354,6.544725 L1.304875,6.544725 C0.584375,6.544725 0,7.1291 0,7.8496 L0,12.11485 C0,12.83535 0.584375,13.419725 1.304875,13.419725 L2.4695,13.419725 C3.10475,16.029475 5.446375,17.9806 8.25,17.9806 C8.6295,17.9806 8.9375,17.673975 8.9375,17.2931 C8.9375,16.9136 8.6295,16.6056 8.25,16.6056 C6.21225,16.6056 4.499,15.262225 3.90225,13.419725 C3.766125,13.001725 3.67675,12.564475 3.6685,12.10385 C3.667125,12.0736 3.658875,12.0461 3.658875,12.01585 L3.658875,7.90735 L3.658875,7.234975 C3.658875,6.998475 3.694625,6.7716 3.729,6.544725 C4.0645,4.341975 5.955125,2.64385 8.25,2.64385 C10.544875,2.64385 12.4355,4.341975 12.771,6.544725 C12.805375,6.7716 12.841125,6.998475 12.841125,7.234975 L12.841125,7.8606 L12.841125,12.8051 C12.841125,13.144725 13.116125,13.419725 13.45575,13.419725 L15.195125,13.419725 C15.915625,13.419725 16.5,12.83535 16.5,12.11485 L16.5,7.8496 C16.5,7.1291 15.915625,6.544725 15.195125,6.544725 Z" id="Fill-2"></path>
                        <path d="M8.25,14.8308875 C6.543625,14.8308875 5.15625,13.4421375 5.15625,11.7371375 C5.15625,11.3576375 5.46425,11.0496375 5.84375,11.0496375 C6.22325,11.0496375 6.53125,11.3576375 6.53125,11.7371375 C6.53125,12.6845125 7.302625,13.4558875 8.25,13.4558875 C9.197375,13.4558875 9.96875,12.6845125 9.96875,11.7371375 C9.96875,11.3576375 10.27675,11.0496375 10.65625,11.0496375 C11.03575,11.0496375 11.34375,11.3576375 11.34375,11.7371375 C11.34375,13.4421375 9.955,14.8308875 8.25,14.8308875" id="Fill-4"></path>
                    </g>
                </g>
            </g>
        </g>
    </g>
</svg>