<?xml version="1.0" encoding="UTF-8"?>
<svg width="18px" height="18px" viewBox="0 0 18 18" version="1.1" xmlns="http://www.w3.org/2000/svg" xmlns:xlink="http://www.w3.org/1999/xlink">
    <!-- Generator: Sketch 52.5 (67469) - http://www.bohemiancoding.com/sketch -->
    <title>分组@2x</title>
    <desc>Created with Sketch.</desc>
    <g id="小程序" stroke="none" stroke-width="1" fill="none" fill-rule="evenodd">
        <g id="我的_拉到底" transform="translate(-42.000000, -543.000000)" fill="#FFC86D">
            <g id="分组-6" transform="translate(20.000000, 471.000000)">
                <g id="分组-3">
                    <g id="分组-8-copy-3" transform="translate(0.000000, 54.000000)">
                        <g id="分组" transform="translate(20.000000, 16.000000)">
                            <g transform="translate(2.750000, 2.750000)">
                                <path d="M11,6.875 C11,5.358375 9.768,4.125 8.25,4.125 C6.732,4.125 5.5,5.358375 5.5,6.875 C5.5,7.2545 5.808,7.5625 6.1875,7.5625 C6.567,7.5625 6.875,7.2545 6.875,6.875 C6.875,6.117375 7.492375,5.5 8.25,5.5 C9.007625,5.5 9.625,6.117375 9.625,6.875 C9.625,7.632625 9.007625,8.25 8.25,8.25 C7.8705,8.25 7.5625,8.558 7.5625,8.9375 L7.5625,9.7735 C7.5625,10.153 7.8705,10.461 8.25,10.461 C8.6295,10.461 8.9375,10.153 8.9375,9.7735 L8.9375,9.527375 C10.12,9.22075 11,8.152375 11,6.875" id="Fill-2"></path>
                                <path d="M8.25,10.977175 C7.8705,10.977175 7.5625,11.307175 7.5625,11.68805 C7.5625,12.06755 7.8705,12.37555 8.25,12.37555 C8.6295,12.37555 8.9375,12.06755 8.9375,11.68805 L8.9375,11.6413 C8.9375,11.2618 8.6295,10.977175 8.25,10.977175" id="Fill-4"></path>
                                <path d="M8.25,1.483075 C4.51825,1.483075 1.48225,4.519075 1.48225,8.24945 C1.48225,11.9812 4.51825,15.0172 8.25,15.0172 C11.98175,15.0172 15.01775,11.9812 15.01775,8.24945 C15.01775,4.519075 11.98175,1.483075 8.25,1.483075 M8.25,16.3922 C3.75925,16.3922 0.10725,12.7402 0.10725,8.24945 C0.10725,3.760075 3.75925,0.108075 8.25,0.108075 C12.74075,0.108075 16.39275,3.760075 16.39275,8.24945 C16.39275,12.7402 12.74075,16.3922 8.25,16.3922" id="Fill-6"></path>
                            </g>
                        </g>
                    </g>
                </g>
            </g>
        </g>
    </g>
</svg>