<?xml version="1.0" encoding="UTF-8"?>
<svg width="18px" height="18px" viewBox="0 0 18 18" version="1.1" xmlns="http://www.w3.org/2000/svg" xmlns:xlink="http://www.w3.org/1999/xlink">
    <!-- Generator: Sketch 52.5 (67469) - http://www.bohemiancoding.com/sketch -->
    <title>分组@2x</title>
    <desc>Created with Sketch.</desc>
    <g id="小程序（精简版）" stroke="none" stroke-width="1" fill="none" fill-rule="evenodd">
        <g id="讲述我的故事" transform="translate(-305.000000, -381.000000)" fill="#FFC86D">
            <g id="分组-3" transform="translate(30.000000, 81.000000)">
                <g id="分组-8-copy" transform="translate(20.000000, 248.000000)">
                    <g id="分组" transform="translate(253.000000, 50.000000)">
                        <g transform="translate(1.375000, 1.375000)">
                            <path d="M4.242425,16.1233875 C3.94955,16.1233875 3.664925,16.0078875 3.45455,15.7975125 C1.8073,14.1488875 0.89705,11.9571375 0.89705,9.6237625 C0.89705,7.2931375 1.8073,5.1000125 3.45455,3.4513875 C5.39605,1.5098875 8.062175,0.6051375 10.801175,0.9736375 C11.4103,1.0561375 11.83655,1.6171375 11.755425,2.2276375 C11.672925,2.8353875 11.117425,3.2657625 10.5028,3.1818875 C8.4843,2.9082625 6.478175,3.5806375 5.028925,5.0285125 C2.875675,7.1817625 2.55255,10.4858875 4.060925,12.9856375 L4.971175,11.2792625 C5.262675,10.7375125 5.933675,10.5326375 6.47955,10.8213875 C7.0213,11.1101375 7.226175,11.7866375 6.937425,12.3283875 L5.22555,15.5348875 C5.059175,15.8456375 4.7553,16.0601375 4.40605,16.1110125 C4.35105,16.1192625 4.29605,16.1233875 4.242425,16.1233875" id="Fill-2"></path>
                            <path d="M9.6457625,18.3577625 C9.2511375,18.3577625 8.8537625,18.3302625 8.4550125,18.2766375 C7.8445125,18.1955125 7.4182625,17.6345125 7.4993875,17.0240125 C7.5818875,16.4148875 8.1387625,15.9872625 8.7533875,16.0697625 C10.7801375,16.3461375 12.7766375,15.6710125 14.2258875,14.2217625 C15.4537625,12.9952625 16.1302625,11.3617625 16.1302625,9.6237625 C16.1302625,8.4206375 15.8043875,7.2670125 15.1952625,6.2618875 L14.2836375,7.9710125 C13.9935125,8.5127625 13.3225125,8.7162625 12.7752625,8.4288875 C12.2335125,8.1387625 12.0286375,7.4636375 12.3173875,6.9218875 L14.0292625,3.7153875 C14.1970125,3.4046375 14.4995125,3.1901375 14.8487625,3.1392625 C15.2035125,3.0870125 15.5513875,3.2038875 15.8016375,3.4513875 C19.2033875,6.8558875 19.2033875,12.3943875 15.8016375,15.7988875 C14.1433875,17.4557625 11.9488875,18.3577625 9.6457625,18.3577625" id="Fill-4"></path>
                        </g>
                    </g>
                </g>
            </g>
        </g>
    </g>
</svg>