<?xml version="1.0" encoding="UTF-8"?>
<svg width="22px" height="22px" viewBox="0 0 22 22" version="1.1" xmlns="http://www.w3.org/2000/svg" xmlns:xlink="http://www.w3.org/1999/xlink">
    <!-- Generator: Sketch 52.5 (67469) - http://www.bohemiancoding.com/sketch -->
    <title>分组@2x</title>
    <desc>Created with Sketch.</desc>
    <g id="小程序（精简版）" stroke="none" stroke-width="1" fill="none" fill-rule="evenodd">
        <g id="票券明细_解忧券" transform="translate(-30.000000, -310.000000)">
            <g id="分组-5-copy" transform="translate(30.000000, 299.000000)">
                <g id="分组" transform="translate(0.000000, 11.000000)">
                    <polygon id="Fill-1" fill="#FFFFFF" points="0 22 22 22 22 0 0 0"></polygon>
                    <path d="M7.9894375,5.4690625 C7.1836875,5.4690625 6.3793125,5.7756875 5.7674375,6.3889375 C4.5409375,7.6140625 4.5409375,9.6091875 5.7674375,10.8343125 L10.9993125,16.0675625 L16.2325625,10.8343125 C17.4590625,9.6091875 17.4590625,7.6140625 16.2325625,6.3889375 C15.0074375,5.1610625 13.0123125,5.1610625 11.7885625,6.3889375 C11.3526875,6.8206875 10.6473125,6.8206875 10.2114375,6.3889375 C9.5995625,5.7756875 8.7951875,5.4690625 7.9894375,5.4690625 M10.9993125,18.7556875 C10.7146875,18.7556875 10.4286875,18.6470625 10.2114375,18.4298125 L4.1916875,12.4100625 C2.0975625,10.3145625 2.0975625,6.9073125 4.1916875,4.8118125 C6.0383125,2.9651875 8.9134375,2.7479375 10.9993125,4.1628125 C13.0879375,2.7479375 15.9603125,2.9651875 17.8083125,4.8118125 C19.9024375,6.9073125 19.9024375,10.3145625 17.8083125,12.4100625 L11.7885625,18.4298125 C11.5699375,18.6470625 11.2839375,18.7556875 10.9993125,18.7556875" id="Fill-2" fill="#FFC86D"></path>
                </g>
            </g>
        </g>
    </g>
</svg>