<?xml version="1.0" encoding="UTF-8"?>
<svg width="18px" height="16px" viewBox="0 0 18 16" version="1.1" xmlns="http://www.w3.org/2000/svg" xmlns:xlink="http://www.w3.org/1999/xlink">
    <!-- Generator: Sketch 52.5 (67469) - http://www.bohemiancoding.com/sketch -->
    <title>分组@2x</title>
    <desc>Created with Sketch.</desc>
    <g id="小程序" stroke="none" stroke-width="1" fill="none" fill-rule="evenodd">
        <g id="解答室" transform="translate(-168.000000, -1151.000000)" fill="#4D495B">
            <g id="分组-8" transform="translate(20.000000, 1112.000000)">
                <g id="分组" transform="translate(146.000000, 36.000000)">
                    <g transform="translate(2.750000, 2.750000)">
                        <path d="M1.6328125,12.7241125 L2.8166875,14.7976125 L5.2064375,14.7866125 L11.4255625,4.0148625 L7.8505625,1.9523625 L1.6328125,12.7241125 Z M2.4193125,16.1739875 C2.1731875,16.1739875 1.9463125,16.0419875 1.8225625,15.8274875 L0.2426875,13.0637375 C0.1216875,12.8519875 0.1230625,12.5907375 0.2454375,12.3789875 L7.0049375,0.6694875 C7.1946875,0.3408625 7.6181875,0.2294875 7.9440625,0.4178625 L12.7084375,3.1678625 C12.8665625,3.2586125 12.9806875,3.4098625 13.0288125,3.5858625 C13.0755625,3.7604875 13.0508125,3.9488625 12.9586875,4.1069875 L6.1978125,15.8164875 C6.0754375,16.0282375 5.8499375,16.1588625 5.6065625,16.1602375 L2.4220625,16.1739875 L2.4193125,16.1739875 Z" id="Fill-2"></path>
                        <path d="M15.6594625,15.69975 L10.1594625,15.69975 C9.7799625,15.69975 9.4719625,15.39175 9.4719625,15.01225 C9.4719625,14.63275 9.7799625,14.32475 10.1594625,14.32475 L15.6594625,14.32475 C16.0389625,14.32475 16.3469625,14.63275 16.3469625,15.01225 C16.3469625,15.39175 16.0389625,15.69975 15.6594625,15.69975" id="Fill-4"></path>
                    </g>
                </g>
            </g>
        </g>
    </g>
</svg>