<?xml version="1.0" encoding="UTF-8"?>
<svg width="22px" height="22px" viewBox="0 0 22 22" version="1.1" xmlns="http://www.w3.org/2000/svg" xmlns:xlink="http://www.w3.org/1999/xlink">
    <!-- Generator: Sketch 52.5 (67469) - http://www.bohemiancoding.com/sketch -->
    <title>分组@2x</title>
    <desc>Created with Sketch.</desc>
    <g id="小程序（精简版）" stroke="none" stroke-width="1" fill="none" fill-rule="evenodd">
        <g id="票券" transform="translate(-30.000000, -103.000000)">
            <g id="分组-5" transform="translate(30.000000, 81.000000)">
                <g id="分组" transform="translate(11.000000, 33.000000) rotate(-270.000000) translate(-11.000000, -33.000000) translate(0.000000, 22.000000)">
                    <polygon id="Fill-1" fill="#FFFFFF" points="0 22 22 22 22 0 0 0"></polygon>
                    <g transform="translate(3.125000, 2.375000)" fill="#FFC86D">
                        <path d="M10.1342516,14.9427496 L12.0174116,14.9427496 L12.0174116,2.3072504 L10.1342516,2.3072504 C9.51720374,3.13569731 8.49121622,3.65431854 7.375,3.65431854 C6.25878378,3.65431854 5.23279626,3.13569731 4.61574844,2.3072504 L2.73258836,2.3072504 L2.73258836,14.9427496 L4.61574844,14.9427496 C5.23279626,14.1143027 6.25878378,13.5956815 7.375,13.5956815 C8.49121622,13.5956815 9.51720374,14.1143027 10.1342516,14.9427496 M13.1962058,17.125 L9.42406445,17.125 C8.92489605,17.125 8.48102911,16.8340333 8.31366944,16.4002773 C8.02843035,15.6566957 6.72156965,15.6566957 6.43633056,16.4002773 C6.26897089,16.8340333 5.82510395,17.125 5.32593555,17.125 L1.55379418,17.125 C0.903274428,17.125 0.375,16.6360143 0.375,16.0338748 L0.375,1.2161252 C0.375,0.613985737 0.903274428,0.125 1.55379418,0.125 L5.32593555,0.125 C5.82510395,0.125 6.26897089,0.415966719 6.43633056,0.851069731 C6.72156965,1.59330428 8.02843035,1.59330428 8.31366944,0.851069731 C8.48102911,0.415966719 8.92489605,0.125 9.42406445,0.125 L13.1962058,0.125 C13.8467256,0.125 14.375,0.613985737 14.375,1.2161252 L14.375,16.0338748 C14.375,16.6360143 13.8467256,17.125 13.1962058,17.125" id="Fill-2"></path>
                        <path d="M9.11134945,13.125 L4.63865055,13.125 C3.94130265,13.125 3.375,12.6768519 3.375,12.125 C3.375,11.5731481 3.94130265,11.125 4.63865055,11.125 L9.11134945,11.125 C9.80869735,11.125 10.375,11.5731481 10.375,12.125 C10.375,12.6768519 9.80869735,13.125 9.11134945,13.125" id="Fill-4"></path>
                    </g>
                </g>
            </g>
        </g>
    </g>
</svg>