<?xml version="1.0" encoding="UTF-8"?>
<svg width="22px" height="22px" viewBox="0 0 22 22" version="1.1" xmlns="http://www.w3.org/2000/svg" xmlns:xlink="http://www.w3.org/1999/xlink">
    <!-- Generator: Sketch 52.5 (67469) - http://www.bohemiancoding.com/sketch -->
    <title>分组@2x</title>
    <desc>Created with Sketch.</desc>
    <g id="小程序（精简版）" stroke="none" stroke-width="1" fill="none" fill-rule="evenodd">
        <g id="福利社_我要邮票" transform="translate(-159.000000, -158.000000)">
            <g id="分组-5" transform="translate(30.000000, 147.000000)">
                <g id="分组-7" transform="translate(0.000000, 10.000000)">
                    <g id="分组-4-copy" transform="translate(129.000000, 1.000000)">
                        <g id="分组">
                            <polygon id="Fill-1" fill="#FFFFFF" points="0 22 22 22 22 0 0 0"></polygon>
                            <g transform="translate(1.375000, 1.375000)" fill="#FFC86D">
                                <path d="M7.618875,11.631125 L11.631125,11.631125 L11.631125,7.62025 L7.618875,7.62025 L7.618875,11.631125 Z M12.744875,13.85725 L6.5065,13.85725 C5.8905,13.85725 5.39275,13.358125 5.39275,12.7435 L5.39275,6.5065 C5.39275,5.891875 5.8905,5.39275 6.5065,5.39275 L12.744875,5.39275 C13.3595,5.39275 13.85725,5.891875 13.85725,6.5065 L13.85725,12.7435 C13.85725,13.358125 13.3595,13.85725 12.744875,13.85725 Z" id="Fill-2"></path>
                                <path d="M14.776025,15.8092 L15.80865,15.8092 L15.80865,14.776575 C15.111525,14.179825 14.699025,13.310825 14.699025,12.37445 C14.699025,11.43945 15.111525,10.5677 15.80865,9.9737 L15.80865,9.276575 C15.111525,8.679825 14.699025,7.810825 14.699025,6.87445 C14.699025,5.93945 15.111525,5.0677 15.80865,4.4737 L15.80865,3.441075 L14.776025,3.441075 C14.18065,4.1382 13.310275,4.5507 12.375275,4.5507 C11.4389,4.5507 10.568525,4.1382 9.97315,3.441075 L9.276025,3.441075 C8.68065,4.1382 7.810275,4.5507 6.875275,4.5507 C5.9389,4.5507 5.068525,4.1382 4.47315,3.441075 L3.4419,3.441075 L3.4419,4.4737 C4.139025,5.0677 4.55015,5.93945 4.55015,6.87445 C4.55015,7.810825 4.139025,8.679825 3.4419,9.276575 L3.4419,9.9737 C4.139025,10.5677 4.55015,11.43945 4.55015,12.37445 C4.55015,13.310825 4.139025,14.179825 3.4419,14.776575 L3.4419,15.8092 L4.47315,15.8092 C5.068525,15.1107 5.9389,14.6982 6.875275,14.6982 C7.810275,14.6982 8.68065,15.1107 9.276025,15.8092 L9.97315,15.8092 C10.568525,15.1107 11.4389,14.6982 12.375275,14.6982 C13.310275,14.6982 14.18065,15.1107 14.776025,15.8092 M16.9224,18.035325 L14.193025,18.035325 C13.77915,18.035325 13.39965,17.807075 13.20715,17.441325 C12.87165,16.803325 11.877525,16.806075 11.54065,17.441325 C11.349525,17.807075 10.96865,18.035325 10.55615,18.035325 L8.693025,18.035325 C8.27915,18.035325 7.89965,17.807075 7.70715,17.441325 C7.37165,16.803325 6.377525,16.806075 6.04065,17.441325 C5.849525,17.807075 5.46865,18.035325 5.05615,18.035325 L2.32815,18.035325 C1.713525,18.035325 1.215775,17.537575 1.215775,16.92295 L1.215775,14.193575 C1.215775,13.7797 1.444025,13.4002 1.809775,13.2077 C2.1274,13.041325 2.324025,12.722325 2.324025,12.37445 C2.324025,12.02795 2.1274,11.70895 1.809775,11.5412 C1.444025,11.350075 1.215775,10.9692 1.215775,10.5567 L1.215775,8.693575 C1.215775,8.2797 1.444025,7.9002 1.809775,7.7077 C2.1274,7.541325 2.324025,7.222325 2.324025,6.87445 C2.324025,6.52795 2.1274,6.20895 1.809775,6.0412 C1.444025,5.850075 1.215775,5.4692 1.215775,5.0567 L1.215775,2.327325 C1.215775,1.7127 1.713525,1.21495 2.32815,1.21495 L5.05615,1.21495 C5.46865,1.21495 5.849525,1.4432 6.04065,1.80895 C6.374775,2.442825 7.3744,2.445575 7.70715,1.80895 C7.89965,1.4432 8.27915,1.21495 8.693025,1.21495 L10.55615,1.21495 C10.96865,1.21495 11.349525,1.4432 11.54065,1.80895 C11.874775,2.442825 12.8744,2.445575 13.20715,1.80895 C13.39965,1.4432 13.77915,1.21495 14.193025,1.21495 L16.9224,1.21495 C17.537025,1.21495 18.034775,1.7127 18.034775,2.327325 L18.034775,5.0567 C18.034775,5.4692 17.806525,5.850075 17.4394,6.0412 C17.12315,6.20895 16.92515,6.52795 16.92515,6.87445 C16.92515,7.222325 17.12315,7.541325 17.4394,7.7077 C17.806525,7.9002 18.034775,8.2797 18.034775,8.693575 L18.034775,10.5567 C18.034775,10.9692 17.806525,11.350075 17.4394,11.5412 C17.12315,11.70895 16.92515,12.02795 16.92515,12.37445 C16.92515,12.722325 17.12315,13.041325 17.4394,13.2077 C17.806525,13.4002 18.034775,13.7797 18.034775,14.193575 L18.034775,16.92295 C18.034775,17.537575 17.537025,18.035325 16.9224,18.035325" id="Fill-4"></path>
                            </g>
                        </g>
                    </g>
                </g>
            </g>
        </g>
    </g>
</svg>