<?xml version="1.0" encoding="UTF-8"?>
<svg width="22px" height="22px" viewBox="0 0 22 22" version="1.1" xmlns="http://www.w3.org/2000/svg" xmlns:xlink="http://www.w3.org/1999/xlink">
    <!-- Generator: Sketch 52.5 (67469) - http://www.bohemiancoding.com/sketch -->
    <title>分组@2x</title>
    <desc>Created with Sketch.</desc>
    <g id="小程序" stroke="none" stroke-width="1" fill="none" fill-rule="evenodd">
        <g id="票券" transform="translate(-20.000000, -169.000000)">
            <g id="分组-5" transform="translate(20.000000, 147.000000)">
                <g id="分组" transform="translate(0.000000, 22.000000)">
                    <polygon id="Fill-1" fill="#FFFFFF" points="0 22 22 22 22 0 0 0"></polygon>
                    <g transform="translate(2.750000, 2.750000)" fill="#FFC86D">
                        <path d="M4.9005,11.5995 L11.5995,11.5995 L11.5995,4.9005 L4.9005,4.9005 L4.9005,11.5995 Z M12.287,12.9745 L4.213,12.9745 C3.8335,12.9745 3.5255,12.6665 3.5255,12.287 L3.5255,4.213 C3.5255,3.8335 3.8335,3.5255 4.213,3.5255 L12.287,3.5255 C12.6665,3.5255 12.9745,3.8335 12.9745,4.213 L12.9745,12.287 C12.9745,12.6665 12.6665,12.9745 12.287,12.9745 Z" id="Fill-2"></path>
                        <path d="M13.19615,14.859075 L14.858525,14.859075 L14.858525,13.1967 C14.1669,12.68245 13.750275,11.87395 13.750275,10.99945 C13.750275,10.126325 14.1669,9.317825 14.858525,8.803575 L14.858525,7.6967 C14.1669,7.18245 13.750275,6.37395 13.750275,5.49945 C13.750275,4.626325 14.1669,3.817825 14.858525,3.303575 L14.858525,1.6412 L13.19615,1.6412 C12.6819,2.3342 11.8734,2.74945 11.000275,2.74945 C10.12715,2.74945 9.31865,2.3342 8.8044,1.6412 L7.69615,1.6412 C7.1819,2.3342 6.3734,2.74945 5.500275,2.74945 C4.62715,2.74945 3.81865,2.3342 3.3044,1.6412 L1.64065,1.6412 L1.64065,3.303575 C2.33365,3.817825 2.750275,4.626325 2.750275,5.49945 C2.750275,6.37395 2.33365,7.18245 1.64065,7.6967 L1.64065,8.803575 C2.33365,9.317825 2.750275,10.126325 2.750275,10.99945 C2.750275,11.87395 2.33365,12.68245 1.64065,13.1967 L1.64065,14.859075 L3.3044,14.859075 C3.81865,14.166075 4.62715,13.74945 5.500275,13.74945 C6.3734,13.74945 7.1819,14.166075 7.69615,14.859075 L8.8044,14.859075 C9.31865,14.166075 10.12715,13.74945 11.000275,13.74945 C11.8734,13.74945 12.6819,14.166075 13.19615,14.859075 M15.546025,16.234075 L12.8194,16.234075 C12.56365,16.234075 12.3299,16.09245 12.210275,15.865575 C11.7304,14.9512 10.27015,14.9512 9.7889,15.865575 C9.67065,16.09245 9.4369,16.234075 9.18115,16.234075 L7.3194,16.234075 C7.06365,16.234075 6.8299,16.09245 6.710275,15.865575 C6.2304,14.9512 4.77015,14.9512 4.2889,15.865575 C4.17065,16.09245 3.9369,16.234075 3.68115,16.234075 L0.95315,16.234075 C0.57365,16.234075 0.26565,15.926075 0.26565,15.546575 L0.26565,12.818575 C0.26565,12.5642 0.407275,12.329075 0.63415,12.210825 C1.09065,11.9702 1.375275,11.506825 1.375275,10.99945 C1.375275,10.49345 1.09065,10.030075 0.63415,9.78945 C0.407275,9.6712 0.26565,9.436075 0.26565,9.1817 L0.26565,7.318575 C0.26565,7.0642 0.407275,6.829075 0.63415,6.710825 C1.09065,6.4702 1.375275,6.006825 1.375275,5.49945 C1.375275,4.99345 1.09065,4.530075 0.63415,4.28945 C0.407275,4.1712 0.26565,3.936075 0.26565,3.6817 L0.26565,0.9537 C0.26565,0.572825 0.57365,0.2662 0.95315,0.2662 L3.68115,0.2662 C3.9369,0.2662 4.17065,0.407825 4.2889,0.633325 C4.77015,1.5477 6.2304,1.5477 6.710275,0.633325 C6.8299,0.407825 7.06365,0.2662 7.3194,0.2662 L9.18115,0.2662 C9.4369,0.2662 9.67065,0.407825 9.7889,0.633325 C10.27015,1.5477 11.7304,1.5477 12.210275,0.633325 C12.3299,0.407825 12.56365,0.2662 12.8194,0.2662 L15.546025,0.2662 C15.9269,0.2662 16.233525,0.572825 16.233525,0.9537 L16.233525,3.6817 C16.233525,3.936075 16.0919,4.1712 15.8664,4.28945 C15.408525,4.530075 15.125275,4.99345 15.125275,5.49945 C15.125275,6.006825 15.408525,6.4702 15.8664,6.710825 C16.0919,6.829075 16.233525,7.0642 16.233525,7.318575 L16.233525,9.1817 C16.233525,9.436075 16.0919,9.6712 15.8664,9.78945 C15.408525,10.030075 15.125275,10.49345 15.125275,10.99945 C15.125275,11.506825 15.408525,11.9702 15.8664,12.210825 C16.0919,12.329075 16.233525,12.5642 16.233525,12.818575 L16.233525,15.546575 C16.233525,15.926075 15.9269,16.234075 15.546025,16.234075" id="Fill-4"></path>
                    </g>
                </g>
            </g>
        </g>
    </g>
</svg>