<?xml version="1.0" encoding="UTF-8"?>
<svg width="30px" height="30px" viewBox="0 0 30 30" version="1.1" xmlns="http://www.w3.org/2000/svg" xmlns:xlink="http://www.w3.org/1999/xlink">
    <!-- Generator: Sketch 52.5 (67469) - http://www.bohemiancoding.com/sketch -->
    <title>分组@2x</title>
    <desc>Created with Sketch.</desc>
    <g id="小程序（精简版）" stroke="none" stroke-width="1" fill="none" fill-rule="evenodd">
        <g id="首页" transform="translate(-172.000000, -621.000000)">
            <g id="分组-3" transform="translate(0.000000, 605.000000)">
                <g id="分组-9" transform="translate(42.000000, 16.000000)">
                    <g id="分组-8">
                        <g id="分组" transform="translate(130.000000, 0.000000)">
                            <polygon id="Fill-1" fill="#FFFFFF" points="0 30 30 30 30 0 0 0"></polygon>
                            <path d="M6.903,15.1400625 L8.288625,15.1400625 C8.808,15.1400625 9.226125,15.5600625 9.226125,16.0775625 L9.226125,24.2619375 L20.866125,24.1681875 L20.772375,16.0775625 C20.772375,15.5600625 21.192375,15.1400625 21.709875,15.1400625 L23.097375,15.1400625 L14.99925,6.2825625 L6.903,15.1400625 Z M20.866125,26.0431875 L9.132375,26.0431875 C8.15175,26.0431875 7.351125,25.2463125 7.351125,24.2619375 L7.351125,17.0150625 L4.774875,17.0150625 C4.403625,17.0150625 4.066125,16.7956875 3.916125,16.4544375 C3.766125,16.1169375 3.83175,15.7194375 4.083,15.4456875 L14.307375,4.2613125 C14.663625,3.8694375 15.33675,3.8694375 15.691125,4.2613125 L25.917375,15.4456875 C26.16675,15.7194375 26.23425,16.1169375 26.082375,16.4544375 C25.932375,16.7956875 25.59675,17.0150625 25.223625,17.0150625 L22.647375,17.0150625 L22.647375,24.2619375 C22.647375,25.2463125 21.8505,26.0431875 20.866125,26.0431875 Z" id="Fill-2" fill="#4D495B"></path>
                        </g>
                    </g>
                </g>
            </g>
        </g>
    </g>
</svg>