<?xml version="1.0" encoding="UTF-8"?>
<svg width="30px" height="30px" viewBox="0 0 30 30" version="1.1" xmlns="http://www.w3.org/2000/svg" xmlns:xlink="http://www.w3.org/1999/xlink">
    <!-- Generator: Sketch 52.2 (67145) - http://www.bohemiancoding.com/sketch -->
    <title>分组</title>
    <desc>Created with Sketch.</desc>
    <g id="小程序（精简版）" stroke="none" stroke-width="1" fill="none" fill-rule="evenodd">
        <g id="我的_拉到底" transform="translate(-171.000000, -669.000000)">
            <g id="分组-3" transform="translate(0.000000, 653.000000)">
                <g id="分组-9" transform="translate(40.000000, 16.000000)">
                    <g id="分组-8">
                        <g id="分组" transform="translate(131.000000, 0.000000)">
                            <polygon id="Fill-1" fill="#FFFFFF" points="0 30 30 30 30 0.001875 0 0.001875"></polygon>
                            <path d="M9.807375,23.58825 L20.193,23.58825 L20.193,16.077 C20.193,15.238875 20.87175,14.560125 21.71175,14.560125 L21.77925,14.560125 L15.001125,7.142625 L8.21925,14.560125 L8.288625,14.560125 C9.128625,14.560125 9.807375,15.238875 9.807375,16.077 L9.807375,23.58825 Z M21.71175,26.623875 L8.288625,26.623875 C7.4505,26.623875 6.77175,25.945125 6.77175,25.107 L6.77175,17.59575 L4.773,17.59575 C4.171125,17.59575 3.627375,17.2395 3.383625,16.68825 C3.139875,16.138875 3.24675,15.497625 3.653625,15.051375 L13.879875,3.867 C14.16675,3.552 14.573625,3.37575 15.001125,3.37575 C15.42675,3.37575 15.833625,3.552 16.1205,3.867 L26.344875,15.051375 C26.75175,15.497625 26.858625,16.138875 26.614875,16.68825 C26.371125,17.2395 25.827375,17.59575 25.2255,17.59575 L23.228625,17.59575 L23.228625,25.107 C23.228625,25.945125 22.549875,26.623875 21.71175,26.623875 Z" id="Fill-2" fill="#4D495B"></path>
                        </g>
                    </g>
                </g>
            </g>
        </g>
    </g>
</svg>