<?xml version="1.0" encoding="UTF-8"?>
<svg width="22px" height="22px" viewBox="0 0 22 22" version="1.1" xmlns="http://www.w3.org/2000/svg" xmlns:xlink="http://www.w3.org/1999/xlink">
    <!-- Generator: Sketch 52.5 (67469) - http://www.bohemiancoding.com/sketch -->
    <title>分组@2x</title>
    <desc>Created with Sketch.</desc>
    <g id="小程序（精简版）" stroke="none" stroke-width="1" fill="none" fill-rule="evenodd">
        <g id="我的" transform="translate(-177.000000, -371.000000)">
            <g id="矩形-2" transform="translate(30.000000, 357.000000)">
                <g id="分组-5-copy" transform="translate(105.000000, 0.000000)">
                    <g id="分组" transform="translate(53.000000, 25.000000) rotate(-270.000000) translate(-53.000000, -25.000000) translate(42.000000, 14.000000)">
                        <polygon id="Fill-1" fill="#FFFFFF" points="0 22 22 22 22 0 0 0"></polygon>
                        <g transform="translate(4.125000, 1.375000)" fill="#FFC86D">
                            <path d="M9.482,16.0736125 L11.26125,16.0736125 L11.26125,3.1761125 L9.482,3.1761125 C8.899,4.0217375 7.929625,4.5511125 6.875,4.5511125 C5.820375,4.5511125 4.851,4.0217375 4.268,3.1761125 L2.48875,3.1761125 L2.48875,16.0736125 L4.268,16.0736125 C4.851,15.2279875 5.820375,14.6986125 6.875,14.6986125 C7.929625,14.6986125 8.899,15.2279875 9.482,16.0736125 M12.375,18.3011125 L8.811,18.3011125 C8.339375,18.3011125 7.92,18.0041125 7.761875,17.5613625 C7.492375,16.8023625 6.257625,16.8023625 5.988125,17.5613625 C5.83,18.0041125 5.410625,18.3011125 4.939,18.3011125 L1.375,18.3011125 C0.760375,18.3011125 0.26125,17.8019875 0.26125,17.1873625 L0.26125,2.0623625 C0.26125,1.4477375 0.760375,0.9486125 1.375,0.9486125 L4.939,0.9486125 C5.410625,0.9486125 5.83,1.2456125 5.988125,1.6897375 C6.257625,2.4473625 7.492375,2.4473625 7.761875,1.6897375 C7.92,1.2456125 8.339375,0.9486125 8.811,0.9486125 L12.375,0.9486125 C12.989625,0.9486125 13.48875,1.4477375 13.48875,2.0623625 L13.48875,17.1873625 C13.48875,17.8019875 12.989625,18.3011125 12.375,18.3011125" id="Fill-2"></path>
                            <path d="M8.8462,13.7735125 L4.904075,13.7735125 C4.28945,13.7735125 3.790325,13.2743875 3.790325,12.6597625 C3.790325,12.0451375 4.28945,11.5460125 4.904075,11.5460125 L8.8462,11.5460125 C9.460825,11.5460125 9.95995,12.0451375 9.95995,12.6597625 C9.95995,13.2743875 9.460825,13.7735125 8.8462,13.7735125" id="Fill-4"></path>
                        </g>
                    </g>
                </g>
            </g>
        </g>
    </g>
</svg>