<?xml version="1.0" encoding="UTF-8"?>
<svg width="22px" height="22px" viewBox="0 0 22 22" version="1.1" xmlns="http://www.w3.org/2000/svg" xmlns:xlink="http://www.w3.org/1999/xlink">
    <!-- Generator: Sketch 52.5 (67469) - http://www.bohemiancoding.com/sketch -->
    <title>分组@2x</title>
    <desc>Created with Sketch.</desc>
    <g id="小程序（精简版）" stroke="none" stroke-width="1" fill="none" fill-rule="evenodd">
        <g id="我的" transform="translate(-177.000000, -379.000000)">
            <g id="矩形-2" transform="translate(20.000000, 365.000000)">
                <g id="分组-5-copy" transform="translate(112.000000, 0.000000)">
                    <g id="分组" transform="translate(45.000000, 14.000000)">
                        <polygon id="Fill-1" fill="#FFFFFF" points="0 22 22 22 22 0 0 0"></polygon>
                        <g transform="translate(2.750000, 4.125000)" fill="#FFC86D">
                            <path d="M1.375,9.2477 L1.375,11.7502 L15.186875,11.68695 L15.134625,9.2532 C14.290375,8.7692 13.75,7.865825 13.75,6.87445 C13.75,5.888575 14.28625,4.986575 15.125,4.502575 L15.125,2.000075 L1.313125,2.06195 L1.365375,4.497075 C2.209625,4.9797 2.75,5.88445 2.75,6.87445 C2.75,7.8617 2.21375,8.762325 1.375,9.2477 M15.186875,13.06195 L1.313125,13.06195 C0.5885,13.06195 0,12.47345 0,11.7502 L0,8.32645 L0.457875,8.162825 C1.0065,7.96895 1.375,7.450575 1.375,6.87445 C1.375,6.2997 1.0065,5.781325 0.457875,5.586075 L0,5.423825 L0,2.000075 C0,1.276825 0.5885,0.68695 1.313125,0.68695 L15.186875,0.68695 C15.9115,0.68695 16.5,1.276825 16.5,2.000075 L16.5,5.423825 L16.042125,5.586075 C15.4935,5.781325 15.125,6.2997 15.125,6.87445 C15.125,7.450575 15.4935,7.96895 16.042125,8.162825 L16.5,8.32645 L16.5,11.7502 C16.5,12.47345 15.9115,13.06195 15.186875,13.06195" id="Fill-2"></path>
                            <path d="M5.215375,9.5337 C4.835875,9.5337 4.527875,9.2257 4.527875,8.8462 L4.527875,4.904075 C4.527875,4.5232 4.835875,4.216575 5.215375,4.216575 C5.594875,4.216575 5.902875,4.5232 5.902875,4.904075 L5.902875,8.8462 C5.902875,9.2257 5.594875,9.5337 5.215375,9.5337" id="Fill-4"></path>
                        </g>
                    </g>
                </g>
            </g>
        </g>
    </g>
</svg>