<?xml version="1.0" encoding="UTF-8"?>
<svg width="22px" height="22px" viewBox="0 0 22 22" version="1.1" xmlns="http://www.w3.org/2000/svg" xmlns:xlink="http://www.w3.org/1999/xlink">
    <!-- Generator: Sketch 52.5 (67469) - http://www.bohemiancoding.com/sketch -->
    <title>分组@2x</title>
    <desc>Created with Sketch.</desc>
    <g id="小程序（精简版）" stroke="none" stroke-width="1" fill="none" fill-rule="evenodd">
        <g id="我的" transform="translate(-282.000000, -371.000000)">
            <g id="矩形-2" transform="translate(30.000000, 357.000000)">
                <g id="分组-5-copy-2" transform="translate(210.000000, 0.000000)">
                    <g id="分组" transform="translate(42.000000, 14.000000)">
                        <polygon id="Fill-1" fill="#FFFFFF" points="0 22 22 22 22 0 0 0"></polygon>
                        <path d="M13.67575,17.144875 L16.104,17.144875 L16.104,12.073875 L13.67575,12.073875 L13.67575,17.144875 Z M5.896,17.144875 L8.32425,17.144875 L8.32425,12.073875 L5.896,12.073875 L5.896,17.144875 Z M10.55175,17.144875 L11.44825,17.144875 L11.44825,12.073875 L10.55175,12.073875 L10.55175,17.144875 Z M4.841375,9.845 L17.16,9.845 L17.16,8.372375 L4.841375,8.372375 L4.841375,9.845 Z M18.27375,6.144875 L13.608375,6.144875 L15.225375,4.527875 C15.659875,4.093375 15.659875,3.388 15.225375,2.9535 C14.7895,2.519 14.0855,2.519 13.649625,2.9535 L11,5.603125 L8.350375,2.9535 C7.9145,2.519 7.2105,2.519 6.774625,2.9535 C6.340125,3.388 6.340125,4.093375 6.774625,4.527875 L8.391625,6.144875 L3.72625,6.144875 C3.111625,6.144875 2.6125,6.644 2.6125,7.258625 L2.6125,10.960125 C2.6125,11.554125 3.081375,12.029875 3.667125,12.0615 L3.667125,18.258625 C3.667125,18.874625 4.16625,19.372375 4.78225,19.372375 L17.21775,19.372375 C17.83375,19.372375 18.332875,18.874625 18.332875,18.258625 L18.332875,12.0615 C18.918625,12.029875 19.3875,11.554125 19.3875,10.960125 L19.3875,7.258625 C19.3875,6.644 18.888375,6.144875 18.27375,6.144875 Z" id="Fill-2" fill="#FFC86D"></path>
                    </g>
                </g>
            </g>
        </g>
    </g>
</svg>