<?xml version="1.0" encoding="UTF-8"?>
<svg width="22px" height="22px" viewBox="0 0 22 22" version="1.1" xmlns="http://www.w3.org/2000/svg" xmlns:xlink="http://www.w3.org/1999/xlink">
    <!-- Generator: Sketch 52.5 (67469) - http://www.bohemiancoding.com/sketch -->
    <title>分组@2x</title>
    <desc>Created with Sketch.</desc>
    <g id="小程序（精简版）" stroke="none" stroke-width="1" fill="none" fill-rule="evenodd">
        <g id="我的" transform="translate(-289.000000, -379.000000)">
            <g id="矩形-2" transform="translate(20.000000, 365.000000)">
                <g id="分组-5-copy-2" transform="translate(224.000000, 0.000000)">
                    <g id="分组" transform="translate(45.000000, 14.000000)">
                        <polygon id="Fill-1" fill="#FFFFFF" points="0 22 22 22 22 0 0 0"></polygon>
                        <path d="M13.249775,17.593675 L13.249775,11.6468 L16.541525,11.6468 L16.604775,17.571675 L13.249775,17.593675 Z M5.46865,11.6468 L8.750775,11.6468 L8.750775,17.623925 L5.46865,17.645925 L5.46865,11.6468 Z M11.874775,11.6468 L11.874775,17.6033 L10.125775,17.6143 L10.125775,11.6468 L11.874775,11.6468 Z M17.58515,7.880675 L17.58515,10.2718 L4.414025,10.339175 L4.348025,7.946675 L17.58515,7.880675 Z M17.652525,6.571675 L12.647525,6.571675 L14.9314,4.21905 C15.1954,3.948175 15.188525,3.5123 14.916275,3.246925 C14.644025,2.982925 14.209525,2.9898 13.94415,3.26205 L11.085525,6.205925 L8.041275,3.2483 C7.769025,2.982925 7.33315,2.9898 7.06915,3.26205 C6.80515,3.5343 6.81065,3.9688 7.0829,4.234175 L9.48915,6.571675 L4.348025,6.571675 C3.62615,6.571675 3.039025,7.1588 3.039025,7.880675 L3.039025,10.339175 C3.039025,10.9703 3.498275,11.47355 4.09365,11.595925 L4.09365,17.645925 C4.09365,18.363675 4.678025,18.946675 5.395775,18.946675 L16.604775,18.946675 C17.322525,18.946675 17.905525,18.363675 17.905525,17.645925 L17.905525,11.595925 C18.502275,11.47355 18.96015,10.9703 18.96015,10.339175 L18.96015,7.880675 C18.96015,7.1588 18.3744,6.571675 17.652525,6.571675 Z" id="Fill-2" fill="#FFC86D"></path>
                    </g>
                </g>
            </g>
        </g>
    </g>
</svg>